<svg width="634" height="434" viewBox="0 0 634 434" fill="none" xmlns="http://www.w3.org/2000/svg">
<g clip-path="url(#clip0_771_119)">
<rect width="634" height="434" fill="#FFFAEB"/>
<path d="M144.611 133.921V166.185C144.611 169.115 146.991 171.488 149.914 171.488H225.055C227.985 171.488 230.358 173.861 230.358 176.791V209.055C230.358 211.985 227.985 214.358 225.055 214.358H149.914C146.991 214.358 144.611 211.985 144.611 209.055V176.791C144.611 173.861 142.238 171.488 139.308 171.488H64.1736C61.2436 171.488 58.8703 173.861 58.8703 176.791V209.055C58.8703 211.985 56.4971 214.358 53.5671 214.358H21.3033C18.3732 214.358 16 211.985 16 209.055V176.791C16 173.861 18.3732 171.488 21.3033 171.488H53.5671C56.4971 171.488 58.8703 169.115 58.8703 166.185V133.921C58.8703 130.991 61.2436 128.618 64.1736 128.618H96.4374C99.3675 128.618 101.741 126.244 101.741 123.314V48.1736C101.741 45.2502 99.3675 42.8703 96.4374 42.8703H21.3033C18.3732 42.8703 16 40.4971 16 37.5671V5.30327C16 2.37322 18.3732 0 21.3033 0H96.4374C99.3675 0 101.741 2.37322 101.741 5.30327V37.5671C101.741 40.4971 104.114 42.8703 107.044 42.8703H182.185C185.108 42.8703 187.488 40.4971 187.488 37.5671V5.30327C187.488 2.37322 189.861 0 192.791 0H225.055C227.985 0 230.358 2.37322 230.358 5.30327V37.5671C230.358 40.4971 227.985 42.8703 225.055 42.8703H192.791C189.861 42.8703 187.488 45.2502 187.488 48.1736V80.444C187.488 83.3675 185.108 85.7473 182.185 85.7473H149.914C146.991 85.7473 144.611 88.1205 144.611 91.0506V133.921Z" fill="#DCE1F4"/>
<path d="M573.253 133.921V166.185C573.253 169.115 575.632 171.488 578.556 171.488H653.697C656.627 171.488 659 173.861 659 176.791V209.055C659 211.985 656.627 214.358 653.697 214.358H578.556C575.632 214.358 573.253 211.985 573.253 209.055V176.791C573.253 173.861 570.879 171.488 567.949 171.488H492.815C489.885 171.488 487.512 173.861 487.512 176.791V209.055C487.512 211.985 485.139 214.358 482.209 214.358H449.945C447.015 214.358 444.642 211.985 444.642 209.055V176.791C444.642 173.861 447.015 171.488 449.945 171.488H482.209C485.139 171.488 487.512 169.115 487.512 166.185V133.921C487.512 130.991 489.885 128.618 492.815 128.618H525.079C528.009 128.618 530.382 126.244 530.382 123.314V48.1736C530.382 45.2502 528.009 42.8703 525.079 42.8703H449.945C447.015 42.8703 444.642 40.4971 444.642 37.5671V5.30327C444.642 2.37322 447.015 0 449.945 0H525.079C528.009 0 530.382 2.37322 530.382 5.30327V37.5671C530.382 40.4971 532.756 42.8703 535.686 42.8703H610.826C613.75 42.8703 616.13 40.4971 616.13 37.5671V5.30327C616.13 2.37322 618.503 0 621.433 0H653.697C656.627 0 659 2.37322 659 5.30327V37.5671C659 40.4971 656.627 42.8703 653.697 42.8703H621.433C618.503 42.8703 616.13 45.2502 616.13 48.1736V80.444C616.13 83.3675 613.75 85.7473 610.826 85.7473H578.556C575.632 85.7473 573.253 88.1205 573.253 91.0506V133.921Z" fill="#DCE1F4"/>
<path d="M358.969 133.921V166.185C358.969 169.115 361.349 171.488 364.273 171.488H439.413C442.344 171.488 444.717 173.861 444.717 176.791V209.055C444.717 211.985 442.344 214.358 439.413 214.358H364.273C361.349 214.358 358.969 211.985 358.969 209.055V176.791C358.969 173.861 356.596 171.488 353.666 171.488H278.532C275.602 171.488 273.229 173.861 273.229 176.791V209.055C273.229 211.985 270.856 214.358 267.925 214.358H235.662C232.732 214.358 230.358 211.985 230.358 209.055V176.791C230.358 173.861 232.732 171.488 235.662 171.488H267.925C270.856 171.488 273.229 169.115 273.229 166.185V133.921C273.229 130.991 275.602 128.618 278.532 128.618H310.796C313.726 128.618 316.099 126.244 316.099 123.314V48.1736C316.099 45.2502 313.726 42.8703 310.796 42.8703H235.662C232.732 42.8703 230.358 40.4971 230.358 37.5671V5.30327C230.358 2.37322 232.732 0 235.662 0H310.796C313.726 0 316.099 2.37322 316.099 5.30327V37.5671C316.099 40.4971 318.472 42.8703 321.402 42.8703H396.543C399.467 42.8703 401.846 40.4971 401.846 37.5671V5.30327C401.846 2.37322 404.22 0 407.15 0H439.413C442.344 0 444.717 2.37322 444.717 5.30327V37.5671C444.717 40.4971 442.344 42.8703 439.413 42.8703H407.15C404.22 42.8703 401.846 45.2502 401.846 48.1736V80.444C401.846 83.3675 399.467 85.7473 396.543 85.7473H364.273C361.349 85.7473 358.969 88.1205 358.969 91.0506V133.921Z" fill="#92A9EC"/>
<path d="M144.611 348.279V380.543C144.611 383.473 146.991 385.846 149.914 385.846H225.055C227.985 385.846 230.358 388.22 230.358 391.15V423.413C230.358 426.344 227.985 428.717 225.055 428.717H149.914C146.991 428.717 144.611 426.344 144.611 423.413V391.15C144.611 388.22 142.238 385.846 139.308 385.846H64.1736C61.2436 385.846 58.8703 388.22 58.8703 391.15V423.413C58.8703 426.344 56.4971 428.717 53.5671 428.717H21.3033C18.3732 428.717 16 426.344 16 423.413V391.15C16 388.22 18.3732 385.846 21.3033 385.846H53.5671C56.4971 385.846 58.8703 383.473 58.8703 380.543V348.279C58.8703 345.349 61.2436 342.976 64.1736 342.976H96.4374C99.3675 342.976 101.741 340.603 101.741 337.673V262.532C101.741 259.609 99.3675 257.229 96.4374 257.229H21.3033C18.3732 257.229 16 254.856 16 251.925V219.662C16 216.732 18.3732 214.358 21.3033 214.358H96.4374C99.3675 214.358 101.741 216.732 101.741 219.662V251.925C101.741 254.856 104.114 257.229 107.044 257.229H182.185C185.108 257.229 187.488 254.856 187.488 251.925V219.662C187.488 216.732 189.861 214.358 192.791 214.358H225.055C227.985 214.358 230.358 216.732 230.358 219.662V251.925C230.358 254.856 227.985 257.229 225.055 257.229H192.791C189.861 257.229 187.488 259.609 187.488 262.532V294.802C187.488 297.726 185.108 300.106 182.185 300.106H149.914C146.991 300.106 144.611 302.479 144.611 305.409V348.279Z" fill="#92A9EC"/>
<path d="M573.253 348.279V380.543C573.253 383.473 575.632 385.846 578.556 385.846H653.697C656.627 385.846 659 388.22 659 391.15V423.413C659 426.344 656.627 428.717 653.697 428.717H578.556C575.632 428.717 573.253 426.344 573.253 423.413V391.15C573.253 388.22 570.879 385.846 567.949 385.846H492.815C489.885 385.846 487.512 388.22 487.512 391.15V423.413C487.512 426.344 485.139 428.717 482.209 428.717H449.945C447.015 428.717 444.642 426.344 444.642 423.413V391.15C444.642 388.22 447.015 385.846 449.945 385.846H482.209C485.139 385.846 487.512 383.473 487.512 380.543V348.279C487.512 345.349 489.885 342.976 492.815 342.976H525.079C528.009 342.976 530.382 340.603 530.382 337.673V262.532C530.382 259.609 528.009 257.229 525.079 257.229H449.945C447.015 257.229 444.642 254.856 444.642 251.925V219.662C444.642 216.732 447.015 214.358 449.945 214.358H525.079C528.009 214.358 530.382 216.732 530.382 219.662V251.925C530.382 254.856 532.756 257.229 535.686 257.229H610.826C613.75 257.229 616.13 254.856 616.13 251.925V219.662C616.13 216.732 618.503 214.358 621.433 214.358H653.697C656.627 214.358 659 216.732 659 219.662V251.925C659 254.856 656.627 257.229 653.697 257.229H621.433C618.503 257.229 616.13 259.609 616.13 262.532V294.802C616.13 297.726 613.75 300.106 610.826 300.106H578.556C575.632 300.106 573.253 302.479 573.253 305.409V348.279Z" fill="#92A9EC"/>
<path d="M358.969 348.279V380.543C358.969 383.473 361.349 385.846 364.273 385.846H439.413C442.344 385.846 444.717 388.22 444.717 391.15V423.413C444.717 426.344 442.344 428.717 439.413 428.717H364.273C361.349 428.717 358.969 426.344 358.969 423.413V391.15C358.969 388.22 356.596 385.846 353.666 385.846H278.532C275.602 385.846 273.229 388.22 273.229 391.15V423.413C273.229 426.344 270.856 428.717 267.925 428.717H235.662C232.732 428.717 230.358 426.344 230.358 423.413V391.15C230.358 388.22 232.732 385.846 235.662 385.846H267.925C270.856 385.846 273.229 383.473 273.229 380.543V348.279C273.229 345.349 275.602 342.976 278.532 342.976H310.796C313.726 342.976 316.099 340.603 316.099 337.673V262.532C316.099 259.609 313.726 257.229 310.796 257.229H235.662C232.732 257.229 230.358 254.856 230.358 251.925V219.662C230.358 216.732 232.732 214.358 235.662 214.358H310.796C313.726 214.358 316.099 216.732 316.099 219.662V251.925C316.099 254.856 318.472 257.229 321.402 257.229H396.543C399.467 257.229 401.846 254.856 401.846 251.925V219.662C401.846 216.732 404.22 214.358 407.15 214.358H439.413C442.344 214.358 444.717 216.732 444.717 219.662V251.925C444.717 254.856 442.344 257.229 439.413 257.229H407.15C404.22 257.229 401.846 259.609 401.846 262.532V294.802C401.846 297.726 399.467 300.106 396.543 300.106H364.273C361.349 300.106 358.969 302.479 358.969 305.409V348.279Z" fill="#DCE1F4"/>
</g>
<defs>
<clipPath id="clip0_771_119">
<rect width="634" height="434" fill="white"/>
</clipPath>
</defs>
</svg>
