<svg width="60" height="60" viewBox="0 0 60 60" fill="none" xmlns="http://www.w3.org/2000/svg">
<rect width="60" height="60" fill="#FFFAEB"/>
<path d="M21.4059 24.6357H14.8566V45.5212H21.4059V24.6357Z" fill="black"/>
<path d="M39.1224 24.1821C38.8809 24.1519 38.6244 24.1368 38.3678 24.1217C34.7008 23.9708 32.6334 26.1439 31.909 27.0795C31.7128 27.336 31.6223 27.487 31.6223 27.487V24.6952H25.3597V45.5807H31.6223H31.909C31.909 43.4529 31.909 41.3402 31.909 39.2124C31.909 38.0655 31.909 36.9186 31.909 35.7717C31.909 34.3532 31.8034 32.8441 32.5127 31.5463C33.1163 30.4598 34.2028 29.9165 35.4251 29.9165C39.0469 29.9165 39.1224 33.1912 39.1224 33.493C39.1224 33.5081 39.1224 33.5232 39.1224 33.5232V45.6712H45.6717V32.0443C45.6717 27.3813 43.3025 24.6348 39.1224 24.1821Z" fill="black"/>
<path d="M18.1312 21.9338C20.2315 21.9338 21.9341 20.2312 21.9341 18.131C21.9341 16.0307 20.2315 14.3281 18.1312 14.3281C16.0309 14.3281 14.3284 16.0307 14.3284 18.131C14.3284 20.2312 16.0309 21.9338 18.1312 21.9338Z" fill="black"/>
</svg>
