<svg width="197" height="60" viewBox="0 0 197 60" fill="none" xmlns="http://www.w3.org/2000/svg">
<g clip-path="url(#clip0_641_29029)">
<path d="M67.4994 0.945924H57.0826C56.1379 0.945924 55.3681 1.71182 55.3681 2.66293V13.0951C55.3681 14.0412 54.5984 14.8121 53.6537 14.8121H43.2318C42.2871 14.8121 41.5174 14.0462 41.5174 13.0951V2.65792C41.5174 1.71182 40.7526 0.940918 39.8029 0.940918H1.71448C0.764767 0.945924 0 1.71182 0 2.65792V40.8174C0 41.7635 0.764767 42.5344 1.71448 42.5344H12.1313C13.076 42.5344 13.8458 43.3003 13.8458 44.2514V54.6836C13.8458 55.6297 14.6105 56.4006 15.5603 56.4006H53.6637C54.6084 56.4006 55.3781 55.6347 55.3781 54.6836V16.5241C55.3781 15.578 56.1429 14.8071 57.0926 14.8071H67.5094C68.4541 14.8071 69.2239 14.0412 69.2239 13.0901V2.65792C69.2239 1.71182 68.4591 0.940918 67.5094 0.940918L67.4994 0.945924ZM25.9721 42.5344H15.5553C14.6105 42.5344 13.8408 41.7635 13.8408 40.8174V14.8071H39.8129C40.7576 14.8071 41.5274 15.578 41.5274 16.5241V42.5344H25.9721Z" fill="#FFFAEB"/>
<path d="M95.9159 47.3304H92.6169V30.8011H85.989V27.9277H102.539V30.8011H95.9109V47.3304H95.9159Z" fill="#FFFAEB"/>
<path d="M108.882 47.6207C107.367 47.6207 106.048 47.3153 104.923 46.6996C103.798 46.0839 102.934 45.2128 102.329 44.0765C101.724 42.9452 101.419 41.6187 101.419 40.1019C101.419 38.5851 101.719 37.2736 102.314 36.1623C102.909 35.051 103.763 34.195 104.863 33.5893C105.963 32.9836 107.262 32.6782 108.762 32.6782C110.261 32.6782 111.431 32.9636 112.471 33.5292C113.505 34.0949 114.31 34.9008 114.875 35.947C115.44 36.9933 115.725 38.2347 115.725 39.6714V40.8678H104.528C104.658 42.1793 105.093 43.1855 105.843 43.8963C106.593 44.6071 107.597 44.9626 108.857 44.9626C109.782 44.9626 110.541 44.7873 111.131 44.4369C111.721 44.0865 112.126 43.5609 112.351 42.8551H115.65C115.3 44.3568 114.53 45.5282 113.341 46.3642C112.151 47.2002 110.666 47.6207 108.882 47.6207ZM104.623 38.5901H112.611C112.481 37.5339 112.086 36.7279 111.416 36.1573C110.746 35.5866 109.862 35.3063 108.762 35.3063C107.662 35.3063 106.753 35.5916 106.033 36.1573C105.313 36.7229 104.843 37.5339 104.623 38.5901Z" fill="#FFFAEB"/>
<path d="M118.304 47.33V27.2065H121.558V47.33H118.304Z" fill="#FFFAEB"/>
<path d="M131.605 47.6207C130.091 47.6207 128.771 47.3153 127.646 46.6996C126.522 46.0839 125.657 45.2128 125.052 44.0765C124.447 42.9452 124.143 41.6187 124.143 40.1019C124.143 38.5851 124.442 37.2736 125.037 36.1623C125.632 35.051 126.487 34.195 127.586 33.5893C128.686 32.9836 129.986 32.6782 131.485 32.6782C132.985 32.6782 134.154 32.9636 135.194 33.5292C136.229 34.0949 137.034 34.9008 137.598 35.947C138.163 36.9933 138.448 38.2347 138.448 39.6714V40.8678H127.252C127.382 42.1793 127.816 43.1855 128.566 43.8963C129.316 44.6071 130.321 44.9626 131.58 44.9626C132.505 44.9626 133.265 44.7873 133.855 44.4369C134.444 44.0865 134.849 43.5609 135.074 42.8551H138.373C138.023 44.3568 137.254 45.5282 136.064 46.3642C134.874 47.2002 133.39 47.6207 131.605 47.6207ZM127.347 38.5901H135.334C135.204 37.5339 134.809 36.7279 134.139 36.1573C133.47 35.5866 132.585 35.3063 131.485 35.3063C130.386 35.3063 129.476 35.5916 128.756 36.1573C128.036 36.7229 127.566 37.5339 127.347 38.5901Z" fill="#FFFAEB"/>
<path d="M147.46 47.6203C145.991 47.6203 144.711 47.3149 143.611 46.6992C142.512 46.0835 141.652 45.2175 141.042 44.1012C140.427 42.9849 140.123 41.6683 140.123 40.1466C140.123 38.6248 140.427 37.3133 141.032 36.192C141.637 35.0757 142.492 34.2096 143.591 33.5939C144.691 32.9782 145.986 32.6729 147.465 32.6729C149.285 32.6729 150.789 33.1284 151.984 34.0394C153.179 34.9505 153.953 36.227 154.303 37.8739H151.024C150.784 37.093 150.364 36.5023 149.77 36.1019C149.17 35.7014 148.4 35.5012 147.46 35.5012C146.201 35.5012 145.201 35.9066 144.471 36.7226C143.736 37.5385 143.372 38.6799 143.372 40.1466C143.372 41.6133 143.736 42.7596 144.471 43.5706C145.206 44.3865 146.201 44.792 147.46 44.792C149.435 44.792 150.649 43.921 151.094 42.1789H154.373C154.053 43.921 153.299 45.2625 152.099 46.2036C150.904 47.1447 149.355 47.6153 147.46 47.6153V47.6203Z" fill="#FFFAEB"/>
<path d="M162.89 47.6203C161.376 47.6203 160.056 47.3149 158.932 46.6992C157.807 46.0835 156.937 45.2175 156.312 44.1012C155.693 42.9849 155.378 41.6683 155.378 40.1466C155.378 38.6248 155.683 37.3133 156.297 36.192C156.912 35.0757 157.782 34.2096 158.917 33.5939C160.046 32.9782 161.381 32.6729 162.91 32.6729C164.44 32.6729 165.79 32.9782 166.904 33.5839C168.019 34.1896 168.884 35.0556 169.488 36.1719C170.093 37.2882 170.398 38.6148 170.398 40.1466C170.398 41.6784 170.093 42.9849 169.488 44.1112C168.884 45.2375 168.019 46.1035 166.894 46.7092C165.77 47.3149 164.435 47.6203 162.89 47.6203ZM162.89 44.792C164.245 44.792 165.295 44.3765 166.034 43.5455C166.774 42.7146 167.149 41.5832 167.149 40.1466C167.149 38.7099 166.779 37.5335 166.034 36.7226C165.29 35.9116 164.245 35.5012 162.89 35.5012C161.536 35.5012 160.506 35.9116 159.756 36.7326C159.007 37.5535 158.632 38.6949 158.632 40.1466C158.632 41.5983 159.007 42.7196 159.756 43.5455C160.506 44.3765 161.551 44.792 162.89 44.792Z" fill="#FFFAEB"/>
<path d="M173.677 47.3301V36.2371H172.028V32.9533H175.422V35.231H176.521C176.966 34.415 177.596 33.7893 178.401 33.3488C179.206 32.9082 180.185 32.688 181.33 32.688C182.475 32.688 183.429 32.9032 184.234 33.3337C185.039 33.7642 185.689 34.41 186.183 35.276H186.253C187.303 33.549 188.948 32.688 191.182 32.688C192.986 32.688 194.401 33.2136 195.441 34.2548C196.475 35.301 196.995 36.7277 196.995 38.5298V47.3201H193.741V39.1055C193.741 36.7427 192.606 35.5613 190.347 35.5613C188.088 35.5613 186.948 36.7427 186.948 39.1055V47.3201H183.694V39.1055C183.694 36.7427 182.555 35.5613 180.275 35.5613C179.176 35.5613 178.341 35.8617 177.776 36.4574C177.211 37.0581 176.926 37.9391 176.926 39.1055V47.3201H173.672L173.677 47.3301Z" fill="#FFFAEB"/>
<path d="M87.7533 20.3988V0H91.2472V17.3803H102.064V20.4038H87.7533V20.3988Z" fill="#FFFAEB"/>
<path d="M109.132 20.6793C107.402 20.6793 106.043 20.2488 105.043 19.3928C104.043 18.5368 103.549 17.4105 103.549 16.0188C103.549 14.6272 104.053 13.4258 105.058 12.6199C106.063 11.8139 107.507 11.4085 109.382 11.4085H114.16V10.7777C114.16 8.76037 113.021 7.75419 110.741 7.75419C108.812 7.75419 107.657 8.45 107.272 9.84663H103.853C104.138 8.28481 104.883 7.08341 106.078 6.24243C107.277 5.40145 108.842 4.98096 110.766 4.98096C112.931 4.98096 114.58 5.48154 115.72 6.4777C116.859 7.47387 117.429 8.92556 117.429 10.8228V16.9449H119.064V20.3939H115.52V18.0011H114.465C113.945 18.8421 113.241 19.4979 112.351 19.9634C111.461 20.434 110.391 20.6693 109.132 20.6693V20.6793ZM109.637 18.0062C110.491 18.0062 111.261 17.836 111.951 17.5006C112.636 17.1652 113.181 16.7146 113.57 16.154C113.965 15.5933 114.16 14.9676 114.16 14.2768V13.7962H109.557C107.712 13.7962 106.793 14.487 106.793 15.8637C106.793 16.5344 107.042 17.0601 107.547 17.4355C108.052 17.8109 108.747 18.0011 109.637 18.0011V18.0062Z" fill="#FFFAEB"/>
<path d="M122.258 20.3987V8.73509H120.523V5.28606H124.097V7.67885H125.252C125.722 6.82286 126.382 6.16209 127.226 5.70155C128.071 5.24101 129.101 5.01074 130.305 5.01074C131.51 5.01074 132.515 5.236 133.359 5.69154C134.204 6.14707 134.889 6.82286 135.409 7.73392H135.484C136.588 5.9218 138.318 5.01575 140.667 5.01575C142.562 5.01575 144.051 5.56639 145.141 6.66768C146.231 7.76896 146.775 9.26571 146.775 11.1629V20.4087H143.356V11.7686C143.356 9.28573 142.167 8.03927 139.787 8.03927C137.408 8.03927 136.219 9.28072 136.219 11.7686V20.4087H132.8V11.7686C132.8 9.28573 131.6 8.03927 129.201 8.03927C128.046 8.03927 127.166 8.35464 126.571 8.98538C125.977 9.61612 125.677 10.5422 125.677 11.7686V20.4087H122.258V20.3987Z" fill="#FFFAEB"/>
<path d="M155.058 20.6793C153.328 20.6793 151.969 20.2488 150.969 19.3928C149.969 18.5368 149.474 17.4105 149.474 16.0188C149.474 14.6272 149.979 13.4258 150.984 12.6199C151.989 11.8139 153.433 11.4085 155.308 11.4085H160.086V10.7777C160.086 8.76037 158.946 7.75419 156.667 7.75419C154.738 7.75419 153.583 8.45 153.198 9.84663H149.779C150.064 8.28481 150.809 7.08341 152.004 6.24243C153.203 5.40145 154.768 4.98096 156.692 4.98096C158.856 4.98096 160.506 5.48154 161.646 6.4777C162.785 7.47387 163.355 8.92556 163.355 10.8228V16.9449H164.99V20.3939H161.446V18.0011H160.391C159.871 18.8421 159.166 19.4979 158.277 19.9634C157.387 20.434 156.317 20.6693 155.058 20.6693V20.6793ZM155.557 18.0062C156.412 18.0062 157.182 17.836 157.872 17.5006C158.557 17.1652 159.101 16.7146 159.491 16.154C159.886 15.5933 160.081 14.9676 160.081 14.2768V13.7962H155.478C153.633 13.7962 152.713 14.487 152.713 15.8637C152.713 16.5344 152.963 17.0601 153.468 17.4355C153.973 17.8109 154.668 18.0011 155.557 18.0011V18.0062Z" fill="#FFFAEB"/>
<path d="M160.751 59.9896C160.031 59.9896 159.452 59.8294 159.027 59.5141C158.602 59.1987 158.362 58.7582 158.322 58.1925H159.302C159.332 58.5179 159.472 58.7682 159.721 58.9434C159.976 59.1136 160.331 59.2037 160.786 59.2037C161.186 59.2037 161.491 59.1336 161.696 58.9985C161.901 58.8633 162.011 58.6581 162.011 58.3827C162.011 58.1725 161.941 58.0023 161.801 57.8772C161.661 57.747 161.446 57.6519 161.156 57.5918L160.066 57.3716C159.571 57.2714 159.197 57.0962 158.947 56.8459C158.697 56.5957 158.567 56.2803 158.567 55.8898C158.567 55.3943 158.752 55.0038 159.127 54.7185C159.497 54.4331 160.006 54.293 160.646 54.293C161.286 54.293 161.816 54.4431 162.216 54.7385C162.616 55.0338 162.845 55.4493 162.9 55.9849H161.921C161.786 55.3692 161.341 55.0589 160.591 55.0589C160.251 55.0589 159.981 55.1239 159.786 55.2541C159.591 55.3842 159.497 55.5695 159.497 55.8097C159.497 56.1852 159.766 56.4305 160.306 56.5406L161.441 56.7709C161.951 56.871 162.326 57.0462 162.571 57.3015C162.816 57.5568 162.94 57.8922 162.94 58.3127C162.94 58.8383 162.751 59.2487 162.366 59.5441C161.981 59.8394 161.446 59.9846 160.756 59.9846L160.751 59.9896Z" fill="#FFFAEB"/>
<path d="M167.754 59.9043H163.835V54.3828H167.754V55.1988H164.78V56.6354H167.564V57.4414H164.78V59.0833H167.754V59.8993V59.9043Z" fill="#FFFAEB"/>
<path d="M168.644 59.9043V54.3828H171.378C171.948 54.3828 172.398 54.513 172.728 54.7783C173.052 55.0436 173.217 55.414 173.217 55.8896C173.217 56.1599 173.157 56.4002 173.032 56.6004C172.907 56.8006 172.728 56.9608 172.488 57.0659V57.091C172.718 57.091 172.897 57.151 173.027 57.2762C173.152 57.4013 173.217 57.5815 173.217 57.8168V59.8942H172.278V57.7067H169.588V59.8942H168.644V59.9043ZM169.593 56.9108H171.308C171.623 56.9108 171.863 56.8357 172.033 56.6855C172.203 56.5353 172.288 56.3251 172.288 56.0498C172.288 55.7744 172.203 55.5592 172.033 55.414C171.863 55.2688 171.623 55.1938 171.308 55.1938H169.593V56.9108Z" fill="#FFFAEB"/>
<path d="M175.801 59.9043L173.557 54.3828H174.592L176.361 58.868H176.396L178.161 54.3828H179.17L176.926 59.9043H175.811H175.801Z" fill="#FFFAEB"/>
<path d="M179.825 59.9043V54.3828H180.77V59.9043H179.825Z" fill="#FFFAEB"/>
<path d="M184.468 59.9995C183.904 59.9995 183.414 59.8844 182.999 59.6491C182.584 59.4138 182.259 59.0834 182.029 58.6529C181.799 58.2224 181.684 57.7218 181.684 57.1512C181.684 56.5805 181.799 56.0649 182.029 55.6394C182.259 55.2139 182.584 54.8835 182.999 54.6483C183.414 54.413 183.909 54.2979 184.468 54.2979C184.903 54.2979 185.293 54.3729 185.633 54.5181C185.973 54.6683 186.253 54.8785 186.473 55.1538C186.693 55.4292 186.833 55.7646 186.903 56.155H185.928C185.863 55.8296 185.703 55.5743 185.448 55.3991C185.193 55.2239 184.868 55.1338 184.474 55.1338C183.899 55.1338 183.449 55.314 183.124 55.6745C182.794 56.0349 182.629 56.5254 182.629 57.1562C182.629 57.7869 182.794 58.2775 183.124 58.6379C183.454 58.9983 183.904 59.1785 184.474 59.1785C184.868 59.1785 185.193 59.0884 185.448 58.9082C185.703 58.728 185.863 58.4777 185.928 58.1574H186.903C186.833 58.5428 186.693 58.8782 186.473 59.1535C186.253 59.4288 185.978 59.6441 185.633 59.7893C185.293 59.9344 184.903 60.0095 184.468 60.0095V59.9995Z" fill="#FFFAEB"/>
<path d="M191.507 59.9043H187.588V54.3828H191.507V55.1988H188.533V56.6354H191.317V57.4414H188.533V59.0833H191.507V59.8993V59.9043Z" fill="#FFFAEB"/>
<path d="M194.476 59.9896C193.756 59.9896 193.176 59.8294 192.751 59.5141C192.326 59.1987 192.086 58.7582 192.046 58.1925H193.026C193.056 58.5179 193.196 58.7682 193.446 58.9434C193.701 59.1136 194.056 59.2037 194.511 59.2037C194.911 59.2037 195.215 59.1336 195.42 58.9985C195.625 58.8633 195.735 58.6581 195.735 58.3827C195.735 58.1725 195.665 58.0023 195.525 57.8772C195.385 57.747 195.17 57.6519 194.881 57.5918L193.791 57.3716C193.296 57.2714 192.921 57.0962 192.671 56.8459C192.421 56.5957 192.291 56.2803 192.291 55.8898C192.291 55.3943 192.476 55.0038 192.851 54.7185C193.221 54.4331 193.731 54.293 194.371 54.293C195.01 54.293 195.54 54.4431 195.94 54.7385C196.34 55.0338 196.57 55.4493 196.625 55.9849H195.645C195.51 55.3692 195.065 55.0589 194.316 55.0589C193.976 55.0589 193.706 55.1239 193.511 55.2541C193.316 55.3842 193.221 55.5695 193.221 55.8097C193.221 56.1852 193.491 56.4305 194.031 56.5406L195.165 56.7709C195.675 56.871 196.05 57.0462 196.295 57.3015C196.54 57.5568 196.665 57.8922 196.665 58.3127C196.665 58.8383 196.475 59.2487 196.09 59.5441C195.705 59.8394 195.17 59.9846 194.481 59.9846L194.476 59.9896Z" fill="#FFFAEB"/>
</g>
<defs>
<clipPath id="clip0_641_29029">
<rect width="197" height="60" fill="white"/>
</clipPath>
</defs>
</svg>
