<svg width="60" height="60" viewBox="0 0 60 60" fill="none" xmlns="http://www.w3.org/2000/svg">
<rect width="60" height="60" rx="5" fill="#0A0227"/>
<path d="M21.4048 24.6357H14.8555V45.5212H21.4048V24.6357Z" fill="#FFFAEB"/>
<path d="M39.1221 24.1821C38.8806 24.1519 38.6241 24.1368 38.3675 24.1217C34.7005 23.9708 32.6331 26.1439 31.9087 27.0795C31.7125 27.336 31.622 27.487 31.622 27.487V24.6952H25.3594V45.5807H31.622H31.9087C31.9087 43.4529 31.9087 41.3402 31.9087 39.2124C31.9087 38.0655 31.9087 36.9186 31.9087 35.7717C31.9087 34.3532 31.8031 32.8441 32.5124 31.5463C33.116 30.4598 34.2025 29.9165 35.4248 29.9165C39.0466 29.9165 39.1221 33.1912 39.1221 33.493C39.1221 33.5081 39.1221 33.5232 39.1221 33.5232V45.6712H45.6714V32.0443C45.6714 27.3813 43.3022 24.6348 39.1221 24.1821Z" fill="#FFFAEB"/>
<path d="M18.131 21.9341C20.2312 21.9341 21.9338 20.2315 21.9338 18.1312C21.9338 16.031 20.2312 14.3284 18.131 14.3284C16.0307 14.3284 14.3281 16.031 14.3281 18.1312C14.3281 20.2315 16.0307 21.9341 18.131 21.9341Z" fill="#FFFAEB"/>
</svg>
