<svg width="21" height="29" viewBox="0 0 21 29" fill="none" xmlns="http://www.w3.org/2000/svg">
<path d="M10.2501 0.25C4.73562 0.25 0.25 4.66317 0.25 10.0882C0.25 12.9908 1.58556 15.2192 2.87668 17.3752C4.122 19.452 5.70887 21.8297 7.10961 23.9269C8.12309 25.4445 9.08102 26.8773 9.76408 27.982C9.86682 28.1488 10.0515 28.25 10.25 28.25C10.4485 28.25 10.6318 28.1488 10.7359 27.982C11.419 26.8787 12.3769 25.4445 13.3904 23.9269C14.7912 21.8296 16.378 19.4535 17.6233 17.3752C18.9144 15.2206 20.25 12.9922 20.25 10.0882C20.25 4.66317 15.7647 0.25 10.2501 0.25ZM16.6432 16.8068C15.4118 18.8604 13.8333 21.2256 12.4395 23.312C11.6412 24.5083 10.8762 25.6512 10.2501 26.6301C9.62256 25.6512 8.85896 24.5083 8.06068 23.312C6.6668 21.2256 5.08829 18.8603 3.8569 16.8068C2.5866 14.6877 1.38848 12.6863 1.38848 10.0899C1.38848 5.28302 5.3648 1.37141 10.2502 1.37141C15.1371 1.37141 19.112 5.28302 19.112 10.0899C19.112 12.6876 17.9122 14.6893 16.6432 16.8068ZM10.2501 5.12132C7.47767 5.12132 5.22182 7.34303 5.22182 10.0731C5.22182 12.8034 7.47785 15.025 10.2501 15.025C13.0224 15.025 15.2785 12.8033 15.2785 10.0731C15.2785 7.34285 13.0224 5.12132 10.2501 5.12132ZM10.2501 13.9043C8.10518 13.9043 6.35877 12.1857 6.35877 10.0721C6.35877 7.95977 8.1039 6.24133 10.2501 6.24133C12.3951 6.24133 14.1415 7.95991 14.1415 10.0721C14.1415 12.1843 12.3964 13.9043 10.2501 13.9043Z" fill="#0A0227" stroke="#0A0227" stroke-width="0.5"/>
</svg>
