<svg width="42" height="25" viewBox="0 0 42 25" fill="none" xmlns="http://www.w3.org/2000/svg">
<path d="M12.0249 0.250019C11.1578 0.250019 10.3695 0.610819 9.80198 1.18915C9.79498 1.19445 9.78972 1.19976 9.78447 1.20506C9.78096 1.21037 9.77746 1.21567 9.77396 1.21921C9.23445 1.78517 8.89988 2.55098 8.89988 3.39462V6.2987C8.89988 6.47026 8.96644 6.63651 9.08731 6.75853C9.20817 6.88057 9.37283 6.94778 9.54273 6.94778C9.71265 6.94601 9.87556 6.8788 9.99466 6.75677C10.1155 6.63473 10.1821 6.47025 10.1803 6.2987V3.39638C10.1803 3.12225 10.2399 2.86579 10.3415 2.63411L21.4787 13.3235C23.5159 15.2778 26.6339 15.2778 28.6711 13.3235L39.8083 2.63411C39.9099 2.8658 39.9695 3.124 39.9695 3.39638V21.1054C39.9695 22.1418 39.1585 22.9571 38.125 22.9571H12.0249C10.9932 22.9571 10.1804 22.1418 10.1804 21.1054V18.2013C10.1804 17.8458 9.89488 17.5575 9.54278 17.5558C9.37287 17.5558 9.20996 17.623 9.08911 17.745C8.96824 17.8653 8.89992 18.0298 8.89992 18.2013V21.1036C8.89992 22.8369 10.3065 24.25 12.0249 24.25H38.125C39.8434 24.25 41.25 22.8369 41.25 21.1036V3.3946C41.25 2.56867 40.9294 1.81699 40.4092 1.25456C40.3952 1.23687 40.3812 1.22096 40.3654 1.20504C40.3601 1.2015 40.3566 1.19796 40.3514 1.19442C39.7839 0.61253 38.9939 0.25 38.125 0.25L12.0249 0.250019ZM12.0249 1.54289H38.1249C38.4069 1.54289 38.6696 1.60656 38.9061 1.71445L27.7882 12.3843C26.2134 13.8947 23.938 13.8947 22.3649 12.3843L11.2451 1.71445C11.4816 1.60479 11.7444 1.54289 12.0264 1.54289H12.0249ZM7.18315 8.24247C7.01323 8.24247 6.85033 8.30968 6.72947 8.42994C6.60861 8.55021 6.54029 8.71469 6.54029 8.88624C6.53853 9.05956 6.60685 9.22404 6.72772 9.34607C6.84858 9.4681 7.01149 9.53708 7.18314 9.53531H11.9074C12.0773 9.53708 12.2419 9.4681 12.3628 9.34607C12.4837 9.22403 12.5502 9.05955 12.5502 8.88624C12.5502 8.71468 12.4819 8.5502 12.361 8.42994C12.2402 8.30968 12.0773 8.24247 11.9074 8.24247H7.18315ZM4.17552 11.6029C4.0056 11.6029 3.8427 11.6718 3.72359 11.7939C3.60273 11.9159 3.53616 12.0804 3.53791 12.2519C3.53791 12.6074 3.82344 12.8957 4.17554 12.8975H11.9074C12.0773 12.8975 12.2402 12.8303 12.3611 12.71C12.4819 12.588 12.5502 12.4235 12.5502 12.2519C12.5502 12.0804 12.4837 11.9141 12.3628 11.7921C12.242 11.6701 12.0773 11.6029 11.9074 11.6029L4.17552 11.6029ZM0.889373 14.9685C0.537283 14.9703 0.251749 15.2586 0.25 15.6141C0.25 15.7856 0.316565 15.9501 0.437431 16.0722C0.556543 16.1942 0.719453 16.2632 0.889359 16.2632H11.9073C12.0772 16.2632 12.2419 16.196 12.3627 16.0739C12.4836 15.9519 12.5502 15.7856 12.5502 15.6141C12.5502 15.4425 12.4819 15.2781 12.361 15.1578C12.2401 15.0358 12.0772 14.9686 11.9073 14.9686L0.889373 14.9685Z" fill="#0A0227" stroke="#0A0227" stroke-width="0.5"/>
</svg>
