<svg width="30" height="29" viewBox="0 0 30 29" fill="none" xmlns="http://www.w3.org/2000/svg">
<path d="M24.5211 15.0538H24.2902C24.0946 14.9876 23.9318 14.849 23.8352 14.6665C23.7386 14.484 23.7155 14.2714 23.7707 14.0725C24.1268 12.9509 24.1642 11.7523 23.8788 10.6107C23.5934 9.46905 22.9964 8.42917 22.1544 7.60711C21.3083 6.76515 20.2457 6.17386 19.0842 5.89876C17.9228 5.62366 16.7078 5.67549 15.574 6.0485C15.3823 6.10691 15.1757 6.092 14.9944 6.00666C14.813 5.92132 14.6699 5.77165 14.5927 5.58669C14.5567 5.48445 14.5417 5.37602 14.5485 5.26784C14.5552 5.15967 14.5837 5.05397 14.6322 4.95702C14.6807 4.86008 14.7481 4.77388 14.8306 4.70354C14.9131 4.63321 15.0088 4.58018 15.1122 4.54762C16.5052 4.07509 18.0018 3.99751 19.4361 4.32346C20.8705 4.64941 22.1866 5.36618 23.2386 6.39431C24.2906 7.42245 25.0373 8.7218 25.3962 10.1484C25.755 11.5749 25.7118 13.073 25.2715 14.4765C25.223 14.6395 25.1244 14.7829 24.9896 14.8866C24.8549 14.9902 24.691 15.0487 24.5211 15.0538Z" fill="#0A0227" stroke="#0A0227" stroke-width="0.2"/>
<path d="M28.3921 15.2847H28.2189C28.119 15.2645 28.0243 15.2241 27.9406 15.166C27.8568 15.1079 27.7858 15.0334 27.7317 14.947C27.6777 14.8606 27.6419 14.7641 27.6264 14.6633C27.6109 14.5626 27.6161 14.4598 27.6417 14.3611C27.9456 12.6851 27.8421 10.9606 27.3398 9.33303C26.8375 7.70546 25.9511 6.22257 24.7555 5.00945C23.5408 3.86354 22.0638 3.03283 20.4537 2.59003C18.8437 2.14724 17.1496 2.10585 15.5198 2.46949C15.4212 2.49505 15.3183 2.50024 15.2176 2.48475C15.1169 2.46926 15.0204 2.43341 14.9339 2.3794C14.8475 2.32538 14.773 2.25433 14.715 2.17057C14.6569 2.08682 14.6165 1.99211 14.5962 1.89223C14.5707 1.79357 14.5655 1.69074 14.581 1.59001C14.5965 1.48928 14.6323 1.39276 14.6863 1.30633C14.7403 1.21991 14.8114 1.1454 14.8951 1.08733C14.9789 1.02927 15.0736 0.988872 15.1735 0.968609C17.0585 0.550825 19.0172 0.600691 20.8786 1.11386C22.74 1.62702 24.4475 2.5879 25.8522 3.91265C27.2432 5.30457 28.2708 7.01705 28.8445 8.8994C29.4182 10.7818 29.5206 12.7763 29.1425 14.7075C29.094 14.8704 28.9954 15.0139 28.8606 15.1175C28.7259 15.2211 28.5619 15.2796 28.3921 15.2847Z" fill="#0A0227" stroke="#0A0227" stroke-width="0.2"/>
<path d="M21.4632 28.1C10.669 28.1 3.04956 17.5361 0.682916 10.2048C-0.240653 7.54942 -0.0674839 5.24037 1.20242 3.39313C2.47233 1.54589 5.58938 0.218186 7.03246 0.102733C7.17556 0.0899268 7.31911 0.12194 7.44321 0.194339C7.56732 0.266737 7.66584 0.375938 7.72513 0.506817L11.4771 7.26079C11.5555 7.40786 11.5864 7.57555 11.5657 7.74089C11.5451 7.90623 11.4738 8.06114 11.3617 8.18441L8.36009 11.2439C9.14875 13.3408 10.3603 15.2531 11.9193 16.8618C13.4783 18.4706 15.3516 19.7415 17.4226 20.5956L20.5397 17.3052C20.6719 17.1881 20.8368 17.1143 21.0122 17.0937C21.1876 17.0731 21.3651 17.1066 21.521 17.1897L28.3323 21.1728C28.4383 21.2269 28.527 21.3097 28.5882 21.4118C28.6495 21.5138 28.6808 21.6311 28.6786 21.7501C28.9095 23.8282 27.755 27.1186 24.6957 27.7536C23.6325 27.977 22.5496 28.0931 21.4632 28.1ZM6.6284 1.71907C4.96491 1.9915 3.4736 2.9029 2.47233 4.25902C1.49104 5.70218 1.37559 7.4917 2.12599 9.74302C3.68452 14.3611 10.2649 26.5414 21.3478 26.5414C22.3559 26.557 23.3627 26.4602 24.3494 26.2527C26.3697 25.8487 27.1201 23.6551 27.1778 22.2696L21.2901 18.806L18.2307 22.0387C18.1267 22.1427 17.998 22.2184 17.8566 22.2588C17.7152 22.2992 17.5658 22.3029 17.4226 22.2696C14.9295 21.3559 12.6719 19.8971 10.8144 17.9995C8.95694 16.102 7.54654 13.8137 6.68612 11.3016C6.64679 11.1587 6.64752 11.0077 6.68824 10.8652C6.72897 10.7226 6.80811 10.594 6.91701 10.4935L9.80317 7.4917L6.6284 1.71907Z" fill="#0A0227" stroke="#0A0227" stroke-width="0.2"/>
</svg>
