<svg width="35" height="36" viewBox="0 0 35 36" fill="none" xmlns="http://www.w3.org/2000/svg">
<path fill-rule="evenodd" clip-rule="evenodd" d="M11.6151 0.000146311V9.64423L14.5396 6.7064C14.7397 6.50772 15.0633 6.50772 15.2618 6.70802L18.183 9.64423L18.1847 0.000148696L11.6151 0.000146311ZM3.50038 20.9997C3.21737 20.9997 2.98801 20.7701 2.98801 20.4867C2.98801 20.2033 3.21735 19.9737 3.50038 19.9737H10.9305C11.2136 19.9737 11.4429 20.2033 11.4429 20.4867C11.4429 20.77 11.2136 20.9997 10.9305 20.9997H3.50038ZM3.50038 24.2599C3.21737 24.2599 2.98801 24.0303 2.98801 23.7469C2.98801 23.4636 3.21735 23.2339 3.50038 23.2339H10.9305C11.2136 23.2339 11.4429 23.4636 11.4429 23.7469C11.4429 24.0303 11.2136 24.2599 10.9305 24.2599H3.50038ZM24.0907 22.6331C23.8662 22.4621 23.8223 22.1413 23.9931 21.9165C24.1639 21.6918 24.4843 21.6478 24.7088 21.8188L26.0653 22.8513L28.0936 20.319C28.2709 20.0991 28.593 20.0633 28.8126 20.2408C29.0322 20.4183 29.0679 20.7407 28.8906 20.9606L26.5517 23.8805L26.55 23.8789C26.3776 24.0939 26.0653 24.1329 25.8441 23.9652L24.0907 22.6315L24.0907 22.6331ZM20.927 29.7187L20.701 30.2072C20.6928 30.2284 20.6831 30.2496 20.6717 30.2691L18.8711 34.1515L21.0653 33.956C21.2523 33.9267 21.4475 34.0016 21.5646 34.1677L22.8512 35.9998L24.9852 31.3977C24.8567 31.3244 24.7347 31.2641 24.6306 31.243C24.4631 31.2088 24.2208 31.2478 23.9784 31.2869C23.5588 31.3553 23.1407 31.4221 22.7179 31.243C22.2917 31.0622 22.0493 30.7121 21.8086 30.3636C21.6752 30.1698 21.5402 29.9743 21.4085 29.8864C21.2963 29.8099 21.1173 29.7626 20.927 29.7187ZM19.8958 29.5086L1.15971 29.5102C0.840905 29.5102 0.551394 29.3799 0.341573 29.1682C0.131747 28.9581 0 28.6667 0 28.3491V1.16116C0 0.841973 0.130123 0.552112 0.341573 0.342038C0.551398 0.131959 0.842537 5.28787e-05 1.15971 5.28787e-05H10.5902V10.8848H10.5918C10.5918 11.0167 10.6423 11.147 10.7431 11.248C10.9432 11.4467 11.2668 11.4467 11.4653 11.2463L14.8989 7.79556L18.3065 11.2203C18.4009 11.3294 18.5408 11.3994 18.6953 11.3994C18.9783 11.3994 19.2077 11.1698 19.2077 10.8864L19.2093 0H28.3146C28.6334 0 28.9229 0.13028 29.1327 0.341985C29.3425 0.552063 29.4743 0.843554 29.4743 1.1611V13.4612C29.2872 13.4694 29.1002 13.5003 28.9131 13.5296C28.6708 13.5687 28.4284 13.6078 28.2609 13.5736C28.0966 13.5394 27.89 13.4124 27.6802 13.2837C27.3045 13.0525 26.9255 12.818 26.4457 12.818C25.9659 12.818 25.5869 13.0525 25.2112 13.2837C25.003 13.4124 24.7948 13.541 24.6305 13.5736C24.463 13.6078 24.2206 13.5687 23.9783 13.5296C23.5586 13.4612 23.1406 13.3945 22.7177 13.5736C22.2916 13.7544 22.0492 14.1045 21.8085 14.453C21.6751 14.6468 21.5401 14.8406 21.4083 14.9301C21.2733 15.0213 21.044 15.0718 20.8146 15.1239C20.4031 15.2151 19.9916 15.3063 19.6712 15.6271C19.3507 15.9479 19.2597 16.36 19.1686 16.772C19.1182 17.0016 19.0661 17.2312 18.975 17.3664C18.8856 17.4983 18.692 17.6335 18.4985 17.767C18.1504 18.008 17.8007 18.249 17.6201 18.6773C17.4412 19.1007 17.5095 19.5193 17.5762 19.9394C17.6152 20.1821 17.6543 20.4247 17.6201 20.5924C17.586 20.7569 17.4591 20.9654 17.3306 21.1738C17.0996 21.55 16.8654 21.9294 16.8654 22.4098C16.8654 22.8902 17.0996 23.2697 17.3306 23.6458C17.4591 23.8543 17.5876 24.0611 17.6201 24.2272C17.6543 24.3949 17.6152 24.6376 17.5762 24.8802C17.5079 25.3004 17.4412 25.7189 17.6201 26.1423C17.8007 26.5689 18.1504 26.8116 18.4985 27.0526C18.692 27.1862 18.8856 27.3213 18.975 27.4532C19.0661 27.5884 19.1165 27.818 19.1686 28.0477C19.2597 28.4597 19.3508 28.8717 19.6712 29.1925C19.7574 29.2788 19.8501 29.3472 19.9461 29.4058L19.8973 29.5117L19.8958 29.5086ZM28.349 31.2315L30.5595 36L31.8461 34.1679C31.9616 34.0035 32.1584 33.9269 32.3454 33.9562L34.5396 34.1517L32.4332 29.6083C32.3145 29.6409 32.1941 29.6669 32.0738 29.6946C31.8444 29.7451 31.6151 29.7972 31.4801 29.8884C31.3483 29.978 31.2133 30.1718 31.0799 30.3656C30.8392 30.7141 30.5985 31.0642 30.1707 31.245C29.7478 31.4241 29.3298 31.3557 28.9102 31.2889C28.7085 31.2564 28.5068 31.2238 28.349 31.2336L28.349 31.2315ZM27.3764 30.5215C27.391 30.5117 27.4073 30.502 27.4252 30.4938C27.622 30.3831 27.8253 30.2886 28.0546 30.2414C28.4043 30.1698 28.7394 30.2235 29.0712 30.2772C29.3477 30.3212 29.6226 30.3668 29.7755 30.3017C29.9268 30.2382 30.0829 30.0102 30.2391 29.7838C30.4294 29.507 30.6197 29.2317 30.9076 29.0379C31.1955 28.8425 31.5257 28.7692 31.8542 28.6959C32.1161 28.6373 32.3796 28.5787 32.4935 28.4647C32.6073 28.3507 32.6659 28.0885 32.7245 27.8247C32.7976 27.4957 32.8708 27.1668 33.066 26.8769C33.2612 26.5887 33.5361 26.3981 33.811 26.2076C34.0371 26.0512 34.2648 25.8933 34.3282 25.7434C34.3933 25.5904 34.3478 25.3152 34.3038 25.0383C34.2502 24.7045 34.1965 24.3706 34.2681 24.0205C34.338 23.6785 34.5137 23.3935 34.691 23.1069C34.8438 22.8577 35 22.6053 35 22.4083C35 22.2112 34.8455 21.9588 34.691 21.7096C34.5137 21.423 34.338 21.138 34.2681 20.796C34.1965 20.4459 34.2502 20.1105 34.3038 19.7782C34.3478 19.5014 34.3933 19.2262 34.3282 19.0731C34.2648 18.9216 34.0371 18.7653 33.811 18.609C33.5345 18.4184 33.2596 18.2279 33.066 17.9396C32.8708 17.6514 32.7976 17.3208 32.7245 16.9918C32.6659 16.7297 32.6073 16.4659 32.4935 16.3518C32.3796 16.2378 32.1161 16.1792 31.8542 16.1206C31.5257 16.0473 31.1971 15.974 30.9076 15.7786C30.6197 15.5832 30.4294 15.308 30.2391 15.0327C30.0927 14.821 29.9463 14.6077 29.8048 14.5295C29.7869 14.523 29.7706 14.5149 29.7544 14.5067C29.5982 14.4546 29.3363 14.497 29.0728 14.5393C28.7394 14.593 28.406 14.6468 28.0563 14.5751C27.7147 14.5051 27.43 14.3292 27.1438 14.1517C26.8949 13.9986 26.6428 13.8423 26.446 13.8423C26.2492 13.8423 25.9971 13.997 25.7482 14.1517C25.4619 14.3292 25.1773 14.5051 24.8357 14.5751C24.486 14.6468 24.1509 14.593 23.8191 14.5393C23.5426 14.4953 23.2677 14.4497 23.1148 14.5149C22.9636 14.5784 22.8074 14.8064 22.6513 15.0327C22.4609 15.3096 22.2706 15.5848 21.9827 15.7786C21.6948 15.974 21.3646 16.0473 21.0361 16.1206C20.7742 16.1792 20.5107 16.2379 20.3968 16.3518C20.283 16.4658 20.2244 16.7297 20.1659 16.9919C20.0927 17.3208 20.0195 17.6498 19.8243 17.9396C19.6291 18.2279 19.3542 18.4184 19.0793 18.609C18.8532 18.7653 18.6255 18.9233 18.5621 19.0731C18.497 19.2262 18.5426 19.5014 18.5865 19.7782C18.6402 20.1121 18.6938 20.4459 18.6223 20.7961C18.5523 21.138 18.3767 21.423 18.1994 21.7096C18.0465 21.9588 17.8903 22.2112 17.8903 22.4083C17.8903 22.6053 18.0449 22.8577 18.1994 23.1069C18.3767 23.3935 18.5523 23.6785 18.6223 24.0205C18.6938 24.3706 18.6402 24.7061 18.5865 25.0383C18.5426 25.3152 18.497 25.5904 18.5621 25.7435C18.6255 25.8949 18.8532 26.0512 19.0793 26.2076C19.3558 26.3981 19.6307 26.5887 19.8243 26.8769C20.0195 27.1652 20.0927 27.4958 20.1659 27.8247C20.2244 28.0869 20.283 28.3507 20.3968 28.4647C20.4668 28.5347 20.5937 28.5852 20.7417 28.6259C20.7596 28.6292 20.7775 28.6341 20.7954 28.6406C20.8718 28.6601 20.9531 28.678 21.0345 28.696C21.363 28.7692 21.6916 28.8425 21.9811 29.0379C22.269 29.2334 22.4593 29.5086 22.6496 29.7838C22.8058 30.0102 22.9635 30.2381 23.1132 30.3017C23.2661 30.3668 23.5409 30.3212 23.8175 30.2773C24.1509 30.2235 24.4844 30.1698 24.8341 30.2414C25.1756 30.3115 25.4603 30.4873 25.7465 30.6648C25.7905 30.6925 25.8344 30.7202 25.8783 30.7463C25.8946 30.7544 25.9108 30.7642 25.9255 30.7739C26.1125 30.8847 26.2947 30.9742 26.4427 30.9742C26.6395 30.9742 26.8916 30.8195 27.1405 30.6648C27.2186 30.616 27.2967 30.5687 27.3764 30.5215ZM29.6909 19.1577C28.8598 18.3256 27.7114 17.8109 26.4444 17.8109C25.1756 17.8109 24.0289 18.3256 23.1978 19.1577C22.3666 19.9899 21.8526 21.1396 21.8526 22.4082C21.8526 23.6785 22.3666 24.8266 23.1978 25.6587C24.0289 26.4909 25.1773 27.0055 26.4444 27.0055C27.7131 27.0055 28.8598 26.4909 29.6909 25.6587C30.5221 24.8266 31.0361 23.6769 31.0361 22.4082C31.0361 21.138 30.5221 19.9899 29.6909 19.1577ZM26.4444 16.785C24.8926 16.785 23.4889 17.4152 22.4723 18.4314C21.4557 19.4492 20.8279 20.8546 20.8279 22.4082C20.8279 23.9602 21.4574 25.3673 22.4723 26.3851C23.4889 27.4029 24.8926 28.0315 26.4444 28.0315C27.9945 28.0315 29.3998 27.4012 30.4164 26.3851C31.433 25.3673 32.0608 23.9618 32.0608 22.4082C32.0608 20.8546 31.4314 19.4492 30.4164 18.4314C29.3998 17.4136 27.9961 16.785 26.4444 16.785Z" fill="url(#paint0_linear_599_90)"/>
<defs>
<linearGradient id="paint0_linear_599_90" x1="17.5" y1="0.342857" x2="17.5" y2="36" gradientUnits="userSpaceOnUse">
<stop stop-color="#1D1D1D"/>
<stop offset="0.5" stop-color="#5A6EFB"/>
<stop offset="0.682692" stop-color="#6D7EF8"/>
<stop offset="0.841346" stop-color="#94A0F1"/>
<stop offset="1" stop-color="#ACAEE0"/>
</linearGradient>
</defs>
</svg>
