<svg width="41" height="36" viewBox="0 0 41 36" fill="none" xmlns="http://www.w3.org/2000/svg">
<path d="M13.126 9.1515L12.4159 14.2746H28.4243L27.6299 9.05615L13.126 9.1515Z" fill="url(#paint0_linear_599_233)"/>
<path d="M27.9352 8.13752L38.357 4.0353L27.9228 0.0302544C27.8706 0.0100848 27.8147 0 27.7587 0H13.0889C13.0325 0 12.977 0.0105432 12.9247 0.0302544L2.49329 4.03392L12.8152 8.23654L27.9352 8.13752Z" fill="url(#paint1_linear_599_233)"/>
<path d="M29.3246 14.0962L40.8236 9.56908L38.9529 4.78613L28.532 8.8879L29.3246 14.0962Z" fill="url(#paint2_linear_599_233)"/>
<path d="M12.5708 15.1914L20.4237 34.4965L28.2767 15.1914H12.5708Z" fill="url(#paint3_linear_599_233)"/>
<path d="M12.2233 8.98567L1.89639 4.78076L0.0238037 9.56921L11.5151 14.0932L12.2233 8.98567Z" fill="url(#paint4_linear_599_233)"/>
<path d="M29.3087 15.0882C29.3087 15.0882 20.8039 35.9711 20.7805 36C20.7814 35.999 40.8477 10.5459 40.8477 10.5459L29.3087 15.0882Z" fill="url(#paint5_linear_599_233)"/>
<path d="M0 10.5444C0 10.5444 20.0662 35.9976 20.0671 35.9985C20.0442 35.9696 11.539 15.0867 11.539 15.0867L0 10.5444Z" fill="url(#paint6_linear_599_233)"/>
<defs>
<linearGradient id="paint0_linear_599_233" x1="20.4201" y1="9.10585" x2="20.4201" y2="14.2746" gradientUnits="userSpaceOnUse">
<stop stop-color="#1D1D1D"/>
<stop offset="0.5" stop-color="#5A6EFB"/>
<stop offset="0.682692" stop-color="#6D7EF8"/>
<stop offset="0.841346" stop-color="#94A0F1"/>
<stop offset="1" stop-color="#ACAEE0"/>
</linearGradient>
<linearGradient id="paint1_linear_599_233" x1="20.4252" y1="0.0784432" x2="20.4252" y2="8.23653" gradientUnits="userSpaceOnUse">
<stop stop-color="#1D1D1D"/>
<stop offset="0.5" stop-color="#5A6EFB"/>
<stop offset="0.682692" stop-color="#6D7EF8"/>
<stop offset="0.841346" stop-color="#94A0F1"/>
<stop offset="1" stop-color="#ACAEE0"/>
</linearGradient>
<linearGradient id="paint2_linear_599_233" x1="34.6778" y1="4.8748" x2="34.6778" y2="14.0962" gradientUnits="userSpaceOnUse">
<stop stop-color="#1D1D1D"/>
<stop offset="0.5" stop-color="#5A6EFB"/>
<stop offset="0.682692" stop-color="#6D7EF8"/>
<stop offset="0.841346" stop-color="#94A0F1"/>
<stop offset="1" stop-color="#ACAEE0"/>
</linearGradient>
<linearGradient id="paint3_linear_599_233" x1="20.4237" y1="15.3753" x2="20.4237" y2="34.4965" gradientUnits="userSpaceOnUse">
<stop stop-color="#1D1D1D"/>
<stop offset="0.5" stop-color="#5A6EFB"/>
<stop offset="0.682692" stop-color="#6D7EF8"/>
<stop offset="0.841346" stop-color="#94A0F1"/>
<stop offset="1" stop-color="#ACAEE0"/>
</linearGradient>
<linearGradient id="paint4_linear_599_233" x1="6.12357" y1="4.86945" x2="6.12357" y2="14.0932" gradientUnits="userSpaceOnUse">
<stop stop-color="#1D1D1D"/>
<stop offset="0.5" stop-color="#5A6EFB"/>
<stop offset="0.682692" stop-color="#6D7EF8"/>
<stop offset="0.841346" stop-color="#94A0F1"/>
<stop offset="1" stop-color="#ACAEE0"/>
</linearGradient>
<linearGradient id="paint5_linear_599_233" x1="30.8141" y1="10.7883" x2="30.8141" y2="35.9999" gradientUnits="userSpaceOnUse">
<stop stop-color="#1D1D1D"/>
<stop offset="0.5" stop-color="#5A6EFB"/>
<stop offset="0.682692" stop-color="#6D7EF8"/>
<stop offset="0.841346" stop-color="#94A0F1"/>
<stop offset="1" stop-color="#ACAEE0"/>
</linearGradient>
<linearGradient id="paint6_linear_599_233" x1="10.0336" y1="10.7869" x2="10.0336" y2="35.9985" gradientUnits="userSpaceOnUse">
<stop stop-color="#1D1D1D"/>
<stop offset="0.5" stop-color="#5A6EFB"/>
<stop offset="0.682692" stop-color="#6D7EF8"/>
<stop offset="0.841346" stop-color="#94A0F1"/>
<stop offset="1" stop-color="#ACAEE0"/>
</linearGradient>
</defs>
</svg>
