<svg width="33" height="40" viewBox="0 0 33 40" fill="none" xmlns="http://www.w3.org/2000/svg">
<path fill-rule="evenodd" clip-rule="evenodd" d="M24.414 25.5597L25.7862 11.6936L1.81283 11.6918L4.02648 34.0622C4.13404 35.1484 4.95811 36.0175 6.04757 36.0175H18.9198C18.5746 35.1345 18.3855 34.1734 18.3855 33.1688C18.3855 29.4633 20.9601 26.3611 24.414 25.5597ZM11.7256 28.0191H9.52931C8.97936 28.0191 8.49363 27.734 8.21952 27.2578C7.94368 26.7781 7.94368 26.2202 8.21952 25.7422L9.767 23.0604L9.35064 23.1717C9.09042 23.2412 8.82325 23.0865 8.7521 22.8258C8.68271 22.5651 8.83711 22.2974 9.09733 22.2262L10.65 21.809C10.9102 21.7395 11.1774 21.8942 11.2485 22.1549L11.6649 23.7105C11.7343 23.9712 11.5799 24.2388 11.3197 24.3101C11.0594 24.3796 10.7923 24.2249 10.7211 23.9642L10.6101 23.5471L9.06436 26.2306C8.96548 26.401 8.96548 26.5991 9.06436 26.7712C9.16672 26.9484 9.32806 27.0388 9.53104 27.0388H11.7273C11.998 27.0388 12.2166 27.2578 12.2166 27.529C12.2148 27.7984 11.9962 28.0191 11.7256 28.0191ZM11.5677 20.9053C11.3335 20.7698 11.2537 20.4708 11.389 20.2362L12.4872 18.3313C12.763 17.8533 13.2506 17.5753 13.8005 17.5753C14.3521 17.5753 14.8344 17.8533 15.1103 18.333L16.656 21.0166L16.767 20.5994C16.8364 20.3387 17.1053 20.184 17.3656 20.2536C17.6258 20.3231 17.7802 20.5925 17.7108 20.8532L17.2944 22.4088C17.225 22.6695 16.9561 22.8242 16.6959 22.7546L15.1432 22.3375C14.883 22.268 14.7286 21.9986 14.798 21.7379C14.8674 21.4771 15.1363 21.3225 15.3965 21.392L15.8129 21.5032L14.2654 18.8197C14.1665 18.6494 13.9965 18.5503 13.7987 18.5503C13.5958 18.5503 13.4361 18.6459 13.3355 18.8214L12.2373 20.7263C12.1003 20.9609 11.8019 21.0409 11.5677 20.9053ZM15.2837 28.3234C15.4746 28.5146 15.4746 28.824 15.2837 29.0152C15.0929 29.2063 14.7841 29.2063 14.5933 29.0152L13.457 27.8767C13.2661 27.6855 13.2661 27.3762 13.457 27.185L14.5933 26.0465C14.7841 25.8554 15.0929 25.8554 15.2837 26.0465C15.4746 26.2377 15.4746 26.5471 15.2837 26.7383L14.9784 27.0442L18.0716 27.0424C18.2694 27.0424 18.4394 26.9434 18.5383 26.7731C18.6406 26.5958 18.6372 26.4098 18.5365 26.2343L17.4384 24.3294C17.3031 24.0948 17.3829 23.7958 17.6171 23.6602C17.8513 23.5247 18.1496 23.6046 18.285 23.8393L19.3831 25.7441C19.659 26.2221 19.6555 26.7852 19.3814 27.2615C19.1056 27.7394 18.6233 28.0193 18.0716 28.0193L14.9802 28.0175L15.2837 28.3234ZM26.5967 10.7135H1.00273C0.333088 10.7135 0 10.2077 0 9.70023C0 9.19447 0.334824 8.68697 1.00273 8.68697H26.5967C27.2664 8.68697 27.5995 9.19273 27.5995 9.70023C27.5995 10.206 27.2646 10.7135 26.5967 10.7135ZM10.0116 4.07052H8.14323V3.97493C8.14323 2.87997 8.58908 1.8858 9.30731 1.16624C10.0255 0.446677 11.0179 0 12.1108 0H15.4903C16.5832 0 17.5755 0.446677 18.2937 1.16624C19.012 1.8858 19.4578 2.87997 19.4578 3.97493V4.07052H17.5894V3.97493C17.5894 3.39615 17.3535 2.87125 16.9736 2.48891C16.5936 2.10828 16.068 1.87191 15.4903 1.87191H12.1108C11.5331 1.87191 11.0092 2.10829 10.6276 2.48891C10.2476 2.86955 10.0117 3.39619 10.0117 3.97493L10.0116 4.07052ZM26.1819 26.3385C22.4156 26.3385 19.3638 29.3975 19.3638 33.1693C19.3638 36.9426 22.4171 40 26.1819 40C29.9482 40 33 36.941 33 33.1693C33 29.3959 29.9467 26.3385 26.1819 26.3385ZM28.1249 35.5537C27.6357 36.2124 26.9487 36.6208 26.1802 36.6208C25.4116 36.6208 24.7247 36.2124 24.2354 35.5537C23.7775 34.9367 23.4947 34.092 23.4947 33.1691C23.4947 32.2444 23.7774 31.4015 24.2354 30.7845C24.7247 30.1257 25.4116 29.7173 26.1802 29.7173C26.9487 29.7173 27.6357 30.1258 28.1249 30.7845C28.5829 31.4015 28.8657 32.2462 28.8657 33.1691C28.8657 34.0937 28.5829 34.9367 28.1249 35.5537ZM27.3425 31.365C27.6791 31.8203 27.889 32.4565 27.889 33.1691C27.889 33.88 27.6808 34.5178 27.3425 34.9732C27.0355 35.3868 26.6243 35.6423 26.1802 35.6423C25.7361 35.6423 25.3249 35.3868 25.0178 34.9732C24.6813 34.5178 24.4714 33.8817 24.4714 33.1691C24.4714 32.4582 24.6795 31.8204 25.0178 31.365C25.3249 30.9513 25.7361 30.6958 26.1802 30.6958C26.6243 30.6976 27.0372 30.9531 27.3425 31.365ZM25.8818 7.70654H1.7174C1.90649 6.2118 3.18507 5.04904 4.72731 5.04904H22.8717C24.414 5.04904 25.6927 6.2118 25.8818 7.70654Z" fill="url(#paint0_linear_599_44)"/>
<defs>
<linearGradient id="paint0_linear_599_44" x1="16.5" y1="0.380952" x2="16.5" y2="40" gradientUnits="userSpaceOnUse">
<stop stop-color="#1D1D1D"/>
<stop offset="0.5" stop-color="#5A6EFB"/>
<stop offset="0.682692" stop-color="#6D7EF8"/>
<stop offset="0.841346" stop-color="#94A0F1"/>
<stop offset="1" stop-color="#ACAEE0"/>
</linearGradient>
</defs>
</svg>
