<svg width="23" height="23" viewBox="0 0 23 23" fill="none" xmlns="http://www.w3.org/2000/svg">
<path fill-rule="evenodd" clip-rule="evenodd" d="M1.61624 12.4566C0.985061 12.4566 0.473387 11.9449 0.473387 11.3137C0.473387 10.6825 0.985063 10.1709 1.61625 10.1708H21.0112C21.6424 10.1709 22.154 10.6825 22.154 11.3137C22.154 11.9449 21.6424 12.4566 21.0112 12.4566H1.61624Z" fill="#FFFAEB"/>
<path fill-rule="evenodd" clip-rule="evenodd" d="M19.3954 11.3137L12.9304 4.84868C12.4841 4.40237 12.4841 3.67875 12.9304 3.23244C13.3767 2.78612 14.1003 2.78612 14.5466 3.23244L21.8197 10.5055C22.266 10.9518 22.266 11.6755 21.8197 12.1218L14.5466 19.3949C14.1003 19.8412 13.3767 19.8412 12.9304 19.3949C12.4841 18.9486 12.4841 18.2249 12.9304 17.7786L19.3954 11.3137Z" fill="#FFFAEB"/>
</svg>
