<svg width="58" height="47" viewBox="0 0 58 47" fill="none" xmlns="http://www.w3.org/2000/svg">
<path d="M56.1924 0.00417153H47.5205C46.7341 0.00417153 46.0933 0.642416 46.0933 1.43501V10.1285C46.0933 10.9169 45.4524 11.5593 44.666 11.5593H35.99C35.2035 11.5593 34.5627 10.9211 34.5627 10.1285V1.43084C34.5627 0.642416 33.926 0 33.1354 0H1.42728C0.636659 0.00417153 0 0.642416 0 1.43084V33.2304C0 34.0189 0.636659 34.6613 1.42728 34.6613H10.0992C10.8856 34.6613 11.5264 35.2995 11.5264 36.0921V44.7856C11.5264 45.574 12.1631 46.2164 12.9537 46.2164H44.6743C45.4608 46.2164 46.1016 45.5782 46.1016 44.7856V12.986C46.1016 12.1976 46.7383 11.5551 47.5289 11.5551H56.2008C56.9872 11.5551 57.628 10.9169 57.628 10.1243V1.43084C57.628 0.642416 56.9914 0 56.2008 0L56.1924 0.00417153ZM21.6214 34.6613H12.9496C12.1631 34.6613 11.5223 34.0189 11.5223 33.2304V11.5551H33.1437C33.9302 11.5551 34.571 12.1976 34.571 12.986V34.6613H21.6214Z" fill="url(#paint0_linear_657_73397)"/>
<defs>
<linearGradient id="paint0_linear_657_73397" x1="28.814" y1="0.440156" x2="28.814" y2="46.2164" gradientUnits="userSpaceOnUse">
<stop stop-color="#1D1D1D"/>
<stop offset="0.305288" stop-color="#1B1C23"/>
<stop offset="0.754808" stop-color="#5A6EFB"/>
<stop offset="0.836538" stop-color="#6D7EF8"/>
<stop offset="0.918269" stop-color="#94A0F1"/>
<stop offset="1" stop-color="#ACAEE0"/>
</linearGradient>
</defs>
</svg>
