<svg width="38" height="30" viewBox="0 0 38 30" fill="none" xmlns="http://www.w3.org/2000/svg">
<path d="M36.3195 0.00268953H30.7145C30.2062 0.00268953 29.792 0.414189 29.792 0.9252V6.53019C29.792 7.03852 29.3778 7.45271 28.8695 7.45271H23.2618C22.7535 7.45271 22.3393 7.04121 22.3393 6.53019V0.922511C22.3393 0.414189 21.9278 0 21.4168 0H0.922511C0.411499 0.00268954 0 0.414189 0 0.922511V21.4248C0 21.9332 0.411499 22.3474 0.922511 22.3474H6.5275C7.03583 22.3474 7.45002 22.7589 7.45002 23.2699V28.8749C7.45002 29.3832 7.86151 29.7974 8.37253 29.7974H28.8749C29.3832 29.7974 29.7974 29.3859 29.7974 28.8749V8.37253C29.7974 7.8642 30.2089 7.45002 30.7199 7.45002H36.3249C36.8332 7.45002 37.2474 7.03852 37.2474 6.5275V0.922511C37.2474 0.414189 36.8359 0 36.3249 0L36.3195 0.00268953ZM13.9748 22.3474H8.36984C7.86151 22.3474 7.44733 21.9332 7.44733 21.4248V7.45002H21.4222C21.9305 7.45002 22.3447 7.8642 22.3447 8.37253V22.3474H13.9748Z" fill="white"/>
</svg>
