<svg width="663" height="663" viewBox="0 0 663 663" fill="none" xmlns="http://www.w3.org/2000/svg">
<path d="M397.338 413.742V513.42C397.338 522.472 404.69 529.804 413.722 529.804H645.866C654.918 529.804 662.25 537.136 662.25 546.188V645.866C662.25 654.918 654.918 662.25 645.866 662.25H413.722C404.69 662.25 397.338 654.918 397.338 645.866V546.188C397.338 537.136 390.006 529.804 380.954 529.804H148.83C139.778 529.804 132.446 537.136 132.446 546.188V645.866C132.446 654.918 125.114 662.25 116.062 662.25H16.3842C7.33194 662.25 0 654.918 0 645.866V546.188C0 537.136 7.33194 529.804 16.3842 529.804H116.062C125.114 529.804 132.446 522.472 132.446 513.42V413.742C132.446 404.69 139.778 397.358 148.83 397.358H248.508C257.56 397.358 264.892 390.026 264.892 380.974V148.83C264.892 139.798 257.56 132.446 248.508 132.446H16.3842C7.33194 132.446 0 125.114 0 116.062V16.3842C0 7.33194 7.33194 0 16.3842 0H248.508C257.56 0 264.892 7.33194 264.892 16.3842V116.062C264.892 125.114 272.224 132.446 281.276 132.446H513.42C522.452 132.446 529.804 125.114 529.804 116.062V16.3842C529.804 7.33194 537.136 0 546.188 0H645.866C654.918 0 662.25 7.33194 662.25 16.3842V116.062C662.25 125.114 654.918 132.446 645.866 132.446H546.188C537.136 132.446 529.804 139.798 529.804 148.83V248.528C529.804 257.56 522.452 264.912 513.42 264.912H413.722C404.69 264.912 397.338 272.244 397.338 281.297V413.742Z" fill="#DCE1F4" fill-opacity="0.5"/>
</svg>
