<svg width="164" height="50" viewBox="0 0 164 50" fill="none" xmlns="http://www.w3.org/2000/svg">
<path d="M56.1924 0.788412H47.5205C46.7341 0.788412 46.0933 1.42666 46.0933 2.21925V10.9127C46.0933 11.7011 45.4524 12.3436 44.666 12.3436H35.99C35.2035 12.3436 34.5627 11.7053 34.5627 10.9127V2.21508C34.5627 1.42666 33.926 0.784241 33.1354 0.784241H1.42728C0.636659 0.788412 0 1.42666 0 2.21508V34.0147C0 34.8031 0.636659 35.4455 1.42728 35.4455H10.0992C10.8856 35.4455 11.5264 36.0838 11.5264 36.8763V45.5698C11.5264 46.3582 12.1631 47.0007 12.9537 47.0007H44.6743C45.4608 47.0007 46.1016 46.3624 46.1016 45.5698V13.7702C46.1016 12.9818 46.7383 12.3394 47.5289 12.3394H56.2008C56.9872 12.3394 57.628 11.7011 57.628 10.9086V2.21508C57.628 1.42666 56.9914 0.784241 56.2008 0.784241L56.1924 0.788412ZM21.6214 35.4455H12.9496C12.1631 35.4455 11.5223 34.8031 11.5223 34.0147V12.3394H33.1437C33.9302 12.3394 34.571 12.9818 34.571 13.7702V35.4455H21.6214Z" fill="url(#paint0_linear_657_73396)"/>
<path d="M79.8486 44.4477H77.1022V30.6733H71.5845V28.2788H85.3621V30.6733H79.8444V44.4477H79.8486Z" fill="#2C2D35"/>
<path d="M90.6428 44.6896C89.382 44.6896 88.2834 44.4351 87.3472 43.922C86.4109 43.4089 85.691 42.6831 85.1875 41.7362C84.684 40.7934 84.4302 39.6879 84.4302 38.424C84.4302 37.16 84.6798 36.067 85.175 35.141C85.6702 34.2149 86.3818 33.5016 87.2972 32.9968C88.2127 32.492 89.2946 32.2376 90.5429 32.2376C91.7913 32.2376 92.765 32.4754 93.6305 32.9467C94.4919 33.4181 95.1618 34.0897 95.632 34.9616C96.1023 35.8334 96.3394 36.868 96.3394 38.0652V39.0622H87.0184C87.1266 40.1551 87.4886 40.9936 88.1128 41.586C88.737 42.1783 89.5734 42.4745 90.622 42.4745C91.3918 42.4745 92.0243 42.3285 92.5153 42.0365C93.0063 41.7445 93.3434 41.3065 93.5307 40.7183H96.277C95.9857 41.9698 95.3449 42.9459 94.3546 43.6426C93.3642 44.3392 92.1283 44.6896 90.6428 44.6896ZM87.0975 37.1642H93.747C93.6388 36.284 93.3101 35.6124 92.7525 35.1368C92.1949 34.6612 91.4584 34.4276 90.5429 34.4276C89.6275 34.4276 88.8701 34.6654 88.2709 35.1368C87.6717 35.6082 87.2806 36.284 87.0975 37.1642Z" fill="#2C2D35"/>
<path d="M98.4863 44.4477V27.6781H101.195V44.4477H98.4863Z" fill="#2C2D35"/>
<path d="M109.559 44.6896C108.298 44.6896 107.2 44.4351 106.264 43.922C105.327 43.4089 104.608 42.6831 104.104 41.7362C103.601 40.7934 103.347 39.6879 103.347 38.424C103.347 37.16 103.596 36.067 104.092 35.141C104.587 34.2149 105.298 33.5016 106.214 32.9968C107.129 32.492 108.211 32.2376 109.459 32.2376C110.708 32.2376 111.682 32.4754 112.547 32.9467C113.408 33.4181 114.078 34.0897 114.549 34.9616C115.019 35.8334 115.256 36.868 115.256 38.0652V39.0622H105.935C106.043 40.1551 106.405 40.9936 107.029 41.586C107.653 42.1783 108.49 42.4745 109.538 42.4745C110.308 42.4745 110.941 42.3285 111.432 42.0365C111.923 41.7445 112.26 41.3065 112.447 40.7183H115.194C114.902 41.9698 114.261 42.9459 113.271 43.6426C112.281 44.3392 111.045 44.6896 109.559 44.6896ZM106.014 37.1642H112.664C112.555 36.284 112.227 35.6124 111.669 35.1368C111.111 34.6612 110.375 34.4276 109.459 34.4276C108.544 34.4276 107.787 34.6654 107.187 35.1368C106.588 35.6082 106.197 36.284 106.014 37.1642Z" fill="#2C2D35"/>
<path d="M122.759 44.6896C121.535 44.6896 120.47 44.4351 119.554 43.922C118.639 43.4089 117.923 42.6873 117.416 41.757C116.904 40.8268 116.65 39.7296 116.65 38.4615C116.65 37.1934 116.904 36.1004 117.407 35.166C117.911 34.2357 118.622 33.5141 119.538 33.001C120.453 32.4879 121.531 32.2334 122.763 32.2334C124.277 32.2334 125.53 32.613 126.524 33.3722C127.519 34.1314 128.164 35.1952 128.455 36.5676H125.725C125.526 35.9169 125.176 35.4246 124.681 35.0909C124.182 34.7572 123.541 34.5903 122.759 34.5903C121.71 34.5903 120.878 34.9282 120.27 35.6082C119.658 36.2881 119.355 37.2392 119.355 38.4615C119.355 39.6838 119.658 40.639 120.27 41.3148C120.882 41.9948 121.71 42.3327 122.759 42.3327C124.402 42.3327 125.413 41.6068 125.784 40.1551H128.513C128.247 41.6068 127.619 42.7248 126.62 43.5091C125.626 44.2933 124.336 44.6854 122.759 44.6854V44.6896Z" fill="#2C2D35"/>
<path d="M135.604 44.6896C134.343 44.6896 133.244 44.4351 132.308 43.922C131.372 43.4089 130.648 42.6873 130.128 41.757C129.612 40.8268 129.35 39.7296 129.35 38.4615C129.35 37.1934 129.603 36.1004 130.115 35.166C130.627 34.2357 131.351 33.5141 132.296 33.001C133.236 32.4879 134.347 32.2334 135.62 32.2334C136.894 32.2334 138.017 32.4879 138.945 32.9926C139.873 33.4974 140.593 34.2191 141.097 35.1493C141.6 36.0796 141.854 37.185 141.854 38.4615C141.854 39.738 141.6 40.8268 141.097 41.7654C140.593 42.7039 139.873 43.4256 138.937 43.9304C138.001 44.4351 136.89 44.6896 135.604 44.6896ZM135.604 42.3327C136.732 42.3327 137.605 41.9864 138.221 41.294C138.837 40.6015 139.149 39.6587 139.149 38.4615C139.149 37.2643 138.841 36.284 138.221 35.6082C137.601 34.9324 136.732 34.5903 135.604 34.5903C134.476 34.5903 133.619 34.9324 132.995 35.6165C132.371 36.3006 132.059 37.2518 132.059 38.4615C132.059 39.6712 132.371 40.6057 132.995 41.294C133.619 41.9864 134.489 42.3327 135.604 42.3327Z" fill="#2C2D35"/>
<path d="M144.584 44.4477V35.2036H143.21V32.467H146.036V34.3651H146.951C147.322 33.6851 147.846 33.1637 148.516 32.7966C149.186 32.4295 150.001 32.2459 150.954 32.2459C151.907 32.2459 152.702 32.4253 153.372 32.7841C154.042 33.1428 154.583 33.6809 154.995 34.4026H155.053C155.927 32.9634 157.296 32.2459 159.156 32.2459C160.658 32.2459 161.836 32.684 162.701 33.5516C163.563 34.4235 163.995 35.6124 163.995 37.1141V44.4393H161.287V37.5938C161.287 35.6249 160.342 34.6404 158.461 34.6404C156.58 34.6404 155.632 35.6249 155.632 37.5938V44.4393H152.923V37.5938C152.923 35.6249 151.974 34.6404 150.076 34.6404C149.161 34.6404 148.466 34.8907 147.996 35.3871C147.526 35.8877 147.288 36.6219 147.288 37.5938V44.4393H144.579L144.584 44.4477Z" fill="#2C2D35"/>
<path d="M73.0532 22.0048V5.00583H75.9619V19.4894H84.9667V22.009H73.0532V22.0048Z" fill="#2C2D35"/>
<path d="M90.8507 22.2384C89.4109 22.2384 88.2791 21.8797 87.4468 21.1663C86.6146 20.453 86.2026 19.5144 86.2026 18.3547C86.2026 17.195 86.6229 16.1939 87.4593 15.5223C88.2957 14.8506 89.4983 14.5127 91.0587 14.5127H95.0368V13.9871C95.0368 12.306 94.0881 11.4675 92.1906 11.4675C90.5843 11.4675 89.6231 12.0474 89.3027 13.2112H86.4565C86.6937 11.9097 87.3137 10.9085 88.3082 10.2077C89.3069 9.5069 90.6093 9.15649 92.2114 9.15649C94.0132 9.15649 95.3863 9.57365 96.3351 10.4038C97.2838 11.2339 97.7582 12.4437 97.7582 14.0247V19.1265H99.1189V22.0006H96.1686V20.0067H95.2906C94.8579 20.7075 94.2711 21.2539 93.5305 21.6419C92.7898 22.034 91.8993 22.2301 90.8507 22.2301V22.2384ZM91.2709 20.0108C91.9825 20.0108 92.6233 19.869 93.1976 19.5895C93.7676 19.31 94.2212 18.9346 94.5458 18.4674C94.8745 18.0001 95.0368 17.4787 95.0368 16.903V16.5026H91.2044C89.6689 16.5026 88.9032 17.0782 88.9032 18.2254C88.9032 18.7844 89.1113 19.2224 89.5316 19.5353C89.9518 19.8481 90.5302 20.0067 91.2709 20.0067V20.0108Z" fill="#2C2D35"/>
<path d="M101.778 22.0048V12.2851H100.334V9.41095H103.309V11.4049H104.27C104.662 10.6916 105.211 10.141 105.914 9.75719C106.617 9.37341 107.475 9.18152 108.477 9.18152C109.48 9.18152 110.317 9.36924 111.02 9.74885C111.723 10.1285 112.293 10.6916 112.726 11.4508H112.788C113.708 9.94074 115.148 9.18569 117.104 9.18569C118.681 9.18569 119.921 9.64456 120.828 10.5623C121.735 11.48 122.188 12.7273 122.188 14.3083V22.0132H119.342V14.8131C119.342 12.744 118.352 11.7053 116.371 11.7053C114.39 11.7053 113.4 12.7398 113.4 14.8131V22.0132H110.554V14.8131C110.554 12.744 109.555 11.7053 107.558 11.7053C106.597 11.7053 105.864 11.9681 105.369 12.4937C104.874 13.0193 104.624 13.7911 104.624 14.8131V22.0132H101.778V22.0048Z" fill="#2C2D35"/>
<path d="M129.084 22.2384C127.644 22.2384 126.512 21.8797 125.68 21.1663C124.847 20.453 124.436 19.5144 124.436 18.3547C124.436 17.195 124.856 16.1939 125.692 15.5223C126.529 14.8506 127.731 14.5127 129.292 14.5127H133.27V13.9871C133.27 12.306 132.321 11.4675 130.423 11.4675C128.817 11.4675 127.856 12.0474 127.536 13.2112H124.689C124.927 11.9097 125.547 10.9085 126.541 10.2077C127.54 9.5069 128.842 9.15649 130.444 9.15649C132.246 9.15649 133.619 9.57365 134.568 10.4038C135.517 11.2339 135.991 12.4437 135.991 14.0247V19.1265H137.352V22.0006H134.402V20.0067H133.524C133.091 20.7075 132.504 21.2539 131.763 21.6419C131.023 22.034 130.132 22.2301 129.084 22.2301V22.2384ZM129.5 20.0108C130.211 20.0108 130.852 19.869 131.426 19.5895C131.996 19.31 132.45 18.9346 132.775 18.4674C133.103 18.0001 133.266 17.4787 133.266 16.903V16.5026H129.433C127.898 16.5026 127.132 17.0782 127.132 18.2254C127.132 18.7844 127.34 19.2224 127.76 19.5353C128.181 19.8481 128.759 20.0067 129.5 20.0067V20.0108Z" fill="#2C2D35"/>
<defs>
<linearGradient id="paint0_linear_657_73396" x1="4.15135e-08" y1="19.5" x2="58" y2="20" gradientUnits="userSpaceOnUse">
<stop stop-color="#0A0227"/>
<stop offset="0.389423" stop-color="#1F0280"/>
<stop offset="0.673077" stop-color="#495AEE"/>
<stop offset="1" stop-color="#92A9EC"/>
</linearGradient>
</defs>
</svg>
