<?xml version="1.0" encoding="UTF-8"?>
<svg id="Layer_1" data-name="Layer 1" xmlns="http://www.w3.org/2000/svg" xmlns:xlink="http://www.w3.org/1999/xlink" viewBox="0 0 545.51 214.31">
  <defs>
    <style>
      .cls-1 {
        fill: none;
      }

      .cls-2 {
        fill: url(#LTS_);
      }

      .cls-3 {
        fill: #010101;
      }
    </style>
    <linearGradient id="LTS_" data-name="LTS " x1="35.72" y1="107.15" x2="214.31" y2="107.15" gradientUnits="userSpaceOnUse">
      <stop offset="0" stop-color="#0a0227"/>
      <stop offset=".39" stop-color="#1f0280"/>
      <stop offset=".67" stop-color="#495aee"/>
      <stop offset="1" stop-color="#92a9ec"/>
    </linearGradient>
  </defs>
  <rect class="cls-1" width="545.51" height="214.31"/>
  <g>
    <path class="cls-2" d="M209.89,35.72h-26.88c-2.44,0-4.42,1.98-4.42,4.42v26.88c0,2.44-1.98,4.42-4.42,4.42h-26.89c-2.44,0-4.42-1.98-4.42-4.42v-26.88c0-2.44-1.98-4.42-4.42-4.42H40.14c-2.44,0-4.42,1.98-4.42,4.42v98.32c0,2.44,1.98,4.42,4.42,4.42h26.88c2.44,0,4.42,1.98,4.42,4.42v26.88c0,2.44,1.98,4.42,4.42,4.42h98.32c2.44,0,4.42-1.98,4.42-4.42v-98.32c0-2.44,1.98-4.42,4.42-4.42h26.88c2.44,0,4.42-1.98,4.42-4.42v-26.88c0-2.44-1.98-4.42-4.42-4.42ZM102.73,142.87h-26.88c-2.44,0-4.42-1.98-4.42-4.42v-67.02h67.02c2.44,0,4.42,1.98,4.42,4.42v67.02h-40.14Z"/>
    <g>
      <g>
        <g>
          <path class="cls-3" d="M268.74,148.42h-7.87v-39.36h-15.8v-6.84h39.47v6.84h-15.8v39.36Z"/>
          <path class="cls-3" d="M299.66,149.1c-3.61,0-6.76-.73-9.44-2.2-2.68-1.46-4.74-3.54-6.19-6.25-1.44-2.7-2.17-5.86-2.17-9.47s.71-6.74,2.14-9.38c1.43-2.64,3.45-4.69,6.08-6.13,2.62-1.44,5.72-2.17,9.3-2.17s6.37.68,8.84,2.03c2.47,1.35,4.38,3.27,5.73,5.76,1.35,2.49,2.02,5.45,2.02,8.87v2.85h-26.69c.3,3.12,1.35,5.52,3.14,7.21,1.79,1.69,4.18,2.54,7.19,2.54,2.21,0,4.01-.42,5.42-1.26,1.4-.84,2.38-2.09,2.91-3.76h7.87c-.84,3.57-2.67,6.36-5.51,8.36-2.83,2-6.38,2.99-10.64,2.99ZM289.51,127.6h19.05c-.3-2.51-1.26-4.44-2.85-5.79-1.6-1.35-3.71-2.02-6.33-2.02s-4.79.67-6.5,2.02c-1.71,1.35-2.83,3.28-3.36,5.79Z"/>
          <path class="cls-3" d="M322.13,148.42v-47.91h7.76v47.91h-7.76Z"/>
          <path class="cls-3" d="M353.85,149.1c-3.61,0-6.76-.73-9.44-2.2-2.68-1.46-4.74-3.54-6.19-6.25-1.44-2.7-2.17-5.86-2.17-9.47s.71-6.74,2.14-9.38,3.45-4.69,6.08-6.13c2.62-1.44,5.72-2.17,9.3-2.17s6.37.68,8.84,2.03c2.47,1.35,4.38,3.27,5.73,5.76,1.35,2.49,2.02,5.45,2.02,8.87v2.85h-26.69c.3,3.12,1.35,5.52,3.14,7.21,1.79,1.69,4.18,2.54,7.19,2.54,2.21,0,4.01-.42,5.42-1.26,1.4-.84,2.38-2.09,2.91-3.76h7.87c-.84,3.57-2.67,6.36-5.51,8.36-2.83,2-6.38,2.99-10.64,2.99ZM343.69,127.6h19.05c-.3-2.51-1.26-4.44-2.85-5.79-1.6-1.35-3.71-2.02-6.33-2.02s-4.79.67-6.5,2.02c-1.71,1.35-2.83,3.28-3.36,5.79Z"/>
          <path class="cls-3" d="M391.66,149.1c-3.5,0-6.56-.73-9.18-2.2-2.62-1.46-4.67-3.53-6.13-6.19-1.46-2.66-2.2-5.8-2.2-9.41s.72-6.75,2.17-9.41c1.44-2.66,3.48-4.72,6.1-6.19,2.62-1.46,5.7-2.2,9.24-2.2,4.34,0,7.93,1.08,10.78,3.25,2.85,2.17,4.7,5.21,5.53,9.13h-7.82c-.57-1.86-1.57-3.27-3-4.22-1.43-.95-3.26-1.43-5.5-1.43-3,0-5.38.97-7.13,2.91-1.75,1.94-2.62,4.66-2.62,8.16s.87,6.22,2.62,8.16c1.75,1.94,4.13,2.91,7.13,2.91,4.71,0,7.6-2.07,8.67-6.22h7.82c-.76,4.15-2.57,7.34-5.42,9.58-2.85,2.24-6.54,3.37-11.07,3.37Z"/>
          <path class="cls-3" d="M428.45,149.1c-3.61,0-6.76-.73-9.44-2.2-2.68-1.46-4.76-3.53-6.25-6.19-1.48-2.66-2.22-5.8-2.22-9.41s.73-6.75,2.2-9.41c1.46-2.66,3.55-4.72,6.25-6.19,2.7-1.46,5.88-2.2,9.53-2.2s6.86.72,9.52,2.17c2.66,1.45,4.72,3.5,6.16,6.16,1.44,2.66,2.17,5.82,2.17,9.47s-.72,6.76-2.17,9.44-3.51,4.74-6.19,6.19c-2.68,1.45-5.87,2.17-9.55,2.17ZM428.45,142.37c3.23,0,5.73-.99,7.5-2.97,1.77-1.98,2.65-4.68,2.65-8.1s-.88-6.22-2.65-8.16c-1.77-1.94-4.27-2.91-7.5-2.91s-5.69.98-7.47,2.94c-1.79,1.96-2.68,4.67-2.68,8.13s.89,6.12,2.68,8.1c1.79,1.98,4.28,2.97,7.47,2.97Z"/>
          <path class="cls-3" d="M454.18,148.42v-26.41h-3.94v-7.81h8.1v5.42h2.62c1.06-1.94,2.56-3.43,4.48-4.48,1.92-1.05,4.25-1.57,6.99-1.57s5.01.51,6.93,1.54c1.92,1.03,3.47,2.57,4.65,4.62h.17c2.51-4.11,6.43-6.16,11.75-6.16,4.3,0,7.68,1.25,10.15,3.74,2.47,2.49,3.71,5.88,3.71,10.18v20.93h-7.76v-19.56c0-5.63-2.7-8.44-8.1-8.44s-8.1,2.81-8.1,8.44v19.56h-7.76v-19.56c0-5.63-2.72-8.44-8.16-8.44-2.62,0-4.61.71-5.96,2.14-1.35,1.43-2.03,3.53-2.03,6.3v19.56h-7.76Z"/>
        </g>
        <g>
          <path class="cls-3" d="M249.28,84.29v-48.58h8.34v41.38h25.79v7.2h-34.12Z"/>
          <path class="cls-3" d="M300.26,84.95c-4.12,0-7.37-1.02-9.75-3.06-2.38-2.04-3.57-4.72-3.57-8.04s1.2-6.18,3.6-8.1c2.4-1.92,5.84-2.88,10.31-2.88h11.4v-1.5c0-4.8-2.72-7.2-8.16-7.2-4.6,0-7.36,1.66-8.28,4.98h-8.16c.68-3.72,2.45-6.58,5.31-8.58,2.86-2,6.59-3,11.18-3,5.16,0,9.09,1.19,11.81,3.57,2.72,2.38,4.08,5.83,4.08,10.35v14.57h3.9v8.22h-8.45v-5.7h-2.52c-1.24,2-2.92,3.56-5.04,4.68-2.12,1.12-4.68,1.68-7.67,1.68ZM301.46,78.6c2.04,0,3.88-.4,5.52-1.2,1.64-.8,2.93-1.87,3.87-3.21.94-1.34,1.41-2.83,1.41-4.47v-1.14h-10.97c-4.4,0-6.6,1.64-6.6,4.92,0,1.6.6,2.85,1.8,3.75,1.2.9,2.86,1.35,4.98,1.35Z"/>
          <path class="cls-3" d="M331.56,84.29v-27.77h-4.14v-8.22h8.52v5.7h2.76c1.12-2.04,2.69-3.61,4.71-4.71,2.02-1.1,4.47-1.65,7.35-1.65s5.27.54,7.29,1.62c2.02,1.08,3.65,2.7,4.89,4.86h.18c2.64-4.32,6.76-6.48,12.35-6.48,4.52,0,8.07,1.31,10.67,3.93,2.6,2.62,3.9,6.19,3.9,10.7v22.01h-8.16v-20.57c0-5.92-2.84-8.88-8.52-8.88s-8.52,2.96-8.52,8.88v20.57h-8.16v-20.57c0-5.92-2.86-8.88-8.58-8.88-2.76,0-4.85.75-6.27,2.25-1.42,1.5-2.13,3.71-2.13,6.63v20.57h-8.16Z"/>
          <path class="cls-3" d="M409.77,84.95c-4.12,0-7.37-1.02-9.75-3.06-2.38-2.04-3.57-4.72-3.57-8.04s1.2-6.18,3.6-8.1c2.4-1.92,5.84-2.88,10.31-2.88h11.4v-1.5c0-4.8-2.72-7.2-8.16-7.2-4.6,0-7.36,1.66-8.28,4.98h-8.16c.68-3.72,2.45-6.58,5.31-8.58,2.86-2,6.59-3,11.18-3,5.16,0,9.09,1.19,11.81,3.57,2.72,2.38,4.08,5.83,4.08,10.35v14.57h3.9v8.22h-8.45v-5.7h-2.52c-1.24,2-2.92,3.56-5.04,4.68-2.12,1.12-4.68,1.68-7.67,1.68ZM410.97,78.6c2.04,0,3.88-.4,5.52-1.2,1.64-.8,2.93-1.87,3.87-3.21.94-1.34,1.41-2.83,1.41-4.47v-1.14h-10.97c-4.4,0-6.6,1.64-6.6,4.92,0,1.6.6,2.85,1.8,3.75,1.2.9,2.86,1.35,4.98,1.35Z"/>
        </g>
      </g>
      <g>
        <path class="cls-3" d="M423.36,178.56c-1.72,0-3.09-.38-4.12-1.13s-1.58-1.8-1.68-3.14h2.34c.07.78.4,1.37,1.01,1.79.61.41,1.45.62,2.53.62.95,0,1.68-.16,2.18-.49s.75-.81.75-1.46c0-.5-.17-.9-.5-1.21-.34-.31-.85-.53-1.54-.67l-2.6-.52c-1.18-.24-2.07-.66-2.67-1.25-.6-.59-.9-1.35-.9-2.27,0-1.18.44-2.11,1.33-2.78.89-.68,2.09-1.01,3.62-1.01s2.78.35,3.74,1.06,1.5,1.7,1.63,2.96h-2.34c-.33-1.47-1.38-2.21-3.17-2.21-.81,0-1.45.15-1.92.46-.47.31-.7.75-.7,1.32,0,.9.64,1.48,1.93,1.74l2.71.55c1.21.24,2.11.66,2.7,1.27.58.61.88,1.41.88,2.4,0,1.26-.46,2.23-1.37,2.93-.91.7-2.19,1.05-3.84,1.05Z"/>
        <path class="cls-3" d="M440.05,178.36h-9.35v-13.15h9.35v1.95h-7.09v3.43h6.64v1.91h-6.64v3.91h7.09v1.95Z"/>
        <path class="cls-3" d="M442.18,178.36v-13.15h6.53c1.36,0,2.43.31,3.21.94.78.63,1.17,1.51,1.17,2.65,0,.65-.15,1.22-.44,1.7-.29.48-.73.85-1.3,1.11v.07c.55,0,.98.15,1.28.45.3.3.45.73.45,1.29v4.95h-2.24v-5.21h-6.41v5.21h-2.26ZM444.43,171.23h4.09c.75,0,1.32-.18,1.73-.54.41-.36.61-.86.61-1.51s-.2-1.17-.61-1.52c-.41-.35-.98-.53-1.73-.53h-4.09v4.09Z"/>
        <path class="cls-3" d="M459.24,178.36l-5.36-13.15h2.47l4.22,10.68h.08l4.2-10.68h2.4l-5.36,13.15h-2.66Z"/>
        <path class="cls-3" d="M468.83,178.36v-13.15h2.26v13.15h-2.26Z"/>
        <path class="cls-3" d="M479.9,178.59c-1.34,0-2.51-.28-3.51-.84s-1.77-1.35-2.31-2.37c-.55-1.02-.82-2.22-.82-3.58s.27-2.58.82-3.6c.55-1.01,1.32-1.8,2.31-2.35s2.17-.84,3.51-.84c1.04,0,1.96.18,2.78.53.81.35,1.48.86,2,1.51.52.66.86,1.45,1.02,2.38h-2.32c-.15-.78-.53-1.38-1.15-1.8s-1.39-.63-2.33-.63c-1.36,0-2.44.43-3.22,1.28-.78.85-1.18,2.03-1.18,3.52s.39,2.67,1.18,3.52c.79.85,1.86,1.28,3.22,1.28.94,0,1.72-.21,2.33-.64.61-.43.99-1.03,1.15-1.79h2.32c-.16.92-.5,1.71-1.02,2.37-.52.66-1.19,1.17-2,1.52-.81.35-1.74.53-2.78.53Z"/>
        <path class="cls-3" d="M496.69,178.36h-9.35v-13.15h9.35v1.95h-7.09v3.43h6.64v1.91h-6.64v3.91h7.09v1.95Z"/>
        <path class="cls-3" d="M503.77,178.56c-1.72,0-3.09-.38-4.12-1.13s-1.58-1.8-1.68-3.14h2.34c.07.78.4,1.37,1.01,1.79.61.41,1.45.62,2.53.62.95,0,1.68-.16,2.18-.49s.75-.81.75-1.46c0-.5-.17-.9-.5-1.21-.34-.31-.85-.53-1.54-.67l-2.6-.52c-1.18-.24-2.07-.66-2.67-1.25-.6-.59-.9-1.35-.9-2.27,0-1.18.44-2.11,1.33-2.78.89-.68,2.09-1.01,3.62-1.01s2.78.35,3.74,1.06,1.5,1.7,1.63,2.96h-2.34c-.33-1.47-1.38-2.21-3.17-2.21-.81,0-1.45.15-1.92.46-.47.31-.7.75-.7,1.32,0,.9.64,1.48,1.93,1.74l2.71.55c1.21.24,2.11.66,2.7,1.27.58.61.88,1.41.88,2.4,0,1.26-.46,2.23-1.37,2.93-.91.7-2.19,1.05-3.84,1.05Z"/>
      </g>
    </g>
  </g>
</svg>