<svg width="140" height="140" viewBox="0 0 140 140" fill="none" xmlns="http://www.w3.org/2000/svg">
<path d="M119.902 59.502H104.098C102.663 59.502 101.501 58.3362 101.501 56.9042V41.0971C101.501 39.6651 100.335 38.4993 98.9029 38.4993H83.0958C81.6638 38.4993 80.4981 37.3369 80.4981 35.9016V20.0977C80.4981 18.6625 79.3356 17.5 77.9003 17.5H62.0964C60.6612 17.5 59.4987 18.6625 59.4987 20.0977V35.9016C59.4987 37.3369 58.3362 38.4993 56.901 38.4993H41.0971C39.6618 38.4993 38.4993 39.6651 38.4993 41.0971V56.9042C38.4993 58.3362 37.3369 59.502 35.9016 59.502H20.0977C18.6625 59.502 17.5 60.6644 17.5 62.0997V77.9036C17.5 79.3388 18.6625 80.5013 20.0977 80.5013H35.9016C37.3369 80.5013 38.4993 81.6638 38.4993 83.099V98.9029C38.4993 100.338 39.6618 101.501 41.0971 101.501H56.901C58.3362 101.501 59.4987 102.663 59.4987 104.098V119.902C59.4987 121.338 60.6612 122.5 62.0964 122.5H77.9003C79.3356 122.5 80.4981 121.338 80.4981 119.902V104.098C80.4981 102.663 81.6638 101.501 83.0958 101.501H98.9029C100.335 101.501 101.501 100.338 101.501 98.9029V83.099C101.501 81.6638 102.663 80.5013 104.098 80.5013H119.902C121.338 80.5013 122.5 79.3388 122.5 77.9036V62.0997C122.5 60.6644 121.338 59.502 119.902 59.502ZM98.9029 80.5013H83.0958C81.6638 80.5013 80.4981 81.6638 80.4981 83.099V98.9029C80.4981 100.338 79.3356 101.501 77.9003 101.501H62.0964C60.6612 101.501 59.4987 100.338 59.4987 98.9029V83.099C59.4987 81.6638 58.3362 80.5013 56.901 80.5013H41.0971C39.6618 80.5013 38.4993 79.3388 38.4993 77.9036V62.0997C38.4993 60.6644 39.6618 59.502 41.0971 59.502H56.901C58.3362 59.502 59.4987 58.3362 59.4987 56.9042V41.0971C59.4987 39.6651 60.6612 38.4993 62.0964 38.4993H77.9003C79.3356 38.4993 80.4981 39.6651 80.4981 41.0971V56.9042C80.4981 58.3362 81.6638 59.502 83.0958 59.502H98.9029C100.335 59.502 101.501 60.6644 101.501 62.0997V77.9036C101.501 79.3388 100.335 80.5013 98.9029 80.5013Z" fill="url(#paint0_linear_831_2052)"/>
<defs>
<linearGradient id="paint0_linear_831_2052" x1="70" y1="18.5" x2="70" y2="122.5" gradientUnits="userSpaceOnUse">
<stop stop-color="#1D1D1D"/>
<stop offset="0.5" stop-color="#5A6EFB"/>
<stop offset="0.682692" stop-color="#6D7EF8"/>
<stop offset="0.841346" stop-color="#94A0F1"/>
<stop offset="1" stop-color="#ACAEE0"/>
</linearGradient>
</defs>
</svg>
