<svg width="140" height="140" viewBox="0 0 140 140" fill="none" xmlns="http://www.w3.org/2000/svg">
<path d="M104.598 60.002H120.402C121.837 60.002 123 58.8362 123 57.4042V41.5971C123 40.1651 121.837 38.9994 120.402 38.9994H104.598C103.162 38.9994 102 37.8369 102 36.4016V20.5977C102 19.1625 100.837 18 99.4022 18H83.5978C82.1625 18 81 19.1625 81 20.5977V36.4016C81 37.8369 79.8375 38.9994 78.4022 38.9994H62.5978C61.1625 38.9994 60 37.8369 60 36.4016V20.5977C60 19.1625 58.8375 18 57.4022 18H41.5978C40.1625 18 39 19.1625 39 20.5977V36.4016C39 37.8369 37.8375 38.9994 36.4022 38.9994H20.5978C19.1625 38.9994 18 40.1651 18 41.5971V57.4042C18 58.8362 19.1625 60.002 20.5978 60.002H36.4022C37.8375 60.002 39 61.1644 39 62.5997V78.4036C39 79.8388 37.8375 81.0013 36.4022 81.0013H20.5978C19.1625 81.0013 18 82.1638 18 83.599V99.4029C18 100.838 19.1625 102.001 20.5978 102.001H36.4022C37.8375 102.001 39 103.163 39 104.598V120.402C39 121.838 40.1625 123 41.5978 123H57.4022C58.8375 123 60 121.838 60 120.402V104.598C60 103.163 61.1625 102.001 62.5978 102.001H78.4022C79.8375 102.001 81 103.163 81 104.598V120.402C81 121.838 82.1625 123 83.5978 123H99.4022C100.837 123 102 121.838 102 120.402V104.598C102 103.163 103.162 102.001 104.598 102.001H120.402C121.837 102.001 123 100.838 123 99.4029V83.599C123 82.1638 121.837 81.0013 120.402 81.0013H104.598C103.162 81.0013 102 79.8388 102 78.4036V62.5997C102 61.1644 103.162 60.002 104.598 60.002ZM39 41.5971C39 40.1651 40.1625 38.9994 41.5978 38.9994H57.4022C58.8375 38.9994 60 40.1651 60 41.5971V57.4042C60 58.8362 58.8375 60.002 57.4022 60.002H41.5978C40.1625 60.002 39 58.8362 39 57.4042V41.5971ZM60 99.4029C60 100.838 58.8375 102.001 57.4022 102.001H41.5978C40.1625 102.001 39 100.838 39 99.4029V83.599C39 82.1638 40.1625 81.0013 41.5978 81.0013H57.4022C58.8375 81.0013 60 82.1638 60 83.599V99.4029ZM78.4022 81.0013H62.5978C61.1625 81.0013 60 79.8388 60 78.4036V62.5997C60 61.1644 61.1625 60.002 62.5978 60.002H78.4022C79.8375 60.002 81 61.1644 81 62.5997V78.4036C81 79.8388 79.8375 81.0013 78.4022 81.0013ZM102 99.4029C102 100.838 100.837 102.001 99.4022 102.001H83.5978C82.1625 102.001 81 100.838 81 99.4029V83.599C81 82.1638 82.1625 81.0013 83.5978 81.0013H99.4022C100.837 81.0013 102 82.1638 102 83.599V99.4029ZM99.4022 60.002H83.5978C82.1625 60.002 81 58.8362 81 57.4042V41.5971C81 40.1651 82.1625 38.9994 83.5978 38.9994H99.4022C100.837 38.9994 102 40.1651 102 41.5971V57.4042C102 58.8362 100.837 60.002 99.4022 60.002Z" fill="url(#paint0_linear_831_2062)"/>
<defs>
<linearGradient id="paint0_linear_831_2062" x1="70.5" y1="19" x2="70.5" y2="123" gradientUnits="userSpaceOnUse">
<stop stop-color="#1D1D1D"/>
<stop offset="0.5" stop-color="#5A6EFB"/>
<stop offset="0.682692" stop-color="#6D7EF8"/>
<stop offset="0.841346" stop-color="#94A0F1"/>
<stop offset="1" stop-color="#ACAEE0"/>
</linearGradient>
</defs>
</svg>
