<svg width="140" height="140" viewBox="0 0 140 140" fill="none" xmlns="http://www.w3.org/2000/svg">
<path d="M80.9981 83.599V99.4029C80.9981 100.838 82.1638 102.001 83.5958 102.001H120.402C121.838 102.001 123 103.163 123 104.598V120.402C123 121.838 121.838 123 120.402 123H83.5958C82.1638 123 80.9981 121.838 80.9981 120.402V104.598C80.9981 103.163 79.8356 102.001 78.4003 102.001H41.5971C40.1618 102.001 38.9994 103.163 38.9994 104.598V120.402C38.9994 121.838 37.8369 123 36.4016 123H20.5977C19.1625 123 18 121.838 18 120.402V104.598C18 103.163 19.1625 102.001 20.5977 102.001H36.4016C37.8369 102.001 38.9994 100.838 38.9994 99.4029V83.599C38.9994 82.1638 40.1618 81.0013 41.5971 81.0013H57.401C58.8363 81.0013 59.9987 79.8388 59.9987 78.4036V41.5971C59.9987 40.1651 58.8363 38.9993 57.401 38.9993H20.5977C19.1625 38.9993 18 37.8369 18 36.4016V20.5977C18 19.1625 19.1625 18 20.5977 18H57.401C58.8363 18 59.9987 19.1625 59.9987 20.5977V36.4016C59.9987 37.8369 61.1612 38.9993 62.5965 38.9993H99.4029C100.835 38.9993 102.001 37.8369 102.001 36.4016V20.5977C102.001 19.1625 103.163 18 104.598 18H120.402C121.838 18 123 19.1625 123 20.5977V36.4016C123 37.8369 121.838 38.9993 120.402 38.9993H104.598C103.163 38.9993 102.001 40.1651 102.001 41.5971V57.4042C102.001 58.8362 100.835 60.002 99.4029 60.002H83.5958C82.1638 60.002 80.9981 61.1644 80.9981 62.5997V83.599Z" fill="url(#paint0_linear_831_2069)"/>
<defs>
<linearGradient id="paint0_linear_831_2069" x1="70.5" y1="19" x2="70.5" y2="123" gradientUnits="userSpaceOnUse">
<stop stop-color="#1D1D1D"/>
<stop offset="0.5" stop-color="#5A6EFB"/>
<stop offset="0.682692" stop-color="#6D7EF8"/>
<stop offset="0.841346" stop-color="#94A0F1"/>
<stop offset="1" stop-color="#ACAEE0"/>
</linearGradient>
</defs>
</svg>
