<svg width="83" height="104" viewBox="0 0 83 104" fill="none" xmlns="http://www.w3.org/2000/svg">
<path d="M49.3077 45.9965C50.922 44.4364 52.032 42.4284 52.4944 40.2316C52.9568 38.0347 52.7505 35.7497 51.9021 33.6712C51.0537 31.5927 49.602 29.816 47.7344 28.5703C45.8667 27.3246 43.6687 26.6669 41.4237 26.6821C39.1788 26.6974 36.9899 27.3848 35.1393 28.6557C33.2887 29.9266 31.8612 31.7228 31.0411 33.8127C30.2209 35.9025 30.0456 38.1901 30.5378 40.3805C31.03 42.5708 32.167 44.5636 33.8024 46.1016C33.9528 46.2301 34.0756 46.3878 34.1632 46.5651C34.2508 46.7424 34.3015 46.9357 34.3122 47.1332C34.3228 47.3308 34.2932 47.5284 34.2252 47.7141C34.1571 47.8999 34.052 48.0698 33.9163 48.2137C33.7805 48.3576 33.617 48.4724 33.4355 48.5511C33.254 48.6299 33.0585 48.6709 32.8607 48.6717C32.6628 48.6726 32.4669 48.6332 32.2848 48.556C32.1027 48.4789 31.9381 48.3655 31.8012 48.2227C30.0921 46.615 28.8096 44.6077 28.0688 42.3813C27.3281 40.1549 27.1524 37.7793 27.5576 35.4682C27.9628 33.1571 28.9362 30.9829 30.3901 29.1413C31.8441 27.2997 33.733 25.8484 35.887 24.9179C38.041 23.9875 40.3925 23.6071 42.7301 23.811C45.0676 24.0148 47.3177 24.7966 49.2781 26.0859C51.2386 27.3751 52.8477 29.1315 53.9609 31.197C55.0741 33.2625 55.6564 35.5724 55.6553 37.9188C55.6618 39.819 55.2825 41.7007 54.5403 43.45C53.7981 45.1993 52.7085 46.7797 51.3375 48.0955C51.2005 48.2328 51.0376 48.3415 50.8581 48.4152C50.6787 48.4888 50.4864 48.526 50.2924 48.5244C50.0984 48.5229 49.9067 48.4828 49.7285 48.4063C49.5502 48.3299 49.3889 48.2187 49.2541 48.0792C49.1193 47.9398 49.0136 47.7748 48.9433 47.5941C48.873 47.4133 48.8393 47.2203 48.8444 47.0264C48.8495 46.8325 48.8931 46.6416 48.9729 46.4647C49.0526 46.2879 49.1658 46.1287 49.3077 45.9965ZM53.3387 55.014C56.988 52.4867 59.7328 48.858 61.1715 44.6586C62.6102 40.4593 62.6674 35.9098 61.3346 31.6756C60.0019 27.4415 57.3491 23.7449 53.7645 21.1268C50.1799 18.5086 45.8515 17.1063 41.4126 17.1249C36.9736 17.1435 32.6572 18.5821 29.0946 21.2302C25.5321 23.8783 22.9104 27.597 21.6132 31.8422C20.316 36.0874 20.4113 40.6363 21.8852 44.8234C23.3591 49.0105 26.1342 52.6161 29.8045 55.1127C30.1246 55.3306 30.5181 55.4125 30.8985 55.3403C31.2789 55.268 31.615 55.0477 31.833 54.7276C32.0509 54.4076 32.1328 54.0141 32.0606 53.6337C31.9883 53.2533 31.768 52.9171 31.4479 52.6992C28.2926 50.5533 25.9069 47.454 24.6397 43.8547C23.3725 40.2554 23.2905 36.345 24.4056 32.6957C25.5206 29.0464 27.7743 25.8497 30.8368 23.5733C33.8993 21.297 37.6099 20.0604 41.4257 20.0446C45.2415 20.0287 48.9623 21.2345 52.0436 23.4853C55.1249 25.7362 57.405 28.9141 58.5503 32.554C59.6956 36.1939 59.646 40.1048 58.4087 43.7146C57.1715 47.3243 54.8115 50.4433 51.6741 52.6153C51.5117 52.7225 51.3723 52.8611 51.2643 53.0229C51.1562 53.1847 51.0815 53.3665 51.0447 53.5576C51.0079 53.7487 51.0097 53.9452 51.0499 54.1356C51.0902 54.326 51.1681 54.5064 51.279 54.6663C51.39 54.8261 51.5318 54.9622 51.6961 55.0664C51.8605 55.1707 52.044 55.241 52.2359 55.2733C52.4278 55.3057 52.6242 55.2993 52.8136 55.2546C53.003 55.2099 53.1815 55.1287 53.3387 55.014ZM41.5002 11.0664C35.5987 11.0656 29.8613 13.009 25.1751 16.5961C20.4889 20.1832 17.1149 25.2142 15.5748 30.9112C14.0347 36.6082 14.4143 42.6539 16.6548 48.1135C18.8954 53.5732 22.8722 58.1426 27.9702 61.1154C28.3046 61.3111 28.703 61.3659 29.0778 61.2678C29.4525 61.1698 29.773 60.9269 29.9687 60.5925C30.1644 60.2582 30.2192 59.8598 30.1211 59.485C30.0231 59.1102 29.7801 58.7897 29.4458 58.5941C24.908 55.948 21.3669 51.8825 19.3686 47.0246C17.3703 42.1666 17.0258 36.7862 18.3883 31.7131C19.7508 26.64 22.7445 22.1561 26.9078 18.953C31.071 15.7499 36.1725 14.0055 41.4254 13.9889C46.6782 13.9723 51.7906 15.6844 55.974 18.8612C60.1574 22.038 63.1794 26.5029 64.5739 31.5673C65.9684 36.6317 65.6579 42.0142 63.6903 46.8846C61.7227 51.7551 58.2074 55.8429 53.6864 58.5175C53.3533 58.7149 53.1122 59.0365 53.0162 59.4117C52.9202 59.7868 52.9772 60.1847 53.1746 60.5178C53.372 60.8509 53.6936 61.092 54.0687 61.188C54.4438 61.284 54.8417 61.227 55.1749 61.0296C60.2415 58.0322 64.1828 53.4528 66.3921 47.9962C68.6014 42.5396 68.9563 36.5082 67.4022 30.8301C65.8482 25.152 62.4712 20.142 57.7911 16.571C53.111 13 47.3871 11.0659 41.5002 11.0664ZM60.3744 89.9441C60.4662 90.2306 60.4672 90.5386 60.3773 90.8258C60.2874 91.1129 60.1109 91.3653 59.872 91.5483C59.6332 91.7313 59.3436 91.8361 59.0429 91.8482C58.7423 91.8603 58.4452 91.7793 58.1924 91.6161L41.5002 80.7744L24.8079 91.6161C24.5551 91.7803 24.2577 91.8622 23.9564 91.8506C23.6552 91.8389 23.3649 91.7343 23.1255 91.5511C22.8861 91.3679 22.7093 91.1151 22.6193 90.8273C22.5294 90.5396 22.5307 90.231 22.6232 89.9441L37.8325 42.813C36.8042 42.043 36.0443 40.9688 35.6606 39.7428C35.2768 38.5168 35.2887 37.2012 35.6945 35.9823C36.1003 34.7634 36.8794 33.7031 37.9214 32.9518C38.9634 32.2004 40.2155 31.7961 41.5002 31.7961C42.7848 31.7961 44.0369 32.2004 45.0789 32.9518C46.1209 33.7031 46.9 34.7634 47.3058 35.9823C47.7116 37.2012 47.7235 38.5168 47.3397 39.7428C46.956 40.9688 46.1961 42.043 45.1678 42.813L60.3744 89.9441ZM45.1973 52.4096L36.4897 59.6186L50.6698 69.3739L45.1973 52.4096ZM38.301 37.9188C38.301 38.5515 38.4886 39.17 38.8401 39.6961C39.1917 40.2222 39.6913 40.6323 40.2759 40.8744C40.8605 41.1166 41.5037 41.1799 42.1243 41.0565C42.7449 40.933 43.3149 40.6283 43.7623 40.1809C44.2097 39.7335 44.5144 39.1635 44.6379 38.5429C44.7613 37.9223 44.698 37.2791 44.4558 36.6945C44.2137 36.1099 43.8036 35.6103 43.2775 35.2587C42.7514 34.9072 42.1329 34.7196 41.5002 34.7196C40.6519 34.7203 39.8386 35.0576 39.2388 35.6574C38.639 36.2572 38.3017 37.0705 38.301 37.9188ZM40.5309 43.9593L36.7765 55.5931L44.2318 49.4216L42.4694 43.9593C41.8281 44.0636 41.1741 44.0636 40.5328 43.9593H40.5309ZM26.6671 86.9284L40.6988 77.8122C40.743 77.7837 40.791 77.756 40.8362 77.7302L50.4005 72.7326L34.7228 61.9519L26.6671 86.9284ZM56.3332 86.9284L52.4682 74.9469L44.3886 79.1688L56.3332 86.9284Z" fill="black"/>
</svg>
