<svg width="100" height="97" viewBox="0 0 100 97" fill="none" xmlns="http://www.w3.org/2000/svg">
<g clip-path="url(#clip0_1390_545)">
<path d="M26.37 41.3402V45.6102H33.55V49.1202H26.37V65.0002H33.55V68.5102H26.37V84.4502H73.63V68.5402H66.45V65.0002H73.63V49.1202H66.45V45.6102H73.63V41.3502C76.1815 40.1925 78.3252 38.2934 79.782 35.9001C81.2388 33.5068 81.9412 30.7303 81.7976 27.9322C81.6541 25.134 80.6714 22.444 78.9773 20.2123C77.2833 17.9806 74.9565 16.3108 72.3 15.4202C71.9427 11.9993 70.3262 8.83339 67.7646 6.53797C65.2031 4.24255 61.8795 2.98159 58.44 3.0002C55.0418 3.00476 51.7612 4.24521 49.21 6.4902C47.2646 4.95987 44.9469 3.9751 42.4949 3.6371C40.0429 3.2991 37.5451 3.62005 35.2583 4.56698C32.9714 5.5139 30.9779 7.05265 29.4826 9.0251C27.9873 10.9976 27.0441 13.3326 26.75 15.7902C24.2446 16.8347 22.0988 18.5884 20.5766 20.8358C19.0543 23.0832 18.2218 25.7264 18.1815 28.4406C18.1411 31.1547 18.8946 33.8215 20.3494 36.1133C21.8041 38.405 23.8967 40.2217 26.37 41.3402ZM70.61 71.5502V81.4302H29.39V71.5502H70.61ZM36.61 68.5502V65.0002H63.43V68.5102L36.61 68.5502ZM70.61 52.1402V62.0002H29.39V52.1302L70.61 52.1402ZM36.61 49.1402V45.6102H63.43V49.1202L36.61 49.1402ZM70.61 42.6102H29.39V32.7102H70.61V42.6102ZM28.61 18.3102L29.61 17.9902V16.9902C29.692 14.871 30.3882 12.8213 31.6139 11.0905C32.8396 9.35975 34.5419 8.02256 36.5137 7.24168C38.4855 6.46079 40.6418 6.26987 42.7202 6.69216C44.7985 7.11444 46.7093 8.13172 48.22 9.6202L49.33 10.7002L50.38 9.5602C51.4056 8.44334 52.651 7.55056 54.038 6.93793C55.425 6.32529 56.9237 6.00604 58.44 6.0002C61.2862 5.98366 64.025 7.08511 66.0673 9.06751C68.1096 11.0499 69.2919 13.7548 69.36 16.6002V17.7402L70.5 18.0002C72.6111 18.5034 74.5248 19.6231 75.9978 21.2168C77.4707 22.8106 78.4364 24.8065 78.772 26.9506C79.1075 29.0947 78.7978 31.2901 77.8822 33.2577C76.9666 35.2253 75.4864 36.8761 73.63 38.0002V29.7002H26.37V37.9402C24.607 36.8469 23.1915 35.2744 22.2889 33.4064C21.3864 31.5385 21.0341 29.4523 21.2732 27.3915C21.5123 25.3308 22.3329 23.3807 23.6392 21.769C24.9455 20.1574 26.6835 18.9508 28.65 18.2902L28.61 18.3102Z" fill="black"/>
<path d="M68.32 37.6499V36.1499H60.27V37.6499V39.1599H68.32V37.6499Z" fill="black"/>
<path d="M68.32 57.0701V55.5601H60.27V57.0701V58.5801H68.32V57.0701Z" fill="black"/>
<path d="M68.32 76.49V74.98H60.27V76.49V78H68.32V76.49Z" fill="black"/>
<path d="M77.8499 90.1602H55.09C54.77 89.0577 54.1007 88.0889 53.1828 87.3995C52.2649 86.7101 51.1479 86.3373 50 86.3373C48.852 86.3373 47.735 86.7101 46.8171 87.3995C45.8992 88.0889 45.2299 89.0577 44.91 90.1602H21.2V80.4502H18.2V93.1802H44.91C45.2299 94.2827 45.8992 95.2515 46.8171 95.9409C47.735 96.6303 48.852 97.0031 50 97.0031C51.1479 97.0031 52.2649 96.6303 53.1828 95.9409C54.1007 95.2515 54.77 94.2827 55.09 93.1802H80.86V80.4502H77.86L77.8499 90.1602ZM50 94.0002C49.5403 94.0022 49.0903 93.8675 48.7073 93.6134C48.3242 93.3592 48.0253 92.997 47.8485 92.5727C47.6716 92.1483 47.6249 91.681 47.7141 91.2301C47.8033 90.7791 48.0244 90.3648 48.3495 90.0397C48.6745 89.7147 49.0888 89.4935 49.5398 89.4043C49.9908 89.3151 50.4581 89.3619 50.8824 89.5387C51.3067 89.7156 51.669 90.0145 51.9231 90.3975C52.1773 90.7806 52.3119 91.2305 52.31 91.6902C52.3073 92.302 52.0631 92.8881 51.6305 93.3207C51.1978 93.7533 50.6118 93.9976 50 94.0002Z" fill="black"/>
</g>
<defs>
<clipPath id="clip0_1390_545">
<rect width="100" height="97" fill="white"/>
</clipPath>
</defs>
</svg>
