<svg width="94" height="103" viewBox="0 0 94 103" fill="none" xmlns="http://www.w3.org/2000/svg">
<path d="M17.0869 80.6409C17.1545 80.2431 17.2464 79.8533 17.3585 79.4777C17.4776 79.0779 17.6321 78.667 17.8148 78.255L28.4759 54.3895C28.6899 53.9109 28.9333 53.4667 29.2029 53.0608C26.8746 48.594 26.0426 43.5507 26.7059 38.6751C27.3915 33.6409 29.6683 28.7803 33.5323 24.9163C34.0321 24.4166 34.8459 24.4166 35.3457 24.9163L43.526 33.0977L59.0547 27.9706C59.0254 27.697 59.0143 27.4203 59.0203 27.1437C59.0375 26.4359 59.1738 25.7332 59.4252 25.0759C59.6766 24.4155 60.4167 24.0834 61.077 24.3348C61.7374 24.5862 62.0695 25.3263 61.8181 25.9866C61.6667 26.3834 61.5849 26.7973 61.5748 27.2042C61.5657 27.6101 61.6263 28.0271 61.7586 28.428C61.8464 28.6945 61.9676 28.953 62.114 29.1913C62.2503 29.4195 62.428 29.6416 62.639 29.8526C62.748 29.9697 62.8965 30.101 63.0247 30.1939C63.167 30.2999 63.3144 30.3958 63.4639 30.4776C63.6678 30.5765 63.8445 30.6613 64.0626 30.733C64.7088 30.9451 65.3944 30.9673 66.0375 30.8148C66.6766 30.6624 67.2784 30.3352 67.761 29.8526C68.4678 29.1489 68.8212 28.22 68.8212 27.2911C68.8212 26.3642 68.4668 25.4363 67.761 24.7306C67.135 24.1046 66.3404 23.7522 65.5327 23.6795C64.7038 23.6038 63.8516 23.8118 63.1418 24.3035C62.5622 24.7043 61.7656 24.5579 61.3648 23.9784C60.9639 23.3988 61.1103 22.6022 61.6899 22.2013C62.9045 21.3613 64.3524 21.0059 65.7629 21.1351C67.1562 21.2613 68.5142 21.857 69.5744 22.9172C70.7809 24.1237 71.3857 25.7089 71.3857 27.2911C71.3857 28.8702 70.7809 30.4523 69.5744 31.6609C68.7505 32.4898 67.7227 33.0482 66.6292 33.3087C65.9436 33.4723 65.2298 33.5177 64.519 33.4389L59.3949 48.9666L67.5752 57.1469C68.075 57.6467 68.075 58.4605 67.5752 58.9603C66.4959 60.0396 65.3267 61.0039 64.0878 61.8479C62.8369 62.7001 61.5102 63.4271 60.135 64.0228C59.4888 64.3014 58.7366 64.0036 58.458 63.3574C58.1793 62.7112 58.4771 61.959 59.1233 61.6803C60.3319 61.1573 61.5142 60.5061 62.6461 59.7357C63.3962 59.2248 64.1262 58.6544 64.829 58.0274L34.4652 27.6626C31.5402 30.9531 29.7986 34.9221 29.2402 39.0163C28.6849 43.0974 29.3008 47.3097 31.0859 51.1041C32.0804 50.4175 33.2193 50.051 34.439 50.051C35.7384 50.051 36.944 50.467 37.9839 51.2424C38.9694 51.9784 39.7993 53.0457 40.3991 54.3895L43.9925 62.4325C45.2253 62.8253 46.4904 63.105 47.7666 63.2705C49.2245 63.4583 50.7118 63.4967 52.197 63.3846C52.9018 63.3331 53.5177 63.8622 53.5691 64.567C53.6206 65.2717 53.0916 65.8876 52.3868 65.9391C50.7522 66.0623 49.0953 66.0179 47.4455 65.8048C46.7377 65.7139 46.033 65.5898 45.3333 65.4353L51.0601 78.255C51.2439 78.667 51.3974 79.0769 51.5165 79.4767C51.6286 79.8513 51.7215 80.242 51.7891 80.6409C51.8133 80.7388 51.8265 80.8418 51.8265 80.9478C51.8265 81.6556 51.252 82.2301 50.5442 82.2301H18.3318C17.624 82.2301 17.0495 81.6556 17.0495 80.9478C17.0495 80.8418 17.0626 80.7388 17.0869 80.6409ZM13.6055 91.0677C12.8977 91.0677 12.3232 90.4932 12.3232 89.7854C12.3232 89.0776 12.8977 88.5031 13.6055 88.5031H55.0271C55.7349 88.5031 56.3094 89.0776 56.3094 89.7854C56.3094 90.4932 55.7349 91.0677 55.0271 91.0677H13.6055ZM13.6055 86.6474C12.8977 86.6474 12.3232 86.0729 12.3232 85.3651C12.3232 84.6573 12.8977 84.0828 13.6055 84.0828H55.0271C55.7349 84.0828 56.3094 84.6573 56.3094 85.3651C56.3094 86.0729 55.7349 86.6474 55.0271 86.6474H13.6055ZM20.1472 79.297L19.9957 79.6655H48.8792L48.7278 79.297L38.0667 55.4315C37.6517 54.5026 37.0974 53.7787 36.4513 53.2961C35.8576 52.8538 35.173 52.6155 34.439 52.6155C33.705 52.6155 33.0194 52.8528 32.4267 53.295C31.7785 53.7787 31.2232 54.5026 30.8082 55.4315L20.1472 79.297ZM69.6481 21.5511C68.9908 21.2997 68.6606 20.5616 68.912 19.9044C69.1634 19.2471 69.9015 18.9169 70.5588 19.1683C70.9203 19.3066 71.2777 19.4894 71.6159 19.7125C71.9421 19.9245 72.2561 20.179 72.5468 20.4688C72.9396 20.8575 73.2657 21.2957 73.5212 21.751L73.5636 21.8328C73.8079 22.2882 73.9836 22.7668 74.0815 23.2423C74.2219 23.9329 73.7756 24.6094 73.085 24.7497C72.3944 24.8901 71.7179 24.4438 71.5776 23.7532C71.5311 23.527 71.4433 23.2908 71.3201 23.0575L71.2878 23.003C71.1485 22.7546 70.9627 22.5073 70.7355 22.2801C70.5719 22.1105 70.3912 21.9651 70.2095 21.8449C70.0257 21.7207 69.8349 21.6228 69.6481 21.5511ZM70.1751 17.8073C69.5178 17.5538 69.1907 16.8128 69.4441 16.1555C69.6976 15.4982 70.4387 15.171 71.096 15.4245C71.7987 15.695 72.4974 16.0535 73.1698 16.4977C73.8311 16.9329 74.4551 17.4367 75.0175 17.9991C75.6788 18.6604 76.2493 19.3904 76.7178 20.1537C77.1994 20.9383 77.5699 21.7611 77.8234 22.587C78.0303 23.2615 77.6517 23.9773 76.9773 24.1843C76.3028 24.3913 75.587 24.0127 75.38 23.3382C75.1902 22.7183 74.9064 22.0913 74.5349 21.4865C74.1815 20.91 73.7352 20.3436 73.2041 19.8125C72.7367 19.345 72.252 18.9482 71.7684 18.6302C71.2565 18.2929 70.7183 18.0163 70.1751 17.8073ZM70.7224 13.9847C70.0651 13.7333 69.7349 12.9952 69.9863 12.3379C70.2377 11.6806 70.9758 11.3505 71.6331 11.6019C72.6943 12.0108 73.7463 12.5499 74.751 13.2123C75.7394 13.8635 76.6794 14.6228 77.5366 15.48C78.4867 16.4301 79.3086 17.468 79.9921 18.5544C80.6979 19.6731 81.2492 20.8413 81.6419 22.0135C81.8661 22.6819 81.5046 23.4069 80.8362 23.631C80.1678 23.8552 79.4429 23.4937 79.2187 22.8253C78.8896 21.8429 78.4251 20.8605 77.8294 19.9155C77.259 19.0098 76.5552 18.1253 75.7233 17.2934C74.961 16.5311 74.1613 15.8788 73.3495 15.3447C72.4954 14.7813 71.6099 14.3259 70.7224 13.9847ZM59.8543 30.4049L45.5544 35.1261L50.5533 40.125L60.0169 30.6613L59.8543 30.4049ZM57.3665 46.9382L62.0877 32.6322L61.8312 32.4737L52.3666 41.9383L57.3665 46.9382ZM55.8278 62.797C56.5133 62.6294 57.207 63.0484 57.3746 63.734C57.5422 64.4196 57.1232 65.1132 56.4376 65.2808L56.2256 65.3333C55.54 65.5009 54.8464 65.0819 54.6788 64.3963C54.5112 63.7108 54.9302 63.0171 55.6157 62.8495L55.8278 62.797ZM34.438 58.2656C35.5022 58.2656 36.4684 58.6998 37.1711 59.4005C37.9001 60.1295 38.3111 61.1058 38.3111 62.1387C38.3111 63.2009 37.8769 64.1692 37.1762 64.8719C36.4472 65.6009 35.4709 66.0118 34.438 66.0118C33.3869 66.0118 32.3288 65.5716 31.62 64.7901C30.9657 64.0955 30.5639 63.1605 30.5639 62.1387C30.5639 61.0745 30.9991 60.1052 31.7018 59.4035C32.3995 58.6998 33.3687 58.2656 34.438 58.2656ZM35.3649 61.2118C35.1306 60.9756 34.8015 60.8302 34.438 60.8302C34.0765 60.8302 33.7484 60.9776 33.5121 61.2139C33.2738 61.4461 33.1284 61.7752 33.1284 62.1387C33.1284 62.486 33.2607 62.8223 33.5121 63.0636C33.7484 63.2998 34.0765 63.4472 34.438 63.4472C34.8015 63.4472 35.1306 63.3018 35.3628 63.0686C35.6011 62.8313 35.7465 62.5022 35.7465 62.1387C35.7465 61.7752 35.6011 61.4461 35.3649 61.2118Z" fill="black"/>
</svg>
