<svg width="81" height="84" viewBox="0 0 81 84" fill="none" xmlns="http://www.w3.org/2000/svg">
<path d="M40.3204 16.8701C39.2084 16.8701 14.3726 16.9939 14.3726 23.0581C14.3726 29.1223 39.2084 29.246 40.3204 29.246C41.4325 29.246 66.2683 29.1223 66.2683 23.0581C66.2683 16.9939 41.4325 16.8701 40.3204 16.8701ZM40.3204 26.7709C25.7402 26.7709 17.338 24.2957 16.8438 23.0581C17.338 21.6967 25.7402 19.3453 40.3204 19.3453C54.9006 19.3453 63.3028 21.8205 63.7971 23.0581C63.3028 24.2957 54.9006 26.7709 40.3204 26.7709Z" fill="black"/>
<path d="M15.6082 28.0083C14.8668 28.0083 14.3726 28.5033 14.3726 29.2458V32.9587C14.3726 35.0625 17.0909 36.5477 22.7747 37.6615C22.8983 37.6615 24.0103 37.909 24.2574 36.6714C24.381 36.0526 24.0103 35.3101 23.269 35.1863C17.4616 34.1963 16.8438 32.9587 16.8438 32.9587V29.2458C16.8438 28.6271 16.3495 28.0083 15.6082 28.0083Z" fill="black"/>
<path d="M66.2682 29.2458C66.2682 28.5033 65.7739 28.0083 65.0325 28.0083C64.2911 28.0083 63.7969 28.5033 63.7969 29.2458V32.8349C63.3027 34.1963 54.9005 36.5477 40.3203 36.5477C36.2427 36.5477 32.2888 36.3001 28.7055 35.9289C27.9642 35.8051 27.4699 36.3001 27.3463 37.0427C27.2228 37.6615 27.717 38.2803 28.4584 38.404C32.0416 38.7753 36.2427 39.0229 40.3203 39.0229C41.4324 39.0229 66.2682 38.8991 66.2682 32.8349V29.2458Z" fill="black"/>
<path d="M66.2683 39.3938C66.2683 38.6512 65.774 38.1561 65.0327 38.1561C64.2913 38.1561 63.7971 38.6512 63.7971 39.3938V42.859C63.3028 44.2204 54.9006 46.5718 40.3204 46.5718C25.7402 46.5718 17.338 44.0966 16.8438 42.859V38.8987C16.8438 38.1561 16.3495 37.6611 15.6082 37.6611C14.8668 37.6611 14.3726 38.1561 14.3726 38.8987V42.859C14.3726 48.9232 39.2084 49.047 40.3204 49.047C41.4325 49.047 66.2683 48.9232 66.2683 42.859V39.3938Z" fill="black"/>
<path d="M66.2683 52.7604V49.2951C66.2683 48.5526 65.774 48.0576 65.0327 48.0576C64.2913 48.0576 63.7971 48.5526 63.7971 49.2951V52.7604C63.3028 54.1217 54.9006 56.4732 40.3204 56.4732C25.7402 56.4732 17.338 53.998 16.8438 52.7604V48.8001C16.8438 48.0576 16.3495 47.5625 15.6082 47.5625C14.8668 47.5625 14.3726 48.0576 14.3726 48.8001V52.7604C14.3726 58.8246 39.2084 58.9484 40.3204 58.9484C41.4325 58.9484 66.2683 58.8246 66.2683 52.7604Z" fill="black"/>
<path d="M40.3201 61.4234C35.9955 61.4234 31.7944 61.1759 28.0876 60.8046C27.4697 60.6808 26.8519 61.1759 26.7284 61.9184C26.6048 62.5372 27.0991 63.156 27.8405 63.2797C31.5473 63.7748 35.8719 63.8986 40.3201 63.8986C41.9264 63.8986 43.5327 63.8986 45.2626 63.7748C46.0039 63.7748 46.4982 63.156 46.4982 62.5372C46.4982 61.7946 45.8804 61.2996 45.2626 61.2996C43.5327 61.4234 41.9264 61.4234 40.3201 61.4234Z" fill="black"/>
<path d="M20.9212 59.4431C20.3034 59.3194 19.562 59.6907 19.4385 60.3094C19.3149 60.9283 19.6856 61.6708 20.3034 61.7945C21.0448 62.0421 21.9097 62.1659 22.7746 62.4134C22.8982 62.4134 23.8867 62.6609 24.2573 61.4233C24.3809 60.8045 24.0102 60.0619 23.2689 59.9382C22.4039 59.8144 21.539 59.6907 20.9212 59.4431Z" fill="black"/>
<path d="M52.6766 14.3945C53.7887 14.3945 78.6245 14.2707 78.6245 8.20652C78.6245 3.37991 62.5615 2.26606 57.7426 2.14231C57.0013 2.14231 56.507 2.63733 56.507 3.37991C56.507 4.12244 57.0013 4.61746 57.7426 4.61746C69.8516 5.11254 75.7826 7.21642 76.1533 8.20652C75.659 9.44412 67.2568 11.9193 52.6766 11.9193C38.0964 11.9193 29.6942 9.44412 29.2 8.20652C29.6942 6.84516 38.0964 4.4937 52.6766 4.4937C53.418 4.4937 53.9123 3.99869 53.9123 3.25616C53.9123 2.51357 53.418 2.01855 52.6766 2.01855C51.5646 2.01855 26.7288 2.14231 26.7288 8.20652C26.7288 14.2707 51.5646 14.3945 52.6766 14.3945Z" fill="black"/>
<path d="M77.3888 13.1572C76.6474 13.1572 76.1532 13.6522 76.1532 14.3948V18.1076C76.1532 18.1076 75.5354 19.3452 69.8516 20.459C69.2338 20.5828 68.7395 21.2016 68.8631 21.8204C69.1102 22.8104 70.2222 22.8104 70.3458 22.8104C76.0296 21.6966 78.6244 20.2115 78.6244 18.1076V14.3948C78.6244 13.6522 78.1301 13.1572 77.3888 13.1572Z" fill="black"/>
<path d="M73.9289 16.0033C73.8054 15.3845 73.064 15.0132 72.4462 15.137C70.4692 15.7558 67.8744 16.1271 64.9089 16.4984C64.2911 16.6221 63.7969 17.2409 63.7969 17.8597C63.9204 18.4785 64.4147 18.9736 65.0325 18.9736C65.0325 18.9736 70.9635 18.1072 73.064 17.4884C73.6818 17.3647 74.176 16.7459 73.9289 16.0033Z" fill="black"/>
<path d="M77.3888 23.0581C76.6474 23.0581 76.1532 23.5532 76.1532 24.2957V27.8847C76.1532 27.8847 75.5354 29.1223 69.8516 30.2362C69.2338 30.4837 68.7395 31.1025 68.8631 31.7213C69.1102 32.7114 70.2222 32.7114 70.3458 32.7114C76.0296 31.5975 78.6244 30.1124 78.6244 28.0085V24.2957C78.6244 23.6769 78.1301 23.0581 77.3888 23.0581Z" fill="black"/>
<path d="M77.3885 32.835C76.6471 32.835 76.1529 33.33 76.1529 34.0725V37.7853C76.1529 37.7853 75.5351 39.0229 69.8513 40.1367C69.1099 40.3843 68.7392 41.0031 68.8628 41.6218C69.1099 42.7357 70.2219 42.6119 70.3455 42.6119C76.0293 41.4981 78.6241 40.013 78.6241 37.9091V34.0725C78.6241 33.4537 78.1299 32.835 77.3885 32.835Z" fill="black"/>
<path d="M77.3889 42.8594C76.6475 42.8594 76.1533 43.3545 76.1533 44.097V47.8097C76.0297 48.1811 74.547 49.2948 69.2339 50.2849C68.6161 50.4087 68.1218 51.0275 68.2454 51.7701C68.4925 53.0077 69.6046 52.7602 69.7281 52.7602C77.636 51.275 78.6245 49.2948 78.6245 47.9335V44.2207C78.6245 43.3544 78.1303 42.8594 77.3889 42.8594Z" fill="black"/>
<path d="M22.404 14.8901C22.404 14.8901 23.6396 14.7664 23.6396 13.6525C23.6396 12.91 23.1454 12.4149 22.404 12.4149C10.5421 11.9199 4.85828 9.81602 4.48761 8.94968C4.98183 7.83583 11.7777 5.48444 25.493 5.23693C26.2344 5.23693 26.7286 4.6181 26.7286 3.99932C26.7286 3.2568 26.1108 2.76172 25.493 2.76172C21.5391 2.88547 2.01636 3.50431 2.01636 8.94968C2.01636 13.5288 16.2259 14.6426 22.404 14.8901Z" fill="black"/>
<path d="M10.7892 23.5531C10.9128 23.5531 12.0248 23.5531 12.272 22.563C12.3955 21.9442 11.9012 21.2016 11.2835 21.0779C6.0939 20.0878 4.61116 18.974 4.48761 18.7265V14.6424C4.48761 13.8998 3.99332 13.4048 3.25198 13.4048C2.51058 13.4048 2.01636 13.8998 2.01636 14.6424V18.7265C2.01636 20.0878 2.88131 22.068 10.7892 23.5531Z" fill="black"/>
<path d="M10.7892 33.4539C10.9128 33.4539 12.0248 33.5777 12.272 32.4638C12.3955 31.845 11.9012 31.1025 11.2835 30.9787C6.0939 29.9887 4.61116 28.8748 4.48761 28.6273V24.2957C4.48761 23.5532 3.99332 23.0581 3.25198 23.0581C2.51058 23.0581 2.01636 23.5532 2.01636 24.2957V28.6273C2.01636 29.9887 2.88131 31.9688 10.7892 33.4539Z" fill="black"/>
<path d="M3.37564 32.959C2.63423 32.959 2.14001 33.454 2.14001 34.1966V38.6519C2.01645 40.7558 4.73482 42.2409 10.7893 43.3548C10.9129 43.3548 12.0249 43.3548 12.2721 42.3647C12.3956 41.7459 11.9013 41.0033 11.2835 40.8796C6.21755 39.8895 4.73482 38.7757 4.61126 38.5281V34.1966C4.61126 33.454 4.11697 32.959 3.37564 32.959Z" fill="black"/>
<path d="M11.1599 50.9038C6.0939 49.9137 4.61116 48.7999 4.48761 48.5524V44.3445C4.48761 43.602 3.99332 43.1069 3.25198 43.1069C2.51058 43.1069 2.01636 43.602 2.01636 44.3445V48.5524C2.01636 50.6563 4.73472 52.2651 10.6657 53.379C10.7892 53.379 11.7777 53.5027 12.1484 52.3889C12.3955 51.6464 11.9012 51.0275 11.1599 50.9038Z" fill="black"/>
<path d="M77.3889 73.7991H43.7802C43.4095 72.8091 42.5446 71.9428 41.5561 71.5715V68.8488C46.7457 68.725 66.2684 68.1062 66.2684 62.6608V58.9481C66.2684 58.2055 65.7741 57.7104 65.0328 57.7104C64.2914 57.7104 63.7971 58.2055 63.7971 58.9481V62.6608C63.3029 64.0222 54.9007 66.3736 40.3205 66.3736C25.7402 66.3736 17.3381 63.8984 16.8439 62.6608V58.9481C16.8439 58.2055 16.3496 57.7104 15.6082 57.7104C14.8668 57.7104 14.3726 58.2055 14.3726 58.9481V62.6608C14.3726 68.1062 33.8953 68.725 39.0849 68.8488V71.5715C38.0964 71.9428 37.2315 72.8091 36.8608 73.7991H13.137C12.3957 73.7991 11.9014 74.2942 11.9014 75.0367C11.9014 75.7793 12.3957 76.2743 13.137 76.2743H36.8608C37.355 77.7595 38.7142 78.7495 40.3205 78.7495C41.9268 78.7495 43.286 77.7595 43.7802 76.2743H77.3889C78.1302 76.2743 78.6245 75.7793 78.6245 75.0367C78.6245 74.2942 78.1302 73.7991 77.3889 73.7991ZM40.3205 76.2743C39.5791 76.2743 39.0849 75.7793 39.0849 75.0367C39.0849 74.2942 39.5791 73.7991 40.3205 73.7991C41.0618 73.7991 41.5561 74.2942 41.5561 75.0367C41.5561 75.7793 41.0618 76.2743 40.3205 76.2743Z" fill="black"/>
<path d="M8.07086 73.7993H3.25198C2.51058 73.7993 2.01636 74.2944 2.01636 75.0369C2.01636 75.7794 2.51058 76.2745 3.25198 76.2745H8.07086C8.8122 76.2745 9.30649 75.7794 9.30649 75.0369C9.30649 74.2944 8.8122 73.7993 8.07086 73.7993Z" fill="black"/>
</svg>
