<svg width="145" height="60" viewBox="0 0 145 60" fill="none" xmlns="http://www.w3.org/2000/svg">
<path d="M133.54 41.5444C133.153 41.5444 132.887 41.2767 132.887 40.8918V21.7689H126.391C126.005 21.7689 125.738 21.5024 125.738 21.1169V18.4791C125.738 18.0929 126.005 17.8256 126.391 17.8256H143.683C144.069 17.8256 144.335 18.0932 144.335 18.4791V21.1168C144.335 21.5019 144.069 21.7689 143.683 21.7689H137.187V40.8915C137.187 41.2767 136.92 41.5444 136.535 41.5444H133.54ZM83.7763 31.9972L80.3661 22.2141L76.9254 31.9972H83.7763ZM91.3397 40.7717C91.4888 41.1581 91.251 41.5444 90.8357 41.5444H87.7516C87.3065 41.5444 87.0392 41.3375 86.8905 40.9205L85.1413 35.8821H75.562L73.8098 40.9205C73.6627 41.3376 73.3947 41.5444 72.9507 41.5444H70.045C69.6589 41.5444 69.3915 41.158 69.54 40.7717L77.5776 18.4198C77.7263 18.0034 77.9931 17.8266 78.4371 17.8266H82.4117C82.8569 17.8266 83.1536 18.0036 83.3018 18.4198L91.3397 40.7717ZM114.379 38.3418C116.276 38.3418 117.552 37.4243 118.59 35.8522L113.786 30.6929C111.947 31.7314 110.76 32.7677 110.76 34.8436C110.76 36.8897 112.42 38.3418 114.379 38.3418ZM115.713 20.9682C114.171 20.9682 113.282 21.9475 113.282 23.2518C113.282 24.2596 113.814 25.1492 115.031 26.454C117.136 25.2376 118.027 24.4969 118.027 23.1927C118.027 21.9762 117.256 20.9682 115.713 20.9682ZM128.853 40.7141C129.239 41.1296 129.002 41.5444 128.526 41.5444H124.759C124.255 41.5444 123.988 41.4252 123.662 41.0394L121.408 38.5501C119.896 40.5662 117.788 42.0779 114.289 42.0779C109.959 42.0779 106.547 39.4691 106.547 34.9931C106.547 31.5529 108.387 29.7143 111.175 28.173C109.81 26.6018 109.188 24.9414 109.188 23.4894C109.188 19.8121 111.768 17.2925 115.653 17.2925C119.628 17.2925 122.06 19.6355 122.06 23.1036C122.06 26.0683 119.925 27.7271 117.67 28.9732L120.993 32.5618L122.861 29.2993C123.098 28.9145 123.365 28.7657 123.839 28.7657H126.715C127.191 28.7657 127.458 29.0927 127.162 29.5964L123.839 35.2879L128.853 40.7141ZM99.2538 41.5444C99.6394 41.5444 99.9076 41.2767 99.9076 40.8918V21.7689H106.402C106.788 21.7689 107.054 21.5024 107.054 21.1169V18.4791C107.054 18.0929 106.788 17.8256 106.402 17.8256H89.1099C88.7238 17.8256 88.4574 18.0932 88.4574 18.4791V21.1168C88.4574 21.5019 88.7239 21.7689 89.1099 21.7689H95.6044V40.8915C95.6044 41.2767 95.8722 41.5444 96.2573 41.5444H99.2538Z" fill="white"/>
<path d="M11.4755 53.0794C16.5055 56.9729 22.8191 59.3124 29.669 59.3124C37.165 59.3124 43.9988 56.5294 49.2142 51.9611C49.2774 51.9053 49.2463 51.8683 49.1839 51.9053C46.8436 53.4682 40.1733 56.88 29.6693 56.88C20.5408 56.88 14.7719 54.8433 11.5141 53.025C11.4518 52.9942 11.4287 53.041 11.4755 53.0794ZM31.6829 54.5953C38.984 54.5953 47.0071 52.6051 51.8055 48.6655C53.1186 47.5921 54.3694 46.1634 55.4895 44.2435C56.1344 43.1388 56.7651 41.8263 57.2788 40.5362C57.3016 40.4733 57.2628 40.4427 57.2155 40.5134C52.7532 47.0798 39.8316 51.1756 26.4894 51.1756C17.0586 51.1756 6.91123 48.1599 2.93846 42.4016C2.89935 42.3483 2.86025 42.3711 2.88406 42.4323C6.58497 50.2983 17.8127 54.5953 31.6829 54.5953ZM23.7058 41.5461C8.52085 41.5461 1.36086 34.474 0.0620475 29.6479C0.0460306 29.578 0 29.5933 0 29.6561C0 31.2808 0.162622 33.3775 0.442413 34.7692C0.575888 35.4467 1.12724 36.5098 1.93559 37.3573C5.61256 41.1898 14.7797 46.5601 30.6558 46.5601C52.2863 46.5601 57.2321 39.355 58.242 36.9856C58.9642 35.291 59.3384 32.2287 59.3384 29.6562C59.3384 29.0338 59.3228 28.5365 59.2993 28.0484C59.2993 27.9692 59.2534 27.9627 59.2375 28.0399C58.1566 33.8377 39.6758 41.5461 23.7058 41.5461ZM2.86025 16.9336C1.99014 18.6603 1.02566 21.5734 0.738943 23.0811C0.61326 23.7271 0.666794 24.0374 0.89334 24.5194C2.71335 28.3809 11.9193 34.5592 33.3933 34.5592C46.4939 34.5592 56.6709 31.3407 58.3196 25.4676C58.6232 24.3864 58.6395 23.2449 58.2495 21.7068C57.8137 19.9879 56.9976 17.9836 56.3068 16.5762C56.284 16.5303 56.2438 16.5371 56.252 16.5913C56.5086 24.2945 35.0261 29.2592 24.187 29.2592C12.4463 29.2592 2.6513 24.5815 2.6513 18.675C2.6513 18.1075 2.76876 17.5399 2.91537 16.9492C2.93009 16.8952 2.88391 16.8862 2.86025 16.9336ZM49.2623 7.47564C49.3869 7.67101 49.4491 7.87951 49.4491 8.16016C49.4491 11.4552 39.3641 17.2843 23.3101 17.2843C11.5141 17.2843 9.30569 12.9085 9.30569 10.1257C9.30569 9.13096 9.68721 8.11312 10.5274 7.07941C10.5733 7.01794 10.5344 6.99428 10.4814 7.04002C8.94899 8.33865 7.54094 9.7999 6.30576 11.3773C5.71559 12.1233 5.34922 12.7842 5.34922 13.1801C5.34922 18.947 19.81 23.1283 33.3314 23.1283C47.7385 23.1283 54.1684 18.4253 54.1684 14.2922C54.1684 12.815 53.5933 11.9527 52.1224 10.281C51.1676 9.19344 50.2644 8.30792 49.3084 7.43625C49.2623 7.39816 49.2301 7.42918 49.2623 7.47564ZM44.8455 4.1813C40.3991 1.51622 35.2358 0 29.6693 0C24.0639 0 18.745 1.56918 14.2826 4.30482C12.9441 5.12858 12.1908 5.78872 12.1908 6.6373C12.1908 9.13875 18.0369 11.8284 28.4088 11.8284C38.6731 11.8284 46.6342 8.88235 46.6342 6.04657C46.6342 5.36969 46.0426 4.89613 44.8455 4.1813Z" fill="white"/>
</svg>
