<svg width="187" height="46" viewBox="0 0 187 46" fill="none" xmlns="http://www.w3.org/2000/svg">
<path d="M20.3947 22.0539C18.9629 22.0539 17.7942 20.8893 17.7942 19.4627V5.40071C17.7942 3.97413 18.9629 2.80957 20.3947 2.80957C21.8264 2.80957 22.9951 3.97413 22.9951 5.40071V19.4627C22.9951 20.8893 21.8264 22.0539 20.3947 22.0539Z" fill="#1CB938"/>
<path d="M34.2736 24.7902C34.3029 26.6389 33.9522 28.444 33.251 30.1471L38.0282 32.1997C39.0217 29.8123 39.5038 27.294 39.4746 24.7319L34.2736 24.7902Z" fill="#1CB938"/>
<path d="M28.8975 35.8826L32.0823 39.9731C34.2007 38.3428 35.9246 36.3048 37.1956 33.9465L32.6229 31.501C31.6879 33.2187 30.4314 34.7035 28.8975 35.8826Z" fill="#1CB938"/>
<path d="M32.8567 18.8802C33.0904 19.3752 33.3096 19.8701 33.4849 20.3942C33.8209 21.3404 34.04 22.3157 34.1569 23.291L39.3286 22.7669C39.1679 21.384 38.8611 20.0011 38.3936 18.6764C38.1453 17.9777 37.8531 17.279 37.5317 16.6093L37.2979 16.2163L32.6667 18.5018L32.8567 18.8802Z" fill="#1CB938"/>
<path d="M30.2562 15.2118C30.8406 15.8086 31.3811 16.4782 31.8486 17.1624L36.2314 14.382C35.5594 13.3776 34.7997 12.4168 33.9378 11.558L33.9232 11.5725C33.441 11.0194 32.7544 10.6846 31.9655 10.6846C30.5338 10.6846 29.3796 11.8346 29.3796 13.2612C29.3796 14.0472 29.7157 14.746 30.2562 15.2118Z" fill="#1CB938"/>
<path d="M24.9675 38.0079C17.7359 40.5263 9.80296 36.7123 7.29015 29.5067C5.74156 25.0959 6.55968 20.3067 9.26242 16.682C9.49617 17.9775 11.1909 18.3997 11.9944 17.3225C12.2427 17.0022 12.345 16.5946 12.2866 16.187L11.5853 11.1794C11.4684 10.3351 10.6941 9.75286 9.84679 9.86931L4.82117 10.5972C4.4121 10.6554 4.04687 10.8737 3.81312 11.194C3.02421 12.2275 3.81312 13.6832 5.06953 13.6541C1.35874 18.618 0.263041 25.1832 2.3814 31.2244C5.84382 41.1231 16.757 46.3636 26.6914 42.8991C28.0209 42.4332 29.3065 41.8218 30.4898 41.0794L27.6702 36.7269C26.8229 37.251 25.9171 37.6877 24.9675 38.0079Z" fill="#1CB938"/>
<path d="M57.8533 7.35146V12.228H66.4436V15.6635H57.8533V22.3888H53.5581V3.91602H67.5685V7.35146H57.8533Z" fill="white"/>
<path d="M84.0041 8.1958V22.4034H80.0888V20.7148C79.5337 21.3262 78.8908 21.8066 78.1312 22.1268C77.3715 22.4471 76.5534 22.6217 75.6622 22.6217C73.7922 22.6217 72.302 22.0831 71.2063 21.0059C70.1106 19.9287 69.5701 18.342 69.5701 16.2312V8.1958H73.7045V15.6199C73.7045 17.9053 74.6687 19.0553 76.5972 19.0553C77.5906 19.0553 78.3795 18.735 78.9785 18.0945C79.5775 17.454 79.8843 16.4933 79.8843 15.2268V8.1958H84.0041Z" fill="white"/>
<path d="M87.6562 2.80957H91.7907V22.4032H87.6562V2.80957Z" fill="white"/>
<path d="M95.4578 2.80957H99.5922V22.4032H95.4578V2.80957Z" fill="white"/>
<path d="M129.994 5.56084C129.512 5.12413 129.279 4.57097 129.279 3.93046C129.279 3.28996 129.512 2.73679 129.994 2.30008C130.477 1.86337 131.09 1.64502 131.85 1.64502C132.609 1.64502 133.223 1.84882 133.705 2.28553C134.187 2.70768 134.421 3.23173 134.421 3.87224C134.421 4.55641 134.187 5.12413 133.705 5.5754C133.223 6.02667 132.609 6.24502 131.85 6.24502C131.09 6.21591 130.477 5.99755 129.994 5.56084ZM129.79 8.19565H133.924V22.4032H129.79V8.19565Z" fill="white"/>
<path d="M143.523 8.51575C144.355 8.16638 145.334 7.9917 146.43 7.9917V11.7911C145.977 11.762 145.656 11.7328 145.51 11.7328C144.326 11.7328 143.406 12.0676 142.734 12.7227C142.062 13.3778 141.726 14.3676 141.726 15.6923V22.4031H137.591V8.1955H141.536V10.0733C142.018 9.38917 142.69 8.86512 143.523 8.51575Z" fill="white"/>
<path d="M151.368 21.6752C150.155 21.0493 149.206 20.1904 148.534 19.0695C147.847 17.9632 147.511 16.6968 147.511 15.2993C147.511 13.9018 147.847 12.6354 148.534 11.529C149.22 10.4227 150.155 9.54929 151.368 8.92334C152.58 8.2974 153.939 7.9917 155.458 7.9917C156.963 7.9917 158.278 8.2974 159.388 8.92334C160.513 9.54929 161.331 10.4373 161.843 11.6018L158.643 13.3195C157.898 12.024 156.832 11.3689 155.444 11.3689C154.363 11.3689 153.472 11.7183 152.77 12.4316C152.069 13.1303 151.704 14.0911 151.704 15.3138C151.704 16.5366 152.054 17.4828 152.77 18.1961C153.472 18.8949 154.363 19.2588 155.444 19.2588C156.861 19.2588 157.927 18.6037 158.643 17.3082L161.843 19.055C161.331 20.1759 160.513 21.0638 159.388 21.6898C158.263 22.3303 156.949 22.636 155.458 22.636C153.939 22.6069 152.58 22.3012 151.368 21.6752Z" fill="white"/>
<path d="M163.947 2.80957H168.081V22.4032H163.947V2.80957Z" fill="white"/>
<path d="M185.612 16.4639H174.831C175.021 17.3373 175.488 18.036 176.204 18.5455C176.934 19.055 177.826 19.317 178.907 19.317C179.652 19.317 180.309 19.2006 180.879 18.9822C181.449 18.7638 181.989 18.4145 182.486 17.9341L184.692 20.3069C183.348 21.8354 181.39 22.6069 178.804 22.6069C177.197 22.6069 175.78 22.3012 174.538 21.6752C173.297 21.0493 172.347 20.1904 171.675 19.0695C171.003 17.9632 170.667 16.6968 170.667 15.2993C170.667 13.9018 171.003 12.6499 171.66 11.5436C172.318 10.4227 173.238 9.54929 174.392 8.92334C175.547 8.2974 176.847 7.9917 178.278 7.9917C179.681 7.9917 180.937 8.29739 182.062 8.89423C183.187 9.49107 184.078 10.3499 184.721 11.4708C185.364 12.5917 185.685 13.8873 185.685 15.3721C185.685 15.4012 185.671 15.7797 185.612 16.4639ZM175.941 11.893C175.298 12.417 174.918 13.1449 174.772 14.062H181.799C181.653 13.1594 181.273 12.4461 180.631 11.9075C179.988 11.3689 179.213 11.1069 178.293 11.1069C177.358 11.1069 176.584 11.3689 175.941 11.893Z" fill="white"/>
<path d="M62.09 42.4919V43.5983H53.5581V31.5742H61.827V32.6805H54.8291V36.9603H61.0673V38.0375H54.8291V42.5065H62.09V42.4919Z" fill="white"/>
<path d="M66.1077 31.5742H67.3787V42.5065H74.1428V43.6128H66.1077V31.5742Z" fill="white"/>
<path d="M85.8156 42.4919V43.5983H77.2837V31.5742H85.5526V32.6805H78.5547V36.9603H84.7929V38.0375H78.5547V42.5065H85.8156V42.4919Z" fill="white"/>
<path d="M91.7764 42.9141C90.8122 42.3901 90.0671 41.6622 89.512 40.7306C88.9714 39.7989 88.6938 38.7508 88.6938 37.6008C88.6938 36.4508 88.9714 35.4027 89.512 34.4711C90.0525 33.5394 90.8122 32.8116 91.7764 32.2875C92.7406 31.7635 93.8217 31.5015 95.0197 31.5015C95.9109 31.5015 96.7436 31.647 97.5033 31.9527C98.263 32.2439 98.9058 32.6806 99.4317 33.2629L98.6282 34.0635C97.6786 33.1173 96.4953 32.6369 95.0635 32.6369C94.1139 32.6369 93.2374 32.8553 92.4631 33.292C91.6888 33.7287 91.0752 34.3255 90.6223 35.0825C90.184 35.8394 89.9649 36.6837 89.9649 37.6299C89.9649 38.5761 90.184 39.4205 90.6223 40.1774C91.0606 40.9344 91.6742 41.5312 92.4631 41.9679C93.2374 42.4046 94.1139 42.623 95.0635 42.623C96.5099 42.623 97.7078 42.1426 98.6282 41.1818L99.4317 41.9825C98.9058 42.5502 98.263 42.9869 97.4887 43.2926C96.729 43.5983 95.8963 43.7439 94.9905 43.7439C93.8071 43.7002 92.7406 43.4382 91.7764 42.9141Z" fill="white"/>
<path d="M105.363 32.6659H101.126V31.5596H110.885V32.6659H106.649V43.5836H105.378V32.6659H105.363Z" fill="white"/>
<path d="M122.178 43.5983L119.417 39.7261C119.11 39.7552 118.789 39.7843 118.453 39.7843H115.21V43.5983H113.939V31.5742H118.453C119.987 31.5742 121.2 31.9381 122.076 32.6805C122.953 33.4084 123.391 34.4274 123.391 35.7084C123.391 36.6546 123.157 37.4407 122.675 38.0812C122.193 38.7217 121.521 39.2021 120.63 39.4787L123.581 43.5983H122.178ZM121.156 37.9065C121.784 37.3824 122.105 36.64 122.105 35.6938C122.105 34.7185 121.784 33.9761 121.156 33.4521C120.528 32.928 119.607 32.666 118.409 32.666H115.195V38.6926H118.409C119.607 38.7071 120.528 38.4451 121.156 37.9065Z" fill="white"/>
<path d="M129.439 42.8994C128.46 42.3608 127.715 41.6329 127.16 40.7158C126.605 39.7988 126.342 38.7507 126.342 37.5861C126.342 36.4361 126.62 35.388 127.16 34.4563C127.701 33.5247 128.46 32.7969 129.439 32.2728C130.403 31.7342 131.499 31.4722 132.683 31.4722C133.88 31.4722 134.962 31.7342 135.911 32.2582C136.875 32.7823 137.62 33.5101 138.176 34.4418C138.731 35.3734 139.008 36.4215 139.008 37.5715C139.008 38.7361 138.731 39.7696 138.176 40.7013C137.62 41.6329 136.861 42.3608 135.911 42.8848C134.947 43.4089 133.88 43.6709 132.683 43.6709C131.499 43.7 130.418 43.438 129.439 42.8994ZM135.283 41.9241C136.057 41.5019 136.656 40.9051 137.095 40.1336C137.533 39.3766 137.752 38.5177 137.752 37.5861C137.752 36.6544 137.533 35.7956 137.095 35.0386C136.656 34.2817 136.057 33.6848 135.283 33.2481C134.509 32.8114 133.647 32.6076 132.697 32.6076C131.748 32.6076 130.886 32.826 130.097 33.2481C129.322 33.6703 128.709 34.2671 128.27 35.0386C127.832 35.7956 127.613 36.6544 127.613 37.5861C127.613 38.5323 127.832 39.3766 128.27 40.1336C128.709 40.8905 129.322 41.4874 130.097 41.9241C130.871 42.3462 131.733 42.5646 132.697 42.5646C133.647 42.5646 134.509 42.3462 135.283 41.9241Z" fill="white"/>
<path d="M152.99 31.5742V43.5983H151.938L144.18 33.8451V43.5983H142.909V31.5742H143.961L151.733 41.3274V31.5742H152.99Z" fill="white"/>
<path d="M157.927 31.5742H159.198V43.5983H157.927V31.5742Z" fill="white"/>
<path d="M166.167 42.9141C165.203 42.3901 164.458 41.6622 163.903 40.7306C163.362 39.7989 163.085 38.7508 163.085 37.6008C163.085 36.4508 163.362 35.4027 163.903 34.4711C164.443 33.5394 165.203 32.8116 166.167 32.2875C167.132 31.7635 168.213 31.5015 169.411 31.5015C170.302 31.5015 171.134 31.647 171.894 31.9527C172.654 32.2439 173.297 32.6806 173.823 33.2629L173.019 34.0635C172.069 33.1173 170.886 32.6369 169.454 32.6369C168.505 32.6369 167.628 32.8553 166.854 33.292C166.08 33.7287 165.466 34.3255 165.013 35.0825C164.575 35.8394 164.356 36.6837 164.356 37.6299C164.356 38.5761 164.575 39.4205 165.013 40.1774C165.451 40.9344 166.065 41.5312 166.854 41.9679C167.628 42.4046 168.505 42.623 169.454 42.623C170.901 42.623 172.099 42.1426 173.019 41.1818L173.823 41.9825C173.297 42.5502 172.654 42.9869 171.88 43.2926C171.12 43.5983 170.287 43.7439 169.381 43.7439C168.198 43.7002 167.117 43.4382 166.167 42.9141Z" fill="white"/>
<path d="M178.249 43.2779C177.431 42.9867 176.788 42.6082 176.35 42.1424L176.847 41.1671C177.285 41.6038 177.869 41.9532 178.585 42.2298C179.316 42.4918 180.061 42.6374 180.821 42.6374C181.902 42.6374 182.705 42.4336 183.246 42.0405C183.786 41.6475 184.049 41.138 184.049 40.4975C184.049 40.0171 183.903 39.6386 183.611 39.3475C183.319 39.0563 182.954 38.838 182.53 38.6924C182.106 38.5323 181.507 38.3722 180.748 38.1829C179.842 37.95 179.111 37.7317 178.571 37.5279C178.03 37.3241 177.563 36.9893 177.183 36.5525C176.803 36.1158 176.598 35.5336 176.598 34.7766C176.598 34.1652 176.759 33.612 177.081 33.1171C177.402 32.6222 177.899 32.2146 178.556 31.9234C179.228 31.6323 180.046 31.4722 181.04 31.4722C181.726 31.4722 182.398 31.5741 183.07 31.7488C183.728 31.938 184.298 32.2 184.78 32.5348L184.341 33.5538C183.83 33.219 183.29 32.9715 182.72 32.8114C182.15 32.6513 181.58 32.5639 181.025 32.5639C179.973 32.5639 179.17 32.7677 178.644 33.1753C178.103 33.5829 177.84 34.107 177.84 34.7475C177.84 35.2279 177.986 35.6209 178.279 35.912C178.571 36.2032 178.936 36.4215 179.389 36.5817C179.827 36.7418 180.426 36.9019 181.171 37.0912C182.062 37.3095 182.778 37.5279 183.319 37.7317C183.859 37.95 184.327 38.2703 184.707 38.6924C185.087 39.1146 185.276 39.6969 185.276 40.4393C185.276 41.0506 185.116 41.6038 184.78 42.0988C184.458 42.5937 183.947 42.9867 183.275 43.2779C182.603 43.569 181.77 43.7146 180.777 43.7146C179.929 43.7 179.067 43.5544 178.249 43.2779Z" fill="white"/>
<path d="M119.549 22.7089L119.607 19.0551C118.76 19.0114 117.971 18.8368 117.255 18.502L115.414 21.8646C116.685 22.4032 118.059 22.6798 119.549 22.7089Z" fill="white"/>
<path d="M114.436 15.4888C114.158 14.7755 114.026 14.004 114.026 13.1597C114.026 12.0097 114.275 10.9907 114.786 10.1028C115.283 9.20022 115.999 8.50149 116.89 8.00655C117.796 7.51162 118.818 7.24959 119.958 7.24959C121.813 7.24959 123.362 7.97744 124.618 9.41858L127.379 6.88567C126.503 5.82301 125.407 5.02238 124.107 4.45466C122.807 3.88693 121.36 3.61035 119.753 3.61035C117.839 3.61035 116.13 4.01795 114.596 4.83314C113.062 5.64833 111.864 6.78377 110.988 8.23946C110.111 9.69516 109.673 11.3401 109.673 13.1597C109.673 14.63 109.965 15.9838 110.535 17.2066L114.436 15.4888Z" fill="white"/>
<path d="M123.187 18.1527L125.217 21.2824C126.035 20.7875 126.766 20.1615 127.379 19.4191L124.618 16.8862C124.18 17.3957 123.698 17.8179 123.187 18.1527Z" fill="white"/>
<path d="M122.427 18.5601C121.828 18.8366 121.17 18.9968 120.469 19.0404L120.776 22.6651C121.974 22.5632 123.084 22.3012 124.092 21.8645C124.092 21.8645 124.092 21.8645 124.107 21.8645L122.427 18.5601Z" fill="white"/>
<path d="M116.51 18.08C115.809 17.6141 115.239 17.0173 114.815 16.2749L111.178 18.342C111.981 19.5648 113.019 20.5546 114.319 21.3116L116.51 18.08Z" fill="white"/>
</svg>
