<svg width="144" height="89" viewBox="0 0 144 89" fill="none" xmlns="http://www.w3.org/2000/svg">
<path d="M79.414 12.4447H81.1267L86.0081 7.56339L86.2478 5.49096C83.4515 3.0228 80.0721 1.30826 76.4289 0.509297C72.7857 -0.289668 68.9989 -0.14668 65.4263 0.924753C61.8538 1.99619 58.6133 3.96069 56.011 6.6327C53.4088 9.30471 51.5307 12.596 50.5541 16.1957C51.0979 15.9728 51.7003 15.9366 52.2668 16.0929L62.0295 14.4829C62.0295 14.4829 62.5262 13.6608 62.7831 13.7122C64.875 11.4148 67.7658 10.0039 70.8639 9.76827C73.962 9.53265 77.033 10.4901 79.4482 12.4447H79.414Z" fill="#EA4335"/>
<path d="M92.9617 16.1949C91.8397 12.0631 89.5361 8.34869 86.3334 5.50732L79.4824 12.3583C80.9102 13.525 82.0545 15.0007 82.8288 16.674C83.6032 18.3474 83.9875 20.1748 83.9527 22.0183V23.2343C84.7534 23.2343 85.5463 23.392 86.286 23.6985C87.0258 24.0049 87.698 24.454 88.2642 25.0202C88.8304 25.5864 89.2795 26.2586 89.5859 26.9984C89.8924 27.7381 90.0501 28.531 90.0501 29.3317C90.0501 30.1325 89.8924 30.9253 89.5859 31.6651C89.2795 32.4049 88.8304 33.0771 88.2642 33.6433C87.698 34.2095 87.0258 34.6586 86.286 34.965C85.5463 35.2714 84.7534 35.4291 83.9527 35.4291H71.7579L70.5418 36.6623V43.9758L71.7579 45.1918H83.9527C87.358 45.2184 90.6815 44.1481 93.4314 42.1393C96.1813 40.1306 98.2117 37.29 99.2221 34.0379C100.232 30.7858 100.169 27.2948 99.0418 24.0814C97.9144 20.868 95.7826 18.1028 92.9617 16.1949Z" fill="#4285F4"/>
<path d="M59.5459 45.1247H71.7407V35.362H59.5459C58.6771 35.3619 57.8184 35.1749 57.0282 34.814L55.3154 35.3449L50.3998 40.2263L49.9716 41.939C52.7282 44.0205 56.0918 45.1397 59.5459 45.1247Z" fill="#34A853"/>
<path d="M59.5459 13.4552C56.2417 13.4749 53.0262 14.5262 50.3484 16.4621C47.6707 18.398 45.6644 21.122 44.6099 24.2534C43.5554 27.3849 43.5053 30.7676 44.4665 33.9289C45.4278 37.0903 47.3524 39.8725 49.9716 41.8869L57.0453 34.8132C56.1464 34.4071 55.3594 33.7889 54.7519 33.0118C54.1444 32.2347 53.7346 31.3218 53.5575 30.3514C53.3804 29.381 53.4413 28.3822 53.7351 27.4405C54.0289 26.4989 54.5468 25.6426 55.2443 24.9451C55.9417 24.2476 56.798 23.7297 57.7397 23.4359C58.6813 23.1421 59.6802 23.0812 60.6505 23.2583C61.6209 23.4354 62.5338 23.8453 63.311 24.4528C64.0881 25.0603 64.7063 25.8472 65.1124 26.7462L72.186 19.6725C70.7014 17.7315 68.7878 16.1603 66.595 15.0817C64.4022 14.0032 61.9896 13.4465 59.5459 13.4552Z" fill="#FBBC05"/>
<path d="M9.98613 83.2793C8.67976 83.2959 7.38347 83.0487 6.17491 82.5525C4.96635 82.0562 3.87038 81.3211 2.95266 80.3913C2.00604 79.5009 1.25482 78.4234 0.746659 77.2273C0.238496 76.0312 -0.0155194 74.7425 0.000733473 73.4431C-0.0148697 72.1437 0.239438 70.8552 0.747562 69.6592C1.25569 68.4632 2.00656 67.3857 2.95266 66.4948C3.86589 65.5553 4.95983 64.8104 6.16861 64.3049C7.37738 63.7994 8.67596 63.5439 9.98613 63.5536C11.2345 63.5369 12.4737 63.7686 13.6318 64.2351C14.7899 64.7016 15.8436 65.3937 16.7319 66.271L14.835 68.1999C13.5359 66.9445 11.7925 66.2548 9.98613 66.2817C9.0491 66.2702 8.11993 66.4537 7.25765 66.8207C6.39538 67.1876 5.61886 67.7299 4.97745 68.4131C4.31083 69.0744 3.78495 69.8638 3.43148 70.7337C3.07801 71.6037 2.90426 72.5362 2.92069 73.475C2.91287 74.4032 3.09081 75.3235 3.44403 76.1819C3.79725 77.0402 4.31862 77.8192 4.97745 78.4731C6.29714 79.7882 8.07801 80.5364 9.941 80.5582C11.804 80.5801 13.602 79.8741 14.9522 78.5903C15.7881 77.6749 16.3009 76.5107 16.4122 75.276H10.0181V72.5479H19.0657C19.1546 73.0973 19.1903 73.6541 19.1723 74.2103C19.2285 75.3617 19.0507 76.5125 18.6496 77.5932C18.2484 78.6739 17.6323 79.662 16.8384 80.4978C15.9558 81.4168 14.8893 82.1395 13.7087 82.6187C12.528 83.098 11.2596 83.3231 9.98613 83.2793ZM31.0226 81.4676C29.8084 82.6315 28.1914 83.2813 26.5094 83.2813C24.8275 83.2813 23.2105 82.6315 21.9963 81.4676C21.392 80.8816 20.916 80.1764 20.5986 79.3968C20.2812 78.6171 20.1294 77.78 20.1527 76.9385C20.13 76.0971 20.2822 75.2602 20.5995 74.4806C20.9169 73.701 21.3925 72.9957 21.9963 72.4094C23.2118 71.2479 24.8283 70.5997 26.5094 70.5997C28.1906 70.5997 29.8071 71.2479 31.0226 72.4094C31.6264 72.9957 32.102 73.701 32.4194 74.4806C32.7367 75.2602 32.8889 76.0971 32.8662 76.9385C32.8881 77.7807 32.7346 78.6183 32.4154 79.3981C32.0962 80.1778 31.6182 80.8826 31.0119 81.4676H31.0226ZM23.9891 79.6879C24.3121 80.0328 24.7024 80.3078 25.1359 80.4957C25.5695 80.6837 26.0369 80.7807 26.5094 80.7807C26.982 80.7807 27.4494 80.6837 27.883 80.4957C28.3165 80.3078 28.7068 80.0328 29.0298 79.6879C29.3819 79.324 29.6576 78.8932 29.8407 78.421C30.0237 77.9488 30.1103 77.4447 30.0955 76.9385C30.1112 76.4306 30.0249 75.9246 29.8419 75.4506C29.6589 74.9765 29.3827 74.544 29.0298 74.1784C28.7025 73.837 28.3096 73.5654 27.8746 73.3798C27.4397 73.1942 26.9717 73.0986 26.4988 73.0986C26.0259 73.0986 25.5579 73.1942 25.1229 73.3798C24.688 73.5654 24.2951 73.837 23.9678 74.1784C23.6149 74.544 23.3387 74.9765 23.1557 75.4506C22.9726 75.9246 22.8864 76.4306 22.9021 76.9385C22.8887 77.4454 22.977 77.95 23.1618 78.4222C23.3467 78.8945 23.6244 79.3248 23.9785 79.6879H23.9891ZM44.8977 81.4676C43.6835 82.6315 42.0665 83.2813 40.3846 83.2813C38.7026 83.2813 37.0856 82.6315 35.8714 81.4676C35.2671 80.8816 34.7911 80.1764 34.4737 79.3968C34.1564 78.6171 34.0045 77.78 34.0278 76.9385C34.0051 76.0971 34.1573 75.2602 34.4746 74.4806C34.792 73.701 35.2676 72.9957 35.8714 72.4094C37.0856 71.2454 38.7026 70.5956 40.3846 70.5956C42.0665 70.5956 43.6835 71.2454 44.8977 72.4094C45.5015 72.9957 45.9772 73.701 46.2945 74.4806C46.6118 75.2602 46.764 76.0971 46.7413 76.9385C46.7646 77.78 46.6128 78.6171 46.2954 79.3968C45.978 80.1764 45.5021 80.8816 44.8977 81.4676ZM37.8642 79.6879C38.1872 80.0328 38.5775 80.3078 39.011 80.4957C39.4446 80.6837 39.9121 80.7807 40.3846 80.7807C40.8571 80.7807 41.3246 80.6837 41.7581 80.4957C42.1916 80.3078 42.5819 80.0328 42.9049 79.6879C43.257 79.324 43.5328 78.8932 43.7158 78.421C43.8988 77.9488 43.9854 77.4447 43.9706 76.9385C43.9863 76.4306 43.9001 75.9246 43.717 75.4506C43.534 74.9765 43.2578 74.544 42.9049 74.1784C42.5776 73.837 42.1847 73.5654 41.7498 73.3798C41.3148 73.1942 40.8468 73.0986 40.3739 73.0986C39.901 73.0986 39.433 73.1942 38.9981 73.3798C38.5631 73.5654 38.1702 73.837 37.8429 74.1784C37.49 74.544 37.2138 74.9765 37.0308 75.4506C36.8477 75.9246 36.7615 76.4306 36.7772 76.9385C36.7638 77.4454 36.8521 77.95 37.037 78.4222C37.2218 78.8945 37.4995 79.3248 37.8536 79.6879H37.8642ZM54.0199 88.97C52.7426 89.0106 51.49 88.6119 50.4712 87.8404C49.5666 87.1603 48.8542 86.257 48.4038 85.2188L50.8335 84.2064C51.0979 84.8268 51.5116 85.3723 52.0377 85.7943C52.6009 86.2482 53.3075 86.4863 54.0306 86.4656C54.489 86.4935 54.9482 86.4223 55.3766 86.2568C55.8051 86.0913 56.1929 85.8354 56.5136 85.5065C57.1556 84.7321 57.4726 83.739 57.3981 82.7358V81.8193H57.3022C56.8961 82.3016 56.3832 82.6827 55.8043 82.9325C55.2253 83.1822 54.5961 83.2936 53.9666 83.258C53.1665 83.2604 52.3746 83.0968 51.6409 82.7777C50.9072 82.4585 50.2476 81.9907 49.7039 81.4037C49.1139 80.8214 48.6482 80.1254 48.335 79.3579C48.0218 78.5904 47.8675 77.7673 47.8816 76.9385C47.8669 76.1048 48.0207 75.2767 48.3339 74.5039C48.647 73.7312 49.113 73.0296 49.7039 72.4413C50.2463 71.8519 50.9053 71.3817 51.6392 71.0606C52.373 70.7396 53.1656 70.5747 53.9666 70.5764C54.6445 70.5752 55.3142 70.7244 55.9275 71.0133C56.458 71.245 56.931 71.5906 57.3128 72.0257H57.4088V71.0133H60.0516V82.3628C60.1212 83.2606 60.0068 84.1632 59.7155 85.0152C59.4241 85.8673 58.9619 86.6509 58.3572 87.3182C57.7812 87.8692 57.1006 88.2993 56.3557 88.583C55.6108 88.8667 54.8165 88.9983 54.0199 88.97ZM54.2117 80.7856C54.6668 80.7956 55.1185 80.7053 55.5347 80.5211C55.9509 80.3369 56.3215 80.0634 56.6202 79.7199C57.2777 78.9664 57.6243 77.9912 57.5899 76.9918C57.6294 75.9754 57.283 74.9818 56.6202 74.2103C56.322 73.8663 55.9515 73.5923 55.5351 73.4081C55.1188 73.2239 54.6669 73.1339 54.2117 73.1447C53.7442 73.1351 53.2801 73.2251 52.8501 73.4089C52.4201 73.5926 52.0342 73.8659 51.718 74.2103C51.0131 74.9541 50.6301 75.946 50.6524 76.9705C50.6415 77.473 50.7301 77.9727 50.913 78.4409C51.0959 78.909 51.3694 79.3365 51.718 79.6986C52.0327 80.0464 52.4178 80.3232 52.8478 80.5107C53.2778 80.6981 53.7427 80.7918 54.2117 80.7856ZM64.7513 64.2676V82.8956H61.9698V64.2676H64.7513ZM72.3815 83.2793C71.5485 83.3007 70.7201 83.1499 69.9481 82.8363C69.1761 82.5227 68.4771 82.0532 67.895 81.457C67.3043 80.8651 66.8401 80.1594 66.5305 79.3827C66.2209 78.6059 66.0724 77.7744 66.094 76.9385C66.0625 76.1005 66.2001 75.2648 66.4985 74.4812C66.7969 73.6976 67.2501 72.9821 67.8311 72.3774C68.3785 71.8003 69.0405 71.3439 69.7745 71.0374C70.5085 70.731 71.2985 70.5812 72.0938 70.5977C72.8251 70.59 73.5503 70.7314 74.2251 71.0133C74.833 71.2587 75.3869 71.6207 75.8556 72.079C76.2581 72.4675 76.6155 72.9 76.9213 73.3685C77.1686 73.764 77.3791 74.1813 77.55 74.6153L77.8378 75.34L69.3124 78.846C69.5702 79.4385 70.0015 79.9389 70.5494 80.2813C71.0972 80.6237 71.736 80.7921 72.3815 80.7643C73.0095 80.766 73.6273 80.6049 74.1745 80.2967C74.7218 79.9886 75.1798 79.5438 75.5039 79.0059L77.6353 80.4446C77.0914 81.2227 76.3953 81.8825 75.5892 82.3841C74.6305 82.9898 73.5153 83.301 72.3815 83.2793ZM68.8222 76.7467L74.4916 74.3915C74.3169 73.9762 74.0045 73.6338 73.607 73.4217C73.162 73.1704 72.6582 73.0417 72.1471 73.0488C71.2798 73.0712 70.4564 73.435 69.8559 74.0612C69.4965 74.4051 69.2175 74.8241 69.0388 75.2883C68.8601 75.7526 68.7861 76.2505 68.8222 76.7467Z" fill="#5F6368"/>
<path d="M92.4056 83.2793C91.2227 83.2997 90.0479 83.0809 88.9517 82.636C87.8555 82.1911 86.8605 81.5292 86.0264 80.6902C85.1923 79.8511 84.5364 78.8522 84.098 77.7534C83.6596 76.6545 83.4478 75.4784 83.4753 74.2957C83.4478 73.1129 83.6596 71.9368 84.098 70.8379C84.5364 69.7391 85.1923 68.7402 86.0264 67.9011C86.8605 67.0621 87.8555 66.4002 88.9517 65.9553C90.0479 65.5104 91.2227 65.2916 92.4056 65.312C93.6029 65.2746 94.7931 65.5082 95.8874 65.9953C96.9817 66.4825 97.9517 67.2106 98.7251 68.1254L97.1905 69.6173C96.6228 68.9032 95.8945 68.3332 95.0649 67.9536C94.2353 67.5739 93.3278 67.3955 92.4163 67.4327C91.5388 67.4129 90.6664 67.5708 89.8514 67.8967C89.0365 68.2227 88.2958 68.7101 87.674 69.3296C87.0276 69.9797 86.5225 70.7564 86.1905 71.611C85.8586 72.4656 85.707 73.3796 85.7452 74.2957C85.707 75.2117 85.8586 76.1257 86.1905 76.9803C86.5225 77.8349 87.0276 78.6116 87.674 79.2617C88.2958 79.8812 89.0365 80.3686 89.8514 80.6946C90.6664 81.0205 91.5388 81.1784 92.4163 81.1586C93.4347 81.17 94.4427 80.9518 95.3652 80.52C96.2876 80.0883 97.101 79.4542 97.7447 78.6649L99.2793 80.1995C98.4758 81.1603 97.467 81.9287 96.3273 82.4481C95.0988 83.0153 93.7586 83.2993 92.4056 83.2793Z" fill="#5F6368"/>
<path d="M103.403 82.8958H101.197V65.6851H103.403V82.8958Z" fill="#5F6368"/>
<path d="M107.005 72.5373C108.161 71.3894 109.724 70.7451 111.353 70.7451C112.982 70.7451 114.545 71.3894 115.701 72.5373C116.267 73.1341 116.708 73.8368 117.001 74.605C117.294 75.3731 117.431 76.1915 117.406 77.0132C117.431 77.8348 117.294 78.6532 117.001 79.4214C116.708 80.1895 116.267 80.8922 115.701 81.489C114.545 82.637 112.982 83.2812 111.353 83.2812C109.724 83.2812 108.161 82.637 107.005 81.489C106.44 80.8922 105.999 80.1895 105.706 79.4214C105.413 78.6532 105.275 77.8348 105.3 77.0132C105.275 76.1915 105.413 75.3731 105.706 74.605C105.999 73.8368 106.44 73.1341 107.005 72.5373ZM108.647 80.1036C108.994 80.471 109.413 80.7635 109.877 80.9635C110.342 81.1635 110.842 81.2666 111.348 81.2666C111.854 81.2666 112.354 81.1635 112.819 80.9635C113.283 80.7635 113.702 80.471 114.05 80.1036C114.435 79.6899 114.735 79.2036 114.93 78.673C115.126 78.1424 115.214 77.5782 115.19 77.0132C115.214 76.4482 115.126 75.8839 114.93 75.3533C114.735 74.8228 114.435 74.3364 114.05 73.9227C113.702 73.5554 113.283 73.2628 112.819 73.0628C112.354 72.8629 111.854 72.7598 111.348 72.7598C110.842 72.7598 110.342 72.8629 109.877 73.0628C109.413 73.2628 108.994 73.5554 108.647 73.9227C108.261 74.3364 107.962 74.8228 107.766 75.3533C107.57 75.8839 107.482 76.4482 107.506 77.0132C107.485 77.5772 107.575 78.1398 107.773 78.6685C107.97 79.1972 108.271 79.6814 108.657 80.093L108.647 80.1036Z" fill="#5F6368"/>
<path d="M129.63 82.8959H127.498V81.2655H127.434C127.055 81.8847 126.518 82.3922 125.878 82.7361C125.215 83.1208 124.461 83.323 123.694 83.3222C123.071 83.3648 122.446 83.2662 121.867 83.0337C121.288 82.8012 120.768 82.4408 120.348 81.9795C119.54 80.9584 119.135 79.6771 119.207 78.3775V71.1309H121.413V77.9725C121.413 80.1678 122.383 81.2655 124.323 81.2655C124.753 81.2789 125.181 81.1892 125.571 81.0038C125.96 80.8185 126.299 80.5428 126.56 80.1998C127.132 79.4752 127.437 78.5757 127.424 77.6528V71.1309H129.63V82.8959Z" fill="#5F6368"/>
<path d="M137.121 83.2794C136.373 83.2819 135.633 83.1222 134.952 82.8113C134.272 82.5004 133.666 82.0456 133.178 81.4784C132.073 80.2581 131.482 78.6587 131.527 77.0132C131.482 75.3677 132.073 73.7683 133.178 72.548C133.666 71.9808 134.272 71.5261 134.952 71.2152C135.633 70.9043 136.373 70.7445 137.121 70.747C137.96 70.7338 138.788 70.9317 139.53 71.3225C140.182 71.6505 140.734 72.1473 141.128 72.7612H141.224L141.128 71.1307V65.6851H143.334V82.8958H141.203V81.2653H141.107C140.712 81.8791 140.16 82.3759 139.508 82.7039C138.773 83.0913 137.953 83.2891 137.121 83.2794ZM137.484 81.2653C137.982 81.2725 138.477 81.1737 138.934 80.9752C139.392 80.7768 139.802 80.4833 140.137 80.1143C140.887 79.2611 141.269 78.1469 141.203 77.0132C141.269 75.8796 140.887 74.7653 140.137 73.9121C139.8 73.5411 139.388 73.2447 138.929 73.0418C138.471 72.839 137.975 72.7342 137.473 72.7342C136.971 72.7342 136.475 72.839 136.017 73.0418C135.558 73.2447 135.146 73.5411 134.809 73.9121C134.437 74.3318 134.151 74.8208 133.968 75.3511C133.785 75.8814 133.709 76.4426 133.743 77.0026C133.709 77.5625 133.785 78.1237 133.968 78.654C134.151 79.1843 134.437 79.6734 134.809 80.093C135.145 80.4686 135.557 80.7677 136.019 80.9699C136.48 81.1722 136.98 81.2729 137.484 81.2653Z" fill="#5F6368"/>
</svg>
