<svg width="159" height="22" viewBox="0 0 159 22" fill="none" xmlns="http://www.w3.org/2000/svg">
<mask id="mask0_614_155" style="mask-type:luminance" maskUnits="userSpaceOnUse" x="0" y="0" width="151" height="22">
<path d="M150.341 0H0V21.6888H150.341V0Z" fill="white"/>
</mask>
<g mask="url(#mask0_614_155)">
<path d="M0 1.5817V19.5632C0 20.6507 0.633689 21.145 1.85361 21.145H18.8505C20.026 21.145 20.7031 20.6507 20.7031 19.5632C20.7031 18.5242 20.026 17.9815 18.8505 17.9815H4.24897C3.66174 17.9815 3.43536 17.7106 3.43536 17.1679V1.5817C3.43616 1.36208 3.39123 1.14469 3.30341 0.943393C3.21559 0.742091 3.0868 0.561282 2.92527 0.412485C2.76373 0.263688 2.57298 0.150164 2.36515 0.0791381C2.15733 0.00811259 1.93699 -0.0188562 1.71817 -4.93038e-05C1.50013 -0.0149819 1.28133 0.0146772 1.07514 0.087118C0.86894 0.159559 0.679676 0.27326 0.518885 0.421283C0.358095 0.569306 0.229155 0.748545 0.139941 0.948058C0.0507276 1.14757 0.00311611 1.36317 0 1.5817Z" fill="white"/>
<path d="M29.2008 13.2632V1.58194C29.1664 1.14999 28.9706 0.746851 28.6522 0.452858C28.3339 0.158866 27.9165 -0.00439453 27.4832 -0.00439453C27.0499 -0.00439453 26.6325 0.158866 26.3142 0.452858C25.9959 0.746851 25.8 1.14999 25.7656 1.58194V13.5795C25.7656 20.8576 30.2853 21.686 38.1057 21.686C45.9261 21.686 50.4458 20.8556 50.4458 13.5795V1.58194C50.4114 1.14999 50.2155 0.746851 49.8972 0.452858C49.5788 0.158866 49.1615 -0.00439453 48.7282 -0.00439453C48.2948 -0.00439453 47.8775 0.158866 47.5591 0.452858C47.2408 0.746851 47.0449 1.14999 47.0105 1.58194V13.2632C47.0105 19.1849 43.8472 18.3881 38.1057 18.3881C32.3642 18.3881 29.2008 19.0939 29.2008 13.2632Z" fill="white"/>
<path d="M83.9398 5.28898V19.8381C83.939 20.0577 83.9839 20.2751 84.0718 20.4764C84.1596 20.6777 84.2883 20.8585 84.4499 21.0073C84.6114 21.1561 84.8022 21.2697 85.01 21.3407C85.2178 21.4117 85.4381 21.4387 85.6569 21.4199C85.8766 21.4426 86.0985 21.4184 86.3081 21.3489C86.5177 21.2793 86.7101 21.166 86.8726 21.0164C87.035 20.8668 87.1639 20.6844 87.2505 20.4813C87.3371 20.2781 87.3795 20.0589 87.375 19.8381V2.34989C87.3918 2.05154 87.3483 1.75287 87.2472 1.47169C87.1461 1.19051 86.9894 0.93257 86.7864 0.713268C86.5834 0.493965 86.3384 0.317787 86.0659 0.195242C85.7933 0.0726971 85.4989 0.00629795 85.2002 0C84.0139 0 83.4969 0.671255 82.3532 1.71719L73.5838 10.3694H73.5383L64.7689 1.76267C63.6449 0.605021 62.7918 0 61.7854 0C61.1927 0.0527428 60.6399 0.321084 60.2318 0.754181C59.8237 1.18728 59.5886 1.75504 59.5711 2.34989V19.8381C59.5702 20.0577 59.6152 20.2751 59.703 20.4764C59.7908 20.6777 59.9196 20.8585 60.0811 21.0073C60.2427 21.1561 60.4334 21.2697 60.6412 21.3407C60.849 21.4117 61.0694 21.4387 61.2882 21.4199C61.5078 21.4426 61.7298 21.4184 61.9394 21.3489C62.149 21.2793 62.3414 21.166 62.5038 21.0164C62.6663 20.8668 62.7951 20.6844 62.8817 20.4813C62.9684 20.2781 63.0108 20.0589 63.0063 19.8381V5.24351H63.1872L71.5493 13.172C72.3016 13.9095 72.8868 14.4829 73.4928 14.4829C74.254 14.4829 74.6445 13.8898 75.4818 13.172L83.7994 5.28898H83.9398Z" fill="white"/>
<path d="M117.48 1.89822C117.48 0.85921 116.848 0.270996 115.627 0.270996H98.4488C97.2289 0.270996 96.5962 0.864153 96.5962 1.89822V3.47404L115.676 3.43549C116.851 3.43549 117.484 2.89275 117.484 1.89822" fill="white"/>
<path d="M96.5933 9.19824V19.5637C96.5933 20.6511 97.226 21.1454 98.4469 21.1454H115.805C116.98 21.1454 117.613 20.6511 117.613 19.5637C117.613 18.5237 116.98 17.9819 115.805 17.9819H100.844C100.257 17.9819 100.031 17.71 100.031 17.1683V12.4043H111.331C112.552 12.4043 113.185 11.8615 113.185 10.8225C113.185 9.83391 112.552 9.24075 111.331 9.24075L96.5933 9.19824Z" fill="white"/>
<path d="M150.341 19.3824V1.58179C150.338 1.3633 150.29 1.14772 150.201 0.948215C150.112 0.748706 149.983 0.569455 149.823 0.421418C149.662 0.27338 149.473 0.159666 149.267 0.0872148C149.06 0.0147636 148.842 -0.0149004 148.624 3.61758e-05C148.405 -0.0189158 148.184 0.00794321 147.976 0.0789031C147.768 0.149863 147.578 0.263366 147.416 0.412178C147.254 0.56099 147.125 0.741847 147.038 0.943222C146.95 1.1446 146.905 1.36207 146.906 1.58179V15.9925L129.907 1.71722C128.738 0.73555 128.087 3.61758e-05 126.969 3.61758e-05C125.744 3.61758e-05 124.936 0.813648 124.936 2.34992V19.8382C124.939 20.0566 124.987 20.2722 125.076 20.4717C125.165 20.6712 125.294 20.8505 125.454 20.9985C125.615 21.1466 125.804 21.2603 126.01 21.3327C126.216 21.4052 126.435 21.4348 126.653 21.4199C126.872 21.4389 127.092 21.412 127.3 21.341C127.508 21.2701 127.699 21.1566 127.861 21.0078C128.022 20.859 128.151 20.6781 128.239 20.4767C128.327 20.2754 128.372 20.0579 128.371 19.8382V5.1081L145.186 19.5633C146.312 20.5203 147.093 21.4169 148.26 21.4169C148.531 21.4262 148.802 21.3802 149.055 21.2818C149.309 21.1834 149.539 21.0345 149.734 20.8443C149.928 20.6541 150.081 20.4264 150.185 20.1751C150.288 19.9239 150.34 19.6542 150.336 19.3824" fill="white"/>
</g>
<path d="M152.736 2.88291V2.86709C152.728 2.50611 152.792 2.14718 152.925 1.81129C153.057 1.4754 153.255 1.16929 153.507 0.910848C153.76 0.652405 154.061 0.446818 154.393 0.306104C154.726 0.165391 155.083 0.0923714 155.444 0.0913201C155.805 0.0902688 156.163 0.161205 156.496 0.29998C156.829 0.438755 157.132 0.642583 157.385 0.899554C157.639 1.15652 157.839 1.46148 157.973 1.79659C158.108 2.1317 158.174 2.49025 158.168 2.85127V2.86709C158.176 3.22807 158.112 3.587 157.98 3.92289C157.847 4.25878 157.649 4.56489 157.397 4.82333C157.145 5.08178 156.844 5.28736 156.511 5.42808C156.178 5.56879 155.821 5.64181 155.46 5.64286C155.099 5.64391 154.742 5.57298 154.408 5.4342C154.075 5.29543 153.773 5.09159 153.519 4.83462C153.265 4.57765 153.065 4.2727 152.931 3.93759C152.797 3.60247 152.73 3.24393 152.736 2.88291ZM157.856 2.86709V2.85127C157.861 2.53154 157.803 2.21395 157.684 1.9171C157.565 1.62024 157.388 1.35009 157.163 1.12246C156.939 0.894829 156.671 0.714287 156.376 0.591406C156.081 0.468526 155.764 0.405777 155.444 0.406829C155.124 0.407881 154.808 0.472714 154.514 0.597534C154.219 0.722355 153.953 0.904655 153.729 1.13376C153.506 1.36286 153.331 1.63417 153.214 1.9318C153.097 2.22943 153.041 2.54739 153.048 2.86709V2.88291C153.043 3.20264 153.102 3.52023 153.22 3.81709C153.339 4.11394 153.516 4.38409 153.741 4.61172C153.965 4.83935 154.233 5.01989 154.528 5.14277C154.824 5.26565 155.14 5.3284 155.46 5.32735C155.78 5.3263 156.096 5.26147 156.391 5.13665C156.685 5.01183 156.952 4.82953 157.175 4.60042C157.398 4.37132 157.573 4.10001 157.69 3.80238C157.807 3.50475 157.863 3.18678 157.856 2.86709ZM154.391 1.43165H155.639C156.248 1.43165 156.701 1.72823 156.701 2.30557C156.709 2.49851 156.649 2.6881 156.532 2.84179C156.415 2.99548 156.249 3.10369 156.061 3.14785L156.795 4.19379H156.155L155.499 3.24177H154.918V4.19379H154.387L154.391 1.43165ZM155.593 2.80481C155.952 2.80481 156.155 2.61796 156.155 2.35203C156.155 2.05545 155.957 1.89925 155.593 1.89925H154.918V2.80481H155.593Z" fill="white"/>
</svg>
