<svg width="146" height="33" viewBox="0 0 146 33" fill="none" xmlns="http://www.w3.org/2000/svg">
<path d="M123.232 31.9481H130.407V18.8288C130.407 15.8363 132.155 13.7185 134.73 13.7185C137.214 13.7185 138.502 15.4683 138.502 17.9543V31.9484H145.677V16.5735C145.677 11.371 142.55 7.68826 137.49 7.68826C134.271 7.68826 132.017 9.06951 130.315 11.6013H130.177V8.37901H123.232V31.9481H123.232ZM109.158 7.73427C101.66 7.73427 96.6475 13.1203 96.6475 20.2096C96.6475 27.2531 101.661 32.6851 109.158 32.6851C116.655 32.6851 121.668 27.2531 121.668 20.2096C121.668 13.12 116.655 7.73427 109.158 7.73427ZM109.112 27.3909C105.708 27.3909 103.915 24.5371 103.915 20.2096C103.915 15.8363 105.708 13.028 109.112 13.028C112.515 13.028 114.401 15.8361 114.401 20.2096C114.401 24.5371 112.515 27.3909 109.112 27.3909ZM76.2257 31.9481H96.3713V26.2863H84.9649V26.1476L95.8655 13.9026V8.37901H76.2257V14.0408H87.2644V14.179L76.2257 26.5161V31.9481ZM67.0259 31.9481H74.2469V8.37901H67.0259V31.9481ZM50.2839 31.9481H57.4589V21.1306C57.4589 16.2046 60.4027 14.0408 64.91 14.6395H65.0481V8.42501C64.68 8.28676 64.2663 8.24076 63.5764 8.24076C60.7708 8.24076 58.885 9.52952 57.2749 12.2915H57.1367V8.37901H50.2839V31.9481ZM37.0838 27.4373C33.91 27.4373 31.9785 25.3651 31.6103 22.1896H48.5821C48.6281 17.1251 47.294 13.074 44.4884 10.5423C42.5111 8.70102 39.8889 7.68802 36.5775 7.68802C29.4949 7.68802 24.5731 13.074 24.5731 20.1173C24.5731 27.2064 29.2646 32.6384 37.0376 32.6384C39.9813 32.6384 42.3268 31.8559 44.2586 30.5206C46.3286 29.0944 47.8001 27.0221 48.2137 24.9508H41.3149C40.6252 26.5161 39.1992 27.4373 37.0838 27.4373ZM36.7156 12.8438C39.2452 12.8438 40.9929 14.7318 41.2689 17.4936H31.6562C32.2085 14.6851 33.726 12.8438 36.7156 12.8438ZM67.0259 0H74.2469V6.39902H67.0259V0Z" fill="#F50A23"/>
<path d="M16.1714 31.6553L7.24327 8.37939H0L8.92811 31.6553C8.99584 31.8328 9.1659 31.949 9.35507 31.949H16.5983C16.4092 31.949 16.2391 31.8328 16.1714 31.6553Z" fill="url(#paint0_radial_614_123)"/>
<path d="M9.78178 31.6553L18.7099 8.37939H25.9532L17.025 31.6553C16.9573 31.8328 16.7873 31.949 16.5981 31.949H9.35482C9.54423 31.949 9.71429 31.8328 9.78178 31.6553Z" fill="#F50A23"/>
<defs>
<radialGradient id="paint0_radial_614_123" cx="0" cy="0" r="1" gradientTransform="matrix(4.24326 -11.7628 12.7126 4.59871 15.1092 27.9026)" gradientUnits="userSpaceOnUse">
<stop stop-color="#F5FF1E"/>
<stop offset="0.257" stop-color="#F5FF1E"/>
<stop offset="0.2655" stop-color="#F5FA1E"/>
<stop offset="0.423" stop-color="#F5A620"/>
<stop offset="0.5621" stop-color="#F56321"/>
<stop offset="0.6779" stop-color="#F53322"/>
<stop offset="0.7657" stop-color="#F51523"/>
<stop offset="0.8155" stop-color="#F50A23"/>
</radialGradient>
</defs>
</svg>
