<svg width="53" height="42" viewBox="0 0 53 42" fill="none" xmlns="http://www.w3.org/2000/svg">
<path d="M51.6797 0.00379095H43.7042C42.9809 0.00379095 42.3916 0.583807 42.3916 1.30409V9.20444C42.3916 9.92093 41.8022 10.5047 41.0789 10.5047H33.0996C32.3763 10.5047 31.787 9.92472 31.787 9.20444V1.3003C31.787 0.583807 31.2015 0 30.4743 0H1.31266C0.58553 0.00379096 0 0.583807 0 1.3003V30.1988C0 30.9152 0.58553 31.4991 1.31266 31.4991H9.28811C10.0114 31.4991 10.6008 32.0791 10.6008 32.7994V40.6997C10.6008 41.4162 11.1863 42 11.9134 42H41.0866C41.8099 42 42.3992 41.42 42.3992 40.6997V11.8012C42.3992 11.0848 42.9848 10.5009 43.7119 10.5009H51.6873C52.4106 10.5009 53 9.92093 53 9.20065V1.3003C53 0.583807 52.4145 0 51.6873 0L51.6797 0.00379095ZM19.885 31.4991H11.9096C11.1863 31.4991 10.5969 30.9152 10.5969 30.1988V10.5009H30.482C31.2053 10.5009 31.7946 11.0848 31.7946 11.8012V31.4991H19.885Z" fill="#FFFAEB"/>
</svg>
