<svg width="31" height="32" viewBox="0 0 31 32" fill="none" xmlns="http://www.w3.org/2000/svg">
<path fill-rule="evenodd" clip-rule="evenodd" d="M10.2876 0.000130054V8.57265L12.8779 5.96124C13.0551 5.78464 13.3418 5.78464 13.5176 5.96269L16.105 8.57265L16.1064 0.000132175L10.2876 0.000130054ZM3.10034 18.6664C2.84967 18.6664 2.64652 18.4623 2.64652 18.2104C2.64652 17.9585 2.84966 17.7544 3.10034 17.7544H9.68133C9.932 17.7544 10.1351 17.9585 10.1351 18.2104C10.1351 18.4623 9.93201 18.6664 9.68133 18.6664H3.10034ZM3.10034 21.5644C2.84967 21.5644 2.64652 21.3603 2.64652 21.1084C2.64652 20.8565 2.84966 20.6524 3.10034 20.6524H9.68133C9.932 20.6524 10.1351 20.8565 10.1351 21.1084C10.1351 21.3603 9.93201 21.5644 9.68133 21.5644H3.10034ZM21.3375 20.1183C21.1387 19.9663 21.0998 19.6811 21.251 19.4813C21.4023 19.2816 21.6861 19.2425 21.8849 19.3945L23.0864 20.3123L24.8829 18.0613C25.04 17.8659 25.3252 17.834 25.5197 17.9918C25.7142 18.1496 25.7459 18.4362 25.5889 18.6317L23.5172 21.2271L23.5158 21.2257C23.363 21.4168 23.0864 21.4515 22.8905 21.3024L21.3375 20.1169L21.3375 20.1183ZM18.5354 26.4166L18.3351 26.8509C18.3279 26.8697 18.3193 26.8885 18.3092 26.9059L16.7144 30.3569L18.6578 30.1831C18.8235 30.1571 18.9964 30.2237 19.1001 30.3713L20.2396 31.9998L22.1298 27.909C22.016 27.8439 21.9079 27.7903 21.8157 27.7715C21.6673 27.7411 21.4527 27.7759 21.238 27.8106C20.8663 27.8714 20.4961 27.9308 20.1215 27.7715C19.7441 27.6108 19.5294 27.2996 19.3162 26.9898C19.1981 26.8176 19.0785 26.6439 18.9618 26.5657C18.8624 26.4977 18.7039 26.4557 18.5354 26.4166ZM17.622 26.2299L1.02717 26.2313C0.744802 26.2313 0.488378 26.1155 0.302536 25.9273C0.11669 25.7406 0 25.4815 0 25.1992V1.03214C0 0.74842 0.115252 0.490766 0.302536 0.304034C0.488381 0.117297 0.746247 4.70033e-05 1.02717 4.70033e-05H9.3799V9.6754H9.38134C9.38134 9.79265 9.426 9.90845 9.51532 9.9982C9.69252 10.1748 9.97921 10.1748 10.155 9.99675L13.1962 6.92939L16.2144 9.97359C16.2979 10.0706 16.4218 10.1328 16.5587 10.1328C16.8094 10.1328 17.0125 9.92872 17.0125 9.67683L17.0139 0H25.0786C25.361 0 25.6174 0.115805 25.8033 0.303986C25.9891 0.490723 26.1058 0.749826 26.1058 1.03209V11.9655C25.9401 11.9728 25.7745 12.0003 25.6088 12.0263C25.3941 12.0611 25.1794 12.0958 25.0311 12.0654C24.8856 12.035 24.7026 11.9221 24.5168 11.8078C24.184 11.6022 23.8483 11.3938 23.4233 11.3938C22.9983 11.3938 22.6627 11.6022 22.3299 11.8078C22.1455 11.9221 21.9611 12.0365 21.8156 12.0654C21.6672 12.0958 21.4525 12.0611 21.2379 12.0263C20.8662 11.9655 20.496 11.9062 20.1214 12.0654C19.744 12.2261 19.5293 12.5373 19.3161 12.8471C19.1979 13.0194 19.0784 13.1916 18.9617 13.2712C18.8421 13.3523 18.639 13.3972 18.4358 13.4435C18.0713 13.5246 17.7068 13.6056 17.423 13.8908C17.1392 14.176 17.0586 14.5422 16.9779 14.9084C16.9332 15.1125 16.8871 15.3166 16.8065 15.4368C16.7272 15.554 16.5558 15.6742 16.3844 15.7929C16.0761 16.0071 15.7663 16.2213 15.6064 16.6021C15.4479 16.9784 15.5084 17.3505 15.5675 17.7239C15.6021 17.9396 15.6367 18.1553 15.6064 18.3044C15.5761 18.4506 15.4638 18.6359 15.35 18.8212C15.1454 19.1555 14.9379 19.4928 14.9379 19.9198C14.9379 20.3468 15.1454 20.6841 15.35 21.0185C15.4638 21.2038 15.5776 21.3876 15.6064 21.5353C15.6367 21.6844 15.6021 21.9001 15.5675 22.1158C15.507 22.4892 15.4479 22.8612 15.6064 23.2376C15.7663 23.6168 16.076 23.8326 16.3844 24.0468C16.5558 24.1655 16.7272 24.2856 16.8065 24.4029C16.8871 24.523 16.9318 24.7271 16.9779 24.9312C17.0586 25.2975 17.1392 25.6637 17.423 25.9489C17.4994 26.0256 17.5815 26.0864 17.6665 26.1385L17.6233 26.2326L17.622 26.2299ZM25.1091 27.7614L27.067 32L28.2065 30.3715C28.3088 30.2253 28.4831 30.1573 28.6488 30.1833L30.5922 30.357L28.7266 26.3185C28.6214 26.3475 28.5148 26.3706 28.4082 26.3952C28.2051 26.4401 28.0019 26.4864 27.8824 26.5675C27.7657 26.6471 27.6461 26.8194 27.528 26.9916C27.3147 27.3014 27.1015 27.6126 26.7226 27.7733C26.3481 27.9325 25.9778 27.8717 25.6061 27.8124C25.4275 27.7834 25.2489 27.7545 25.1091 27.7632L25.1091 27.7614ZM24.2476 27.1302C24.2606 27.1215 24.275 27.1129 24.2909 27.1056C24.4652 27.0072 24.6453 26.9232 24.8484 26.8813C25.1581 26.8176 25.4549 26.8653 25.7488 26.9131C25.9937 26.9522 26.2372 26.9927 26.3726 26.9348C26.5066 26.8784 26.6449 26.6757 26.7832 26.4745C26.9517 26.2284 27.1203 25.9838 27.3753 25.8115C27.6303 25.6378 27.9228 25.5726 28.2138 25.5075C28.4457 25.4554 28.6791 25.4033 28.7799 25.3019C28.8808 25.2006 28.9327 24.9676 28.9845 24.733C29.0493 24.4406 29.1142 24.1482 29.2871 23.8906C29.4599 23.6344 29.7034 23.465 29.9469 23.2956C30.1471 23.1567 30.3488 23.0162 30.405 22.8831C30.4626 22.747 30.4223 22.5024 30.3834 22.2563C30.3359 21.9595 30.2883 21.6628 30.3517 21.3515C30.4137 21.0476 30.5693 20.7942 30.7263 20.5395C30.8617 20.318 31 20.0936 31 19.9185C31 19.7433 30.8631 19.5189 30.7263 19.2974C30.5692 19.0427 30.4137 18.7894 30.3517 18.4854C30.2883 18.1741 30.3359 17.876 30.3834 17.5806C30.4223 17.3346 30.4626 17.0899 30.405 16.9539C30.3488 16.8192 30.1471 16.6803 29.9469 16.5413C29.702 16.3719 29.4585 16.2026 29.2871 15.9463C29.1142 15.6901 29.0493 15.3963 28.9845 15.1039C28.9327 14.8708 28.8808 14.6363 28.7799 14.535C28.6791 14.4336 28.4457 14.3815 28.2138 14.3294C27.9227 14.2643 27.6317 14.1991 27.3753 14.0254C27.1203 13.8517 26.9518 13.6071 26.7832 13.3624C26.6535 13.1742 26.5239 12.9846 26.3985 12.9151C26.3827 12.9093 26.3683 12.9021 26.3539 12.8949C26.2156 12.8486 25.9836 12.8862 25.7502 12.9238C25.4549 12.9716 25.1596 13.0194 24.8498 12.9557C24.5473 12.8934 24.2952 12.7371 24.0416 12.5793C23.8212 12.4432 23.5979 12.3043 23.4236 12.3043C23.2492 12.3043 23.026 12.4418 22.8055 12.5793C22.552 12.7371 22.2999 12.8934 21.9973 12.9557C21.6876 13.0194 21.3908 12.9716 21.0969 12.9238C20.852 12.8847 20.6086 12.8442 20.4731 12.9021C20.3391 12.9586 20.2008 13.1612 20.0625 13.3624C19.894 13.6085 19.7254 13.8532 19.4704 14.0254C19.2154 14.1991 18.923 14.2643 18.632 14.3294C18.4 14.3815 18.1666 14.4336 18.0658 14.535C17.9649 14.6363 17.9131 14.8708 17.8612 15.1039C17.7964 15.3963 17.7316 15.6887 17.5587 15.9464C17.3858 16.2026 17.1423 16.3719 16.8988 16.5413C16.6986 16.6803 16.4969 16.8207 16.4407 16.9539C16.3831 17.0899 16.4234 17.3346 16.4623 17.5807C16.5099 17.8774 16.5574 18.1742 16.494 18.4854C16.4321 18.7894 16.2765 19.0427 16.1195 19.2975C15.984 19.5189 15.8457 19.7433 15.8457 19.9185C15.8457 20.0936 15.9826 20.318 16.1195 20.5395C16.2765 20.7943 16.4321 21.0476 16.494 21.3516C16.5574 21.6628 16.5099 21.961 16.4623 22.2563C16.4234 22.5024 16.3831 22.747 16.4407 22.8831C16.4969 23.0177 16.6986 23.1567 16.8988 23.2956C17.1437 23.465 17.3872 23.6344 17.5587 23.8906C17.7316 24.1468 17.7964 24.4407 17.8612 24.7331C17.9131 24.9661 17.9649 25.2006 18.0658 25.302C18.1277 25.3642 18.2401 25.4091 18.3712 25.4453C18.387 25.4482 18.4029 25.4525 18.4187 25.4583C18.4864 25.4757 18.5585 25.4916 18.6305 25.5075C18.9215 25.5727 19.2125 25.6378 19.469 25.8115C19.724 25.9852 19.8925 26.2298 20.0611 26.4745C20.1994 26.6757 20.3391 26.8784 20.4717 26.9348C20.6071 26.9927 20.8505 26.9522 21.0955 26.9131C21.3908 26.8653 21.6862 26.8176 21.9959 26.8813C22.2984 26.9435 22.5505 27.0998 22.8041 27.2576C22.843 27.2822 22.8819 27.3068 22.9208 27.33C22.9352 27.3372 22.9496 27.3459 22.9626 27.3546C23.1282 27.453 23.2896 27.5327 23.4207 27.5327C23.595 27.5327 23.8183 27.3951 24.0387 27.2576C24.1079 27.2142 24.1771 27.1722 24.2476 27.1302ZM26.2977 17.0291C25.5615 16.2894 24.5444 15.832 23.4221 15.832C22.2984 15.832 21.2828 16.2894 20.5466 17.0291C19.8104 17.7688 19.3552 18.7908 19.3552 19.9184C19.3552 21.0475 19.8104 22.0681 20.5466 22.8078C21.2828 23.5475 22.2999 24.0049 23.4221 24.0049C24.5459 24.0049 25.5615 23.5475 26.2977 22.8078C27.0339 22.0681 27.4891 21.0461 27.4891 19.9184C27.4891 18.7893 27.0339 17.7688 26.2977 17.0291ZM23.4221 14.92C22.0478 14.92 20.8045 15.4802 19.9041 16.3835C19.0037 17.2882 18.4476 18.5374 18.4476 19.9184C18.4476 21.298 19.0051 22.5487 19.9041 23.4534C20.8045 24.3581 22.0478 24.9169 23.4221 24.9169C24.7951 24.9169 26.0398 24.3567 26.9402 23.4534C27.8406 22.5487 28.3967 21.2994 28.3967 19.9184C28.3967 18.5374 27.8392 17.2882 26.9402 16.3835C26.0398 15.4788 24.7965 14.92 23.4221 14.92Z" fill="#FFFAEB"/>
</svg>
