<svg width="38" height="38" viewBox="0 0 38 38" fill="none" xmlns="http://www.w3.org/2000/svg">
<path d="M38 14.2606V8.53989C38 8.02165 37.5793 7.59976 37.0599 7.59976H31.3404C30.8209 7.59976 30.4002 7.17906 30.4002 6.65964V0.940129C30.4002 0.420707 29.9795 0 29.4601 0H8.54107C8.02165 0 7.60094 0.420707 7.60094 0.940129V6.65964C7.60094 7.17906 7.17906 7.59976 6.66081 7.59976H0.940129C0.421883 7.59976 0 8.02165 0 8.53989V29.4601C0 29.9795 0.421883 30.4002 0.940129 30.4002H6.66081C7.17906 30.4002 7.60094 30.8209 7.60094 31.3404V37.0599C7.60094 37.5793 8.02165 38 8.54107 38H29.4601C29.9795 38 30.4002 37.5793 30.4002 37.0599V31.3404C30.4002 30.8209 30.8209 30.4002 31.3404 30.4002H37.0599C37.5793 30.4002 38 29.9795 38 29.4601V14.2606ZM30.4002 23.7406V29.4601C30.4002 29.9795 29.9795 30.4002 29.4601 30.4002H8.54107C8.02165 30.4002 7.60094 29.9795 7.60094 29.4601V8.53989C7.60094 8.02165 8.02165 7.59976 8.54107 7.59976H29.4601C29.9795 7.59976 30.4002 8.02165 30.4002 8.53989V23.7406Z" fill="#D9D9D9"/>
</svg>
