<svg width="32" height="28" viewBox="0 0 32 28" fill="none" xmlns="http://www.w3.org/2000/svg">
<path d="M10.2092 7.11786L9.65696 11.1025H22.108L21.4901 7.0437L10.2092 7.11786Z" fill="#FFFAEB"/>
<path d="M21.7274 6.32919L29.8333 3.13857L21.7178 0.0235312C21.6772 0.00784374 21.6337 0 21.5902 0H10.1802C10.1363 0 10.0932 0.00820028 10.0525 0.0235312L1.93914 3.1375L9.96733 6.4062L21.7274 6.32919Z" fill="#FFFAEB"/>
<path d="M22.8083 10.9639L31.7521 7.44273L30.2971 3.72266L22.1919 6.91292L22.8083 10.9639Z" fill="#FFFAEB"/>
<path d="M9.77734 11.8157L15.8852 26.8307L21.9931 11.8157H9.77734Z" fill="#FFFAEB"/>
<path d="M9.50719 6.98875L1.47507 3.71826L0.0186081 7.44262L8.95633 10.9613L9.50719 6.98875Z" fill="#FFFAEB"/>
<path d="M22.7956 11.7353C22.7956 11.7353 16.1807 27.9776 16.1625 28C16.1632 27.9993 31.7704 8.20239 31.7704 8.20239L22.7956 11.7353Z" fill="#FFFAEB"/>
<path d="M0 8.20142C0 8.20142 15.6072 27.9983 15.6079 27.999C15.59 27.9766 8.97481 11.7343 8.97481 11.7343L0 8.20142Z" fill="#FFFAEB"/>
</svg>
