<svg width="26" height="32" viewBox="0 0 26 32" fill="none" xmlns="http://www.w3.org/2000/svg">
<path fill-rule="evenodd" clip-rule="evenodd" d="M19.2353 20.4478L20.3164 9.35486L1.42829 9.35347L3.17238 27.2497C3.25712 28.1188 3.90639 28.814 4.76475 28.814H14.9065C14.6345 28.1076 14.4856 27.3387 14.4856 26.535C14.4856 23.5706 16.514 21.0889 19.2353 20.4478ZM9.23835 22.4152H7.50794C7.07465 22.4152 6.69195 22.1872 6.47598 21.8062C6.25866 21.4225 6.25866 20.9762 6.47598 20.5938L7.69521 18.4484L7.36717 18.5373C7.16215 18.593 6.95165 18.4692 6.8956 18.2607C6.84092 18.0521 6.96257 17.838 7.1676 17.7809L8.39092 17.4472C8.59594 17.3916 8.80643 17.5154 8.86249 17.7239L9.19053 18.9684C9.2452 19.1769 9.12355 19.3911 8.91853 19.4481C8.71351 19.5037 8.50301 19.38 8.44696 19.1714L8.35948 18.8377L7.14162 20.9845C7.06371 21.1208 7.06371 21.2793 7.14162 21.4169C7.22226 21.5587 7.34938 21.6311 7.50931 21.6311H9.23971C9.45294 21.6311 9.62518 21.8062 9.62518 22.0232C9.62381 22.2387 9.45159 22.4152 9.23835 22.4152ZM9.11397 16.7243C8.92945 16.6158 8.86657 16.3767 8.97319 16.1889L9.83841 14.665C10.0557 14.2827 10.4398 14.0602 10.8731 14.0602C11.3077 14.0602 11.6877 14.2827 11.905 14.6664L13.1229 16.8133L13.2104 16.4795C13.2651 16.271 13.4769 16.1472 13.682 16.2028C13.887 16.2585 14.0086 16.474 13.954 16.6826L13.6259 17.927C13.5712 18.1356 13.3594 18.2593 13.1543 18.2037L11.931 17.87C11.726 17.8144 11.6044 17.5989 11.659 17.3903C11.7137 17.1817 11.9256 17.058 12.1306 17.1136L12.4586 17.2026L11.2394 15.0558C11.1615 14.9195 11.0276 14.8402 10.8717 14.8402C10.7118 14.8402 10.5861 14.9167 10.5068 15.0571L9.64155 16.581C9.53357 16.7688 9.29849 16.8327 9.11397 16.7243ZM12.0417 22.6587C12.1921 22.8117 12.1921 23.0592 12.0417 23.2121C11.8914 23.3651 11.6481 23.3651 11.4977 23.2121L10.6025 22.3014C10.4521 22.1484 10.4521 21.9009 10.6025 21.748L11.4977 20.8372C11.6481 20.6843 11.8914 20.6843 12.0417 20.8372C12.1921 20.9902 12.1921 21.2377 12.0417 21.3906L11.8012 21.6353L14.2382 21.634C14.394 21.634 14.528 21.5547 14.6059 21.4184C14.6866 21.2766 14.6838 21.1278 14.6045 20.9874L13.7393 19.4635C13.6327 19.2758 13.6956 19.0367 13.8801 18.9282C14.0646 18.8197 14.2997 18.8837 14.4063 19.0714L15.2716 20.5953C15.4889 20.9777 15.4862 21.4282 15.2702 21.8092C15.0529 22.1915 14.6729 22.4154 14.2382 22.4154L11.8025 22.414L12.0417 22.6587ZM20.955 8.5708H0.790027C0.262433 8.5708 0 8.16619 0 7.76019C0 7.35557 0.263801 6.94957 0.790027 6.94957H20.955C21.4826 6.94957 21.745 7.35419 21.745 7.76019C21.745 8.1648 21.4812 8.5708 20.955 8.5708ZM7.88795 3.25642H6.41588V3.17994C6.41588 2.30398 6.76716 1.50864 7.33303 0.932989C7.8989 0.357341 8.68074 0 9.54184 0H12.2044C13.0655 0 13.8474 0.357341 14.4133 0.932989C14.9791 1.50864 15.3304 2.30398 15.3304 3.17994V3.25642H13.8583V3.17994C13.8583 2.71692 13.6724 2.297 13.3731 1.99113C13.0738 1.68662 12.6596 1.49753 12.2045 1.49753H9.54187C9.08671 1.49753 8.67392 1.68663 8.37324 1.99113C8.0739 2.29564 7.88802 2.71696 7.88802 3.17994L7.88795 3.25642ZM20.6282 21.0708C17.6608 21.0708 15.2564 23.518 15.2564 26.5354C15.2564 29.5541 17.662 32 20.6282 32C23.5956 32 26 29.5528 26 26.5354C26 23.5167 23.5944 21.0708 20.6282 21.0708ZM22.159 28.443C21.7736 28.9699 21.2323 29.2967 20.6268 29.2967C20.0213 29.2967 19.4801 28.9699 19.0946 28.443C18.7338 27.9494 18.5109 27.2736 18.5109 26.5353C18.5109 25.7956 18.7337 25.1212 19.0946 24.6276C19.4801 24.1006 20.0213 23.7738 20.6268 23.7738C21.2323 23.7738 21.7736 24.1006 22.159 24.6276C22.5199 25.1212 22.7427 25.7969 22.7427 26.5353C22.7427 27.275 22.5199 27.9494 22.159 28.443ZM21.5426 25.092C21.8078 25.4563 21.9732 25.9652 21.9732 26.5353C21.9732 27.104 21.8091 27.6142 21.5426 27.9785C21.3007 28.3095 20.9767 28.5139 20.6268 28.5139C20.2769 28.5139 19.953 28.3095 19.711 27.9785C19.4459 27.6143 19.2805 27.1054 19.2805 26.5353C19.2805 25.9666 19.4445 25.4563 19.711 25.092C19.953 24.7611 20.2769 24.5567 20.6268 24.5567C20.9767 24.5581 21.302 24.7624 21.5426 25.092ZM20.3917 6.16523H1.3531C1.50209 4.96944 2.50945 4.03923 3.72455 4.03923H18.0201C19.2353 4.03923 20.2428 4.96944 20.3917 6.16523Z" fill="#FFFAEB"/>
</svg>
